<svg id="LDC_logo" xmlns="http://www.w3.org/2000/svg" viewBox="0 0 122 56.9"><style>.st0{fill:#4E9D2D;} .st1{fill:#32556E;}</style><path class="st0" d="M118.2 43.1c2.1 0 3.8-1.7 3.8-3.8s-1.7-3.8-3.8-3.8c-2.1 0-3.8 1.7-3.8 3.8s1.7 3.8 3.8 3.8"/><path class="st1" d="M11.4 35.3c0 2.9.2 4 1.5 4.5s3.4.6 6.4.6c6.3 0 9.6-.8 10.8-8.7h1.8l-.7 10.8H0v-1.7c5.3-.4 5.4-.5 5.4-3.8V6.5C5.4 3.1 5.3 3 0 2.6V.9h17.1v1.7c-5.6.4-5.8.5-5.8 3.8v28.9zM44.2 35c0 4.7 1 5.4 6.3 5.4 10.1 0 17.5-4 17.5-19.2C68 11 64.2 3.2 51.2 3c-6.4 0-7 .3-7 3.4V35zM52.8.9C60 1 65.4 2.5 69.3 6.1c3.7 3.5 5.4 8.8 5.4 14.8 0 9-3.4 14.6-7.8 17.7-4.4 3.1-9.9 3.8-15.3 3.8H32.8v-1.7c5.3-.4 5.4-.5 5.4-3.8V6.5c0-3.4-.1-3.5-5.4-3.8V.9h20zM111.7 11.7h-1.8c-1.1-7.1-5.4-9.6-11.5-9.6C87.1 2 83.2 12 83.2 21.8c0 7.3 2.6 19.5 15 19.5 7.9 0 10.9-4.6 12.6-10.8h1.8l-.8 10c-2.9 1.6-8.4 2.9-13.2 2.9-6.7 0-12.6-1.4-16.4-5.1-3.6-3.6-5.7-9.3-5.7-16.3 0-6.8 2-12 5.5-15.8 3.6-4 9.6-6.2 17-6.2 5.5 0 10 1.1 12.7 2.3v9.4z"/><path class="st0" d="M2.2 54.1h2.9v.9h-4v-6.4h1.1v5.5zM5.2 52.5c0-.5.1-.9.3-1.3.2-.4.4-.7.8-.9.3-.2.7-.3 1.2-.3.6 0 1.2.2 1.6.6.4.4.6 1 .6 1.6v.3c0 .5-.1.9-.3 1.3-.2.4-.4.7-.8.9-.4.2-.8.3-1.2.3-.7 0-1.2-.2-1.6-.7-.4-.4-.6-1-.6-1.8zm1 .1c0 .5.1.9.3 1.1.2.3.5.4.8.4.4 0 .6-.1.8-.4.2-.3.3-.7.3-1.2s-.1-.9-.3-1.1c-.1-.3-.4-.4-.7-.4-.3 0-.6.1-.8.4-.3.3-.4.7-.4 1.2zM13.1 54.5c-.3.4-.8.6-1.3.6s-.9-.2-1.2-.5c-.3-.3-.4-.7-.4-1.3v-3.1h1.1v3.1c0 .6.3.9.8.9s.9-.2 1.1-.6v-3.4h1.1V55h-1l-.2-.5zM15.1 49c0-.2.1-.3.2-.4.1-.1.3-.2.4-.2s.3.1.4.2c.1.1.2.2.2.4s-.1.3-.2.4c-.1.1-.3.2-.4.2s-.3-.1-.4-.2c-.1-.1-.2-.3-.2-.4zm1.1 6h-1.1v-4.8h1.1V55zM19.9 53.7c0-.2-.1-.3-.2-.4-.2-.1-.4-.2-.8-.3-.4-.1-.7-.2-.9-.3-.5-.3-.8-.6-.8-1.1 0-.4.2-.8.5-1 .3-.3.8-.4 1.3-.4.6 0 1 .1 1.4.4.4.3.5.6.5 1.1h-1.1c0-.2-.1-.4-.2-.5-.2-.1-.4-.2-.6-.2-.2 0-.4.1-.6.2-.1.1-.2.3-.2.4 0 .2.1.3.2.4.1.1.4.2.8.3.4.1.7.2 1 .3.2.1.4.3.5.5s.2.4.2.7c0 .4-.2.8-.5 1-.4.3-.8.4-1.4.4-.4 0-.7-.1-1-.2-.3-.1-.5-.3-.7-.6s-.3-.5-.3-.8h1c0 .3.1.4.3.6.2.1.4.2.7.2.3 0 .5-.1.6-.2.3-.2.3-.4.3-.5zM23.9 55v-6.4h1.9c.6 0 1.1.1 1.5.4.4.3.8.6 1 1.1.2.5.4 1 .4 1.6v.3c0 .6-.1 1.1-.4 1.6-.2.5-.6.8-1 1.1-.4.2-1 .4-1.5.4h-1.9zm1.1-5.6V54h.7c.6 0 1-.2 1.3-.5.3-.4.5-.9.5-1.6v-.4c0-.7-.2-1.2-.5-1.6-.3-.4-.7-.5-1.3-.5H25zM32 51.2h-.4c-.5 0-.8.2-1 .6V55h-1.1v-4.8h1v.5c.3-.4.6-.6 1.1-.6.2 0 .3 0 .4.1v1zM34.6 55c-.7 0-1.2-.2-1.6-.6-.4-.4-.6-1-.6-1.7v-.1c0-.5.1-.9.3-1.3.2-.4.4-.7.8-.9.3-.2.7-.3 1.1-.3.6 0 1.1.2 1.5.6.4.4.5 1 .5 1.8v.4h-3.1c0 .4.2.7.4.9.2.2.5.3.9.3.5 0 .9-.2 1.2-.6l.6.5c-.2.3-.4.5-.8.7-.5.3-.8.3-1.2.3zm-.2-4c-.3 0-.5.1-.7.3-.2.2-.3.5-.3.9h2v-.1c0-.4-.1-.6-.3-.8-.1-.2-.4-.3-.7-.3zM38.9 53.4l1-3.2H41l-1.9 5.5c-.3.8-.8 1.2-1.5 1.2-.2 0-.3 0-.5-.1V56h.2c.3 0 .5 0 .6-.1.1-.1.2-.3.3-.5l.2-.4-1.7-4.7h1.2l1 3.1zM42.2 55v-4h-.7v-.8h.7v-.4c0-.5.1-.9.4-1.2s.7-.4 1.2-.4c.2 0 .4 0 .6.1v.8H44c-.5 0-.8.3-.8.8v.4h1v.7h-1v4h-1zM47.9 54.5c-.3.4-.8.6-1.3.6s-.9-.2-1.2-.5c-.3-.3-.4-.7-.4-1.3v-3.1h1.1v3.1c0 .6.3.9.8.9s.9-.2 1.1-.6v-3.4h1V55h-1l-.1-.5zM52.7 53.7c0-.2-.1-.3-.2-.4-.2-.2-.5-.3-.9-.3-.4-.1-.7-.2-.9-.3-.5-.3-.8-.6-.8-1.1 0-.4.2-.8.5-1 .3-.3.8-.4 1.3-.4.6 0 1 .1 1.4.4.4.3.5.6.5 1.1h-1.1c0-.2-.1-.4-.2-.5-.2-.1-.4-.2-.6-.2-.2 0-.4.1-.6.2-.1 0-.1.1-.1.3 0 .2.1.3.2.4.1.1.4.2.8.3.4.1.7.2 1 .3.2.1.4.3.5.5.1.2.2.4.2.7 0 .4-.2.8-.5 1-.4.3-.8.4-1.4.4-.4 0-.7-.1-1-.2-.3-.1-.5-.3-.7-.6s-.3-.5-.3-.8h1c0 .3.1.4.3.6.2.1.4.2.7.2.3 0 .5-.1.6-.2.2-.1.3-.3.3-.4zM61.6 52.9c-.1.7-.3 1.2-.8 1.6-.4.4-1 .6-1.8.6-.5 0-1-.1-1.3-.4-.4-.2-.7-.6-.9-1-.2-.4-.3-1-.3-1.6v-.6c0-.6.1-1.1.3-1.6.2-.5.5-.8.9-1.1.4-.2.9-.4 1.4-.4.7 0 1.3.2 1.7.6.4.4.7.9.8 1.6h-1.1c-.1-.5-.2-.8-.4-1-.2-.2-.5-.3-.9-.3-.5 0-.9.2-1.1.5-.3.4-.4.9-.4 1.6v.6c0 .7.1 1.2.4 1.6.2.4.6.5 1.1.5.4 0 .8-.1 1-.3.2-.2.4-.5.4-1h1zM62.1 52.5c0-.5.1-.9.3-1.3.2-.4.4-.7.8-.9.3-.2.7-.3 1.2-.3.6 0 1.2.2 1.6.6.4.4.6 1 .6 1.6v.3c0 .5-.1.9-.3 1.3-.2.4-.4.7-.8.9-.3.2-.7.3-1.2.3-.7 0-1.2-.2-1.6-.7-.4-.4-.6-1-.6-1.8zm1.1.1c0 .5.1.9.3 1.1.2.3.5.4.8.4.4 0 .6-.1.8-.4.2-.3.3-.7.3-1.2s-.1-.9-.3-1.1c-.2-.3-.5-.4-.8-.4-.3 0-.6.1-.8.4-.2.3-.3.7-.3 1.2zM68.2 50.2v.5c.3-.4.8-.6 1.4-.6.6 0 1.1.2 1.3.7.3-.5.8-.7 1.5-.7.5 0 .9.1 1.2.4.3.3.4.7.4 1.3V55h-1.1v-3.1c0-.3-.1-.5-.2-.7-.2-.1-.4-.2-.7-.2-.2 0-.4.1-.6.2-.2.1-.3.3-.3.5V55H70v-3.1c0-.6-.3-.8-.9-.8-.4 0-.7.2-.9.5V55h-1.1v-4.8h1.1zM79 52.6c0 .7-.2 1.3-.5 1.8-.3.4-.8.7-1.3.7s-.9-.2-1.3-.5v2.3h-1.1v-6.6h1v.5c.3-.4.7-.6 1.3-.6.6 0 1 .2 1.4.6.3.4.5 1 .5 1.8zm-1.1-.1c0-.5-.1-.9-.3-1.1-.2-.3-.5-.4-.8-.4-.4 0-.8.2-.9.5v2.1c.2.4.5.6.9.6.3 0 .6-.1.8-.4.2-.3.3-.7.3-1.3zM82.5 55c0-.1-.1-.2-.1-.4-.3.4-.8.5-1.2.5-.5 0-.9-.1-1.2-.4-.3-.3-.5-.6-.5-1 0-.5.2-.9.6-1.2.4-.3.9-.4 1.6-.4h.7v-.3c0-.2-.1-.4-.2-.6-.1-.1-.3-.2-.6-.2-.2 0-.4.1-.6.2-.2.1-.2.3-.2.5h-1.1c0-.3.1-.5.3-.7.2-.2.4-.4.7-.5.3-.1.6-.2 1-.2.6 0 1 .1 1.3.4.3.3.5.7.5 1.2V54c0 .4.1.8.2 1h-1.2zm-1.1-.8c.2 0 .4-.1.6-.2.2-.1.3-.2.4-.4v-.9h-.6c-.4 0-.7.1-.9.2-.2.1-.3.3-.3.6 0 .2.1.4.2.5.1.1.3.2.6.2zM85.5 50.2v.5c.4-.4.8-.6 1.4-.6 1 0 1.5.6 1.5 1.7V55h-1.1v-3.1c0-.3-.1-.5-.2-.7-.1-.1-.3-.2-.6-.2-.4 0-.8.2-1 .6V55h-1.1v-4.8h1.1zM91 53.4l1-3.2h1.1l-1.9 5.5c-.3.8-.8 1.2-1.5 1.2-.2 0-.3 0-.5-.1V56h.2c.3 0 .5 0 .6-.1.1-.1.2-.3.3-.5l.2-.4-1.7-4.7H90l1 3.1z"/></svg>