<?xml version="1.0" encoding="iso-8859-1"?>
<!-- Generator: Adobe Illustrator 19.0.0, SVG Export Plug-In . SVG Version: 6.00 Build 0)  -->
<svg version="1.1" id="Capa_1" xmlns="http://www.w3.org/2000/svg" xmlns:xlink="http://www.w3.org/1999/xlink" x="0px" y="0px"
	 viewBox="0 0 507.956 507.956" style="enable-background:new 0 0 507.956 507.956;" xml:space="preserve">
<g>
	<g>
		<path d="M396.478,488l55.5-238.1l-34-17.8V49.2h-131.2V0h-65.6v49.2h-131.2v182.9l-34,17.8l55.5,238.1
			c-4.5-0.1-34.5-24.4-76.6-3.3l7.7,14.5c16.8-9,36.9-9,53.8,0c21.7,11.6,47.6,11.6,69.2,0c16.8-9,36.9-9,53.8,0
			c21.7,11.6,47.6,11.6,69.2,0c16.8-9,37-9,53.8,0c30.5,16.4,58.4,5.8,69.2,0c16.8-9,36.9-9,53.8,0l7.7-14.5
			C451.378,473.2,425.478,472.3,396.478,488z M237.578,16.4L237.578,16.4h32.8v32.8h-32.8V16.4z M106.378,65.6h295.2v158l-147.6-77
			l-147.6,77V65.6z M350.078,484.8c-21.7-11.6-47.6-11.6-69.2,0c-16.8,9-36.9,9-53.8,0c-21.7-11.6-47.6-11.6-69.2,0
			c-9,4.8-18.9,6.9-28.7,6.6l-54.4-232.9l179.2-93.5l179.2,93.5l-54.3,232.9C368.978,491.7,359.078,489.6,350.078,484.8z"/>
	</g>
</g>
<g>
	<g>
		<path d="M122.778,82v65.6h65.6V82H122.778z M171.978,131.2h-32.8V98.4h32.8V131.2z"/>
	</g>
</g>
<g>
	<g>
		<path d="M319.578,82v65.6h65.6V82H319.578z M368.778,131.2h-32.8V98.4h32.8V131.2z"/>
	</g>
</g>
<g>
	<g>
		<rect x="245.778" y="106.6" width="16.4" height="16.4"/>
	</g>
</g>
<g>
	<g>
		<rect x="278.578" y="106.6" width="16.4" height="16.4"/>
	</g>
</g>
<g>
	<g>
		<rect x="212.978" y="106.6" width="16.4" height="16.4"/>
	</g>
</g>
<g>
</g>
<g>
</g>
<g>
</g>
<g>
</g>
<g>
</g>
<g>
</g>
<g>
</g>
<g>
</g>
<g>
</g>
<g>
</g>
<g>
</g>
<g>
</g>
<g>
</g>
<g>
</g>
<g>
</g>
</svg>
