<?xml version="1.0" encoding="iso-8859-1"?>
<!-- Generator: Adobe Illustrator 19.0.0, SVG Export Plug-In . SVG Version: 6.00 Build 0)  -->
<svg version="1.1" id="Capa_1" xmlns="http://www.w3.org/2000/svg" xmlns:xlink="http://www.w3.org/1999/xlink" x="0px" y="0px"
	 viewBox="0 0 512 512" style="enable-background:new 0 0 512 512;" xml:space="preserve">
<path style="fill:#303C42;" d="M412.083,234.021c-6.438-12.115-17.146-21.177-30.188-25.531l-29.083-9.688
	c-8.958-2.979-16.083-9.719-19.604-18.469l-4.229-10.583c-3.313-8.26-9.688-14.583-17.958-17.781
	c-8.417-3.281-17.979-2.844-26.167,1.167c-18.833,9.104-38.875,9.115-57.708-0.01c-8.229-3.979-17.792-4.385-26.167-1.156
	c-8.271,3.198-14.646,9.521-17.958,17.792l-4.229,10.563c-3.521,8.76-10.667,15.5-19.604,18.479l-29.083,9.698
	c-13.042,4.344-23.75,13.406-30.188,25.5L27.604,369.573c-4.104,7.708-6.271,16.385-6.271,25.094V448
	c0,23.531,19.146,42.667,42.667,42.667h384c23.521,0,42.667-19.135,42.667-42.667v-53.333c0-8.708-2.167-17.385-6.271-25.104
	L412.083,234.021z"/>
<path style="fill:#455A64;" d="M469.333,448c0,11.76-9.563,21.333-21.333,21.333H64c-11.771,0-21.333-9.573-21.333-21.333v-53.333
	c0-5.219,1.313-10.438,3.771-15.063l72.313-135.583c3.854-7.25,10.292-12.677,18.104-15.281l29.083-9.698
	c14.917-4.969,26.813-16.188,32.646-30.792l4.229-10.563c1.083-2.719,3.167-4.781,5.875-5.823c1.271-0.5,2.604-0.74,3.979-0.74
	c1.75,0,3.542,0.406,5.188,1.198c24.625,11.958,51.667,11.948,76.292,0.01c2.938-1.427,6.271-1.573,9.167-0.469
	c2.708,1.042,4.792,3.104,5.875,5.813l4.229,10.583c5.833,14.594,17.729,25.813,32.646,30.781v0.01l29.083,9.677
	c7.813,2.615,14.25,8.042,18.104,15.313l72.313,135.552c2.458,4.635,3.771,9.854,3.771,15.073V448z"/>
<path style="opacity:0.1;enable-background:new    ;" d="M465.563,379.594L393.25,244.042c-3.854-7.271-10.292-12.698-18.104-15.313
	l-29.083-9.677v-0.01c-14.917-4.969-26.813-16.188-32.646-30.781l-4.229-10.583c-1.083-2.708-3.167-4.771-5.875-5.813
	c-2.29-0.874-4.816-0.733-7.241-0.027c0.047,0.02,0.099,0.007,0.145,0.027c2.302,1.042,4.073,3.104,4.993,5.813l3.595,10.583
	c4.958,14.594,15.069,25.813,27.749,30.781v0.01l24.72,9.677c6.641,2.615,12.113,8.042,15.389,15.313l61.465,135.552
	c2.09,4.635,3.206,9.854,3.206,15.073V448c0,11.76-8.128,21.333-18.133,21.333H448c11.771,0,21.333-9.573,21.333-21.333v-53.333
	C469.333,389.448,468.021,384.229,465.563,379.594z"/>
<path style="opacity:0.2;fill:#FFFFFF;enable-background:new    ;" d="M74.667,448v-53.333c0-5.219,1.116-10.438,3.206-15.063
	l61.465-135.583c3.276-7.25,8.749-12.677,15.389-15.281l24.72-9.698c12.68-4.969,22.79-16.188,27.749-30.792l3.595-10.563
	c0.921-2.719,2.691-4.781,4.993-5.823c0.014-0.007,0.03-0.003,0.044-0.009c-1.055-0.297-2.095-0.73-3.161-0.73
	c-1.375,0-2.708,0.24-3.979,0.74c-2.708,1.042-4.792,3.104-5.875,5.823l-4.229,10.563c-5.833,14.604-17.729,25.823-32.646,30.792
	l-29.083,9.698c-7.813,2.604-14.25,8.031-18.104,15.281L46.438,379.604c-2.458,4.625-3.771,9.844-3.771,15.063V448
	c0,11.76,9.563,21.333,21.333,21.333h28.799C82.794,469.333,74.667,459.76,74.667,448z"/>
<path style="fill:#303C42;" d="M502.813,116.979C436.833,55.302,349.188,21.333,256,21.333S75.167,55.302,9.188,116.979
	C3.271,122.531,0,129.969,0,137.948s3.271,15.417,9.188,20.969l49.167,45.979c11.813,11.042,31,11,42.771,0
	c16.396-15.365,35.104-28.031,55.479-37.615c10.458-4.781,17.208-15.104,17.083-24.729L181,93.573
	c53.063-14.979,97.458-15.01,150.021-0.01l7.167,47.417c0,11.188,6.458,21.271,16.979,26.375
	c20.479,9.656,39.167,22.323,55.563,37.667c5.896,5.51,13.646,8.271,21.396,8.271c7.729,0,15.479-2.76,21.375-8.271l49.313-46.104
	c5.917-5.552,9.188-12.99,9.188-20.969S508.729,122.531,502.813,116.979z"/>
<path style="fill:#455A64;" d="M488.229,143.333l-49.313,46.104c-3.646,3.406-10,3.365-13.604,0
	c-18.021-16.865-38.563-30.781-60.938-41.323c-1.458-0.708-4.854-2.823-4.979-8.708l-8.313-55.729
	c-0.604-4.073-3.5-7.438-7.438-8.635c-30.979-9.427-59.167-14.135-87.417-14.135s-56.583,4.708-87.854,14.135
	c-3.938,1.188-6.854,4.552-7.458,8.635l-8.438,57.302c0,2.875-1.875,5.583-4.854,6.948c-22.5,10.583-43.042,24.51-61.083,41.385
	c-3.625,3.344-9.979,3.406-13.604,0l-49.167-45.979c-1.583-1.469-2.438-3.375-2.438-5.385s0.854-3.917,2.438-5.385
	C85.771,74.594,168.25,42.667,256,42.667s170.229,31.927,232.229,89.896c1.583,1.469,2.438,3.375,2.438,5.385
	S489.813,141.865,488.229,143.333z"/>
<path style="fill:#303C42;" d="M256,234.667c-77.75,0-138.667,37.479-138.667,85.333S178.25,405.333,256,405.333
	S394.667,367.854,394.667,320S333.75,234.667,256,234.667z"/>
<path style="fill:#FFCA28;" d="M256,384c-63.604,0-117.333-29.313-117.333-64S192.396,256,256,256s117.333,29.313,117.333,64
	S319.604,384,256,384z"/>
<path style="opacity:0.1;enable-background:new    ;" d="M149.333,341.333c0-34.688,53.729-64,117.333-64
	c46.288,0,87.233,15.556,106.159,37.378C367.698,282.389,316.337,256,256,256c-63.604,0-117.333,29.313-117.333,64
	c0,9.444,4.094,18.458,11.174,26.622C149.564,344.872,149.333,343.115,149.333,341.333z"/>
<g>
	<path style="fill:#303C42;" d="M224,266.667c-12.354,0-21.333,6.729-21.333,16c0,9.271,8.979,16,21.333,16
		c12.354,0,21.333-6.729,21.333-16C245.333,273.396,236.354,266.667,224,266.667z"/>
	<path style="fill:#303C42;" d="M288,266.667c-12.354,0-21.333,6.729-21.333,16c0,9.271,8.979,16,21.333,16
		c12.354,0,21.333-6.729,21.333-16C309.333,273.396,300.354,266.667,288,266.667z"/>
</g>
<g>
	<path style="opacity:0.2;fill:#FFFFFF;enable-background:new    ;" d="M224,293.814c-11.185,0-19.237-5.65-20.729-13.574
		c-0.156,0.828-0.604,1.549-0.604,2.427c0,9.271,8.979,16,21.333,16c12.354,0,21.333-6.729,21.333-16
		c0-0.878-0.448-1.599-0.604-2.427C243.237,288.164,235.185,293.814,224,293.814z"/>
	<path style="opacity:0.2;fill:#FFFFFF;enable-background:new    ;" d="M288,293.814c-11.185,0-19.237-5.65-20.729-13.574
		c-0.156,0.828-0.604,1.549-0.604,2.427c0,9.271,8.979,16,21.333,16c12.354,0,21.333-6.729,21.333-16
		c0-0.878-0.448-1.599-0.604-2.427C307.237,288.164,299.185,293.814,288,293.814z"/>
</g>
<g>
	<path style="fill:#303C42;" d="M224,341.333c-12.354,0-21.333,6.729-21.333,16s8.979,16,21.333,16c12.354,0,21.333-6.729,21.333-16
		S236.354,341.333,224,341.333z"/>
	<path style="fill:#303C42;" d="M288,341.333c-12.354,0-21.333,6.729-21.333,16s8.979,16,21.333,16c12.354,0,21.333-6.729,21.333-16
		S300.354,341.333,288,341.333z"/>
</g>
<g>
	<path style="opacity:0.2;fill:#FFFFFF;enable-background:new    ;" d="M224,368.48c-11.185,0-19.237-5.65-20.729-13.574
		c-0.156,0.828-0.604,1.549-0.604,2.427c0,9.271,8.979,16,21.333,16c12.354,0,21.333-6.729,21.333-16
		c0-0.878-0.448-1.599-0.604-2.427C243.237,362.831,235.185,368.48,224,368.48z"/>
	<path style="opacity:0.2;fill:#FFFFFF;enable-background:new    ;" d="M288,368.48c-11.185,0-19.237-5.65-20.729-13.574
		c-0.156,0.828-0.604,1.549-0.604,2.427c0,9.271,8.979,16,21.333,16c12.354,0,21.333-6.729,21.333-16
		c0-0.878-0.448-1.599-0.604-2.427C307.237,362.831,299.185,368.48,288,368.48z"/>
</g>
<path style="fill:#303C42;" d="M170.667,304c-12.354,0-21.333,6.729-21.333,16c0,9.271,8.979,16,21.333,16S192,329.271,192,320
	C192,310.729,183.021,304,170.667,304z"/>
<path style="opacity:0.2;fill:#FFFFFF;enable-background:new    ;" d="M170.667,331.147c-11.185,0-19.237-5.65-20.729-13.574
	c-0.156,0.828-0.604,1.549-0.604,2.427c0,9.271,8.979,16,21.333,16S192,329.271,192,320c0-0.878-0.448-1.599-0.604-2.427
	C189.904,325.497,181.852,331.147,170.667,331.147z"/>
<path style="fill:#303C42;" d="M341.333,304C328.979,304,320,310.729,320,320c0,9.271,8.979,16,21.333,16s21.333-6.729,21.333-16
	C362.667,310.729,353.688,304,341.333,304z"/>
<path style="opacity:0.2;fill:#FFFFFF;enable-background:new    ;" d="M341.333,331.147c-11.185,0-19.237-5.65-20.729-13.574
	C320.448,318.401,320,319.122,320,320c0,9.271,8.979,16,21.333,16s21.333-6.729,21.333-16c0-0.878-0.448-1.599-0.604-2.427
	C360.57,325.497,352.518,331.147,341.333,331.147z"/>
<linearGradient id="SVGID_1_" gradientUnits="userSpaceOnUse" x1="-47.2905" y1="639.0549" x2="-22.5489" y2="627.5162" gradientTransform="matrix(21.3333 0 0 -21.3333 996.3334 13791.667)">
	<stop  offset="0" style="stop-color:#FFFFFF;stop-opacity:0.2"/>
	<stop  offset="1" style="stop-color:#FFFFFF;stop-opacity:0"/>
</linearGradient>
<path style="fill:url(#SVGID_1_);" d="M412.083,234.021c-6.438-12.115-17.146-21.177-30.188-25.531l-29.083-9.688
	c-8.958-2.979-16.083-9.719-19.604-18.469l-4.229-10.583c-3.313-8.26-9.688-14.583-17.958-17.781
	c-8.417-3.281-17.979-2.844-26.167,1.167c-18.833,9.104-38.875,9.115-57.708-0.01c-8.229-3.979-17.792-4.385-26.167-1.156
	c-8.271,3.198-14.646,9.521-17.958,17.792l-4.229,10.563c-3.521,8.76-10.667,15.5-19.604,18.479l-29.083,9.698
	c-13.042,4.344-23.75,13.406-30.188,25.5L27.604,369.573c-4.104,7.708-6.271,16.385-6.271,25.094V448
	c0,23.531,19.146,42.667,42.667,42.667h384c23.521,0,42.667-19.135,42.667-42.667v-53.333c0-8.708-2.167-17.385-6.271-25.104
	L412.083,234.021z M502.813,116.979C436.833,55.302,349.188,21.333,256,21.333S75.167,55.302,9.188,116.979
	C3.271,122.531,0,129.969,0,137.948s3.271,15.417,9.188,20.969l49.167,45.979c11.813,11.042,31,11,42.771,0
	c16.396-15.365,35.104-28.031,55.479-37.615c10.458-4.781,17.208-15.104,17.083-24.729L181,93.573
	c53.063-14.979,97.458-15.01,150.021-0.01l7.167,47.417c0,11.188,6.458,21.271,16.979,26.375
	c20.479,9.656,39.167,22.323,55.563,37.667c5.896,5.51,13.646,8.271,21.396,8.271c7.729,0,15.479-2.76,21.375-8.271l49.313-46.104
	c5.917-5.552,9.188-12.99,9.188-20.969S508.729,122.531,502.813,116.979z"/>
<g>
</g>
<g>
</g>
<g>
</g>
<g>
</g>
<g>
</g>
<g>
</g>
<g>
</g>
<g>
</g>
<g>
</g>
<g>
</g>
<g>
</g>
<g>
</g>
<g>
</g>
<g>
</g>
<g>
</g>
</svg>
