<?xml version="1.0" encoding="iso-8859-1"?>
<!-- Generator: Adobe Illustrator 19.0.0, SVG Export Plug-In . SVG Version: 6.00 Build 0)  -->
<svg version="1.1" id="Capa_1" xmlns="http://www.w3.org/2000/svg" xmlns:xlink="http://www.w3.org/1999/xlink" x="0px" y="0px"
	 viewBox="0 0 512 512" style="enable-background:new 0 0 512 512;" xml:space="preserve">
<path style="fill:#303C42;" d="M405.333,42.667v-32C405.333,4.771,400.563,0,394.667,0C388.771,0,384,4.771,384,10.667v32H277.333
	v-32C277.333,4.771,272.563,0,266.667,0C260.771,0,256,4.771,256,10.667v32H149.333v-32C149.333,4.771,144.563,0,138.667,0
	S128,4.771,128,10.667v32h-21.333C83.146,42.667,64,61.802,64,85.333v384C64,492.865,83.146,512,106.667,512h298.667
	C428.854,512,448,492.865,448,469.333v-384C448,61.802,428.854,42.667,405.333,42.667z"/>
<path style="fill:#546E7A;" d="M106.667,64H128v21.333c-11.771,0-21.333,9.573-21.333,21.333S116.229,128,128,128
	c11.771,0,21.333-9.573,21.333-21.333V64H256v21.333c-11.771,0-21.333,9.573-21.333,21.333S244.229,128,256,128
	c11.771,0,21.333-9.573,21.333-21.333V64H384v21.333c-11.771,0-21.333,9.573-21.333,21.333S372.229,128,384,128
	c11.771,0,21.333-9.573,21.333-21.333V64c11.771,0,21.333,9.573,21.333,21.333v64H85.333v-64C85.333,73.573,94.896,64,106.667,64z"
	/>
<g>
	<rect x="277.333" y="64" style="opacity:0.2;fill:#FFFFFF;enable-background:new    ;" width="106.667" height="12.885"/>
	<path style="opacity:0.2;fill:#FFFFFF;enable-background:new    ;" d="M405.333,64v12.888c11.771,0,21.333,9.573,21.333,21.333
		V85.333C426.667,73.573,417.104,64,405.333,64z"/>
	<rect x="149.333" y="64" style="opacity:0.2;fill:#FFFFFF;enable-background:new    ;" width="106.667" height="12.885"/>
	<path style="opacity:0.2;fill:#FFFFFF;enable-background:new    ;" d="M106.667,76.888H128V64h-21.333
		c-11.771,0-21.333,9.573-21.333,21.333v12.888C85.333,86.461,94.896,76.888,106.667,76.888z"/>
	<path style="fill:#FFFFFF;" d="M405.333,490.667H106.667c-11.771,0-21.333-9.573-21.333-21.333V170.667h341.333v298.667
		C426.667,481.094,417.104,490.667,405.333,490.667z"/>
</g>
<linearGradient id="SVGID_1_" gradientUnits="userSpaceOnUse" x1="-38.7031" y1="642.4844" x2="-23.4963" y2="627.2776" gradientTransform="matrix(21.3333 0 0 -21.3333 996.3334 13791.667)">
	<stop  offset="0" style="stop-color:#000000;stop-opacity:0.1"/>
	<stop  offset="1" style="stop-color:#000000;stop-opacity:0"/>
</linearGradient>
<path style="fill:url(#SVGID_1_);" d="M426.667,469.333V170.667H85.333l320,320C417.104,490.667,426.667,481.094,426.667,469.333z"
	/>
<linearGradient id="SVGID_2_" gradientUnits="userSpaceOnUse" x1="-45.4039" y1="639.2805" x2="-23.3849" y2="629.0125" gradientTransform="matrix(21.3333 0 0 -21.3333 996.3334 13791.667)">
	<stop  offset="0" style="stop-color:#FFFFFF;stop-opacity:0.2"/>
	<stop  offset="1" style="stop-color:#FFFFFF;stop-opacity:0"/>
</linearGradient>
<path style="fill:url(#SVGID_2_);" d="M405.333,42.667v-32C405.333,4.771,400.563,0,394.667,0C388.771,0,384,4.771,384,10.667v32
	H277.333v-32C277.333,4.771,272.563,0,266.667,0C260.771,0,256,4.771,256,10.667v32H149.333v-32C149.333,4.771,144.563,0,138.667,0
	S128,4.771,128,10.667v32h-21.333C83.146,42.667,64,61.802,64,85.333v384C64,492.865,83.146,512,106.667,512h298.667
	C428.854,512,448,492.865,448,469.333v-384C448,61.802,428.854,42.667,405.333,42.667z"/>
<g>
</g>
<g>
</g>
<g>
</g>
<g>
</g>
<g>
</g>
<g>
</g>
<g>
</g>
<g>
</g>
<g>
</g>
<g>
</g>
<g>
</g>
<g>
</g>
<g>
</g>
<g>
</g>
<g>
</g>
</svg>
