<?xml version="1.0" encoding="iso-8859-1"?>
<!-- Generator: Adobe Illustrator 19.0.0, SVG Export Plug-In . SVG Version: 6.00 Build 0)  -->
<svg version="1.1" id="Capa_1" xmlns="http://www.w3.org/2000/svg" xmlns:xlink="http://www.w3.org/1999/xlink" x="0px" y="0px"
	 viewBox="0 0 512 512" style="enable-background:new 0 0 512 512;" xml:space="preserve">
<path style="fill:#303C42;" d="M405.333,64h-64V42.667C341.333,19.135,322.188,0,298.667,0h-85.333
	c-23.521,0-42.667,19.135-42.667,42.667V64h-64C83.146,64,64,83.135,64,106.667v32c0,5.896,4.771,10.667,10.667,10.667h10.667v320
	C85.333,492.865,104.479,512,128,512h256c23.521,0,42.667-19.135,42.667-42.667v-320h10.667c5.896,0,10.667-4.771,10.667-10.667v-32
	C448,83.135,428.854,64,405.333,64z M320,64H192V42.667c0-11.76,9.563-21.333,21.333-21.333h85.333
	c11.771,0,21.333,9.573,21.333,21.333V64z"/>
<g>
	<path style="fill:#546E7A;" d="M405.333,469.333c0,11.76-9.563,21.333-21.333,21.333H128c-11.771,0-21.333-9.573-21.333-21.333
		v-320h298.667V469.333z"/>
	<path style="fill:#546E7A;" d="M426.667,128H85.333v-21.333c0-11.76,9.563-21.333,21.333-21.333h298.667
		c11.771,0,21.333,9.573,21.333,21.333V128z"/>
</g>
<path style="opacity:0.1;enable-background:new    ;" d="M405.333,85.333h-28c9.564,0,17.334,9.573,17.334,21.333V128h32v-21.333
	C426.667,94.906,417.104,85.333,405.333,85.333z"/>
<path style="opacity:0.2;fill:#FFFFFF;enable-background:new    ;" d="M134.666,85.333h-28c-11.771,0-21.333,9.573-21.333,21.333
	V128h32v-21.333C117.333,94.906,125.103,85.333,134.666,85.333z"/>
<linearGradient id="SVGID_1_" gradientUnits="userSpaceOnUse" x1="-38.2031" y1="642.9844" x2="-24.2032" y2="628.9844" gradientTransform="matrix(21.3333 0 0 -21.3333 996.3334 13791.667)">
	<stop  offset="0" style="stop-color:#000000;stop-opacity:0.1"/>
	<stop  offset="1" style="stop-color:#000000;stop-opacity:0"/>
</linearGradient>
<polygon style="fill:url(#SVGID_1_);" points="405.333,149.333 106.667,149.333 405.333,447.999 "/>
<linearGradient id="SVGID_2_" gradientUnits="userSpaceOnUse" x1="-45.3038" y1="638.4956" x2="-24.4893" y2="628.788" gradientTransform="matrix(21.3333 0 0 -21.3333 996.3334 13791.667)">
	<stop  offset="0" style="stop-color:#FFFFFF;stop-opacity:0.2"/>
	<stop  offset="1" style="stop-color:#FFFFFF;stop-opacity:0"/>
</linearGradient>
<path style="fill:url(#SVGID_2_);" d="M405.333,64h-64V42.667C341.333,19.135,322.188,0,298.667,0h-85.333
	c-23.521,0-42.667,19.135-42.667,42.667V64h-64C83.146,64,64,83.135,64,106.667v32c0,5.896,4.771,10.667,10.667,10.667h10.667v320
	C85.333,492.865,104.479,512,128,512h256c23.521,0,42.667-19.135,42.667-42.667v-320h10.667c5.896,0,10.667-4.771,10.667-10.667v-32
	C448,83.135,428.854,64,405.333,64z M320,64H192V42.667c0-11.76,9.563-21.333,21.333-21.333h85.333
	c11.771,0,21.333,9.573,21.333,21.333V64z"/>
<g>
</g>
<g>
</g>
<g>
</g>
<g>
</g>
<g>
</g>
<g>
</g>
<g>
</g>
<g>
</g>
<g>
</g>
<g>
</g>
<g>
</g>
<g>
</g>
<g>
</g>
<g>
</g>
<g>
</g>
</svg>
