<svg xmlns="http://www.w3.org/2000/svg" xmlns:xlink="http://www.w3.org/1999/xlink" width="192" height="35" viewBox="0 0 192 35"><defs><path id="1czxa" d="M228.2 70.58c0 .6-.29 1.16-.76 1.5L207.6 86.66a1.76 1.76 0 0 1-1.88.14c-.6-.32-.98-.95-.98-1.64v-9.09h-6.58c-.6 0-1.07-.53-1.07-1.2 0-.65.48-1.19 1.07-1.19h6.58V71.7h-10.67c-.6 0-1.07-.54-1.07-1.2 0-.66.48-1.2 1.07-1.2h10.67v-1.9h-6.58c-.6 0-1.07-.54-1.07-1.2 0-.66.48-1.2 1.07-1.2h6.58v-9.03c0-.7.37-1.33.98-1.65.6-.32 1.32-.27 1.87.14l19.84 14.6c.48.35.75.91.77 1.52zm-4.91-.03l-14.94-10.99.03 5.44h3.64c.6 0 1.07.54 1.07 1.2 0 .66-.48 1.2-1.07 1.2h-3.62v1.9h7.12c.6 0 1.07.54 1.07 1.2 0 .66-.48 1.2-1.07 1.2h-7.1l.02 1.97h3.58c.6 0 1.07.54 1.07 1.2 0 .66-.48 1.2-1.07 1.2h-3.57v5.6zm26.19 2.22c.2.65.3 1.39.28 2.2a7.55 7.55 0 0 1-2.02 5.3c-1.3 1.34-3.28 2.07-5.9 2.15a8.34 8.34 0 0 1-2.74-.35c-.83-.27-1.57-.57-2.18-.9a4.82 4.82 0 0 1-1.37-1c-.35-.37-.6-.76-.76-1.16a2.9 2.9 0 0 1-.22-1.17c0-.4.12-.75.32-1.03.33-.53.75-.84 1.24-.9.48-.07.92.04 1.33.31l1 .7c.33.23.68.45 1.05.64.37.2.76.36 1.17.48.72.21 1.6.28 2.44-.03a2.74 2.74 0 0 0 1.66-1.52c.16-.37.25-.8.25-1.3 0-.45-.1-.85-.3-1.18a4 4 0 0 0-1.77-1.61c-.37-.19-.7-.33-1-.44-.9-.32-1.73-.67-2.49-1.05a8.76 8.76 0 0 1-2.05-1.37 6.1 6.1 0 0 1-1.4-1.91 6.1 6.1 0 0 1-.53-2.62c0-1.07.21-2.02.64-2.84.42-.82.99-1.5 1.69-2.03a7.33 7.33 0 0 1 2.35-1.2c.8-.24 1.63-.37 2.46-.37h.2c1 .03 1.95.2 2.8.5.86.31 1.6.7 2.16 1.17.6.48 1 1 1.22 1.58a1.96 1.96 0 0 1-.78 2.4c-.24.16-.5.27-.77.33-.28.06-.55.07-.82.02a1.44 1.44 0 0 1-.7-.33l-.69-.47a7.33 7.33 0 0 0-1.75-.84 2.6 2.6 0 0 0-1.88.06 2.44 2.44 0 0 0-1.34 2.08c0 .42.12.78.37 1.09.27.33.6.64 1 .9.41.26.85.49 1.3.67l1.27.55c.95.43 1.78.86 2.47 1.3.7.43 1.3.91 1.76 1.42.47.52.82 1.11 1.03 1.77zm20.69-13.4c.36.4.54.86.54 1.36v13.8c0 1.31-.25 2.48-.76 3.47a7.59 7.59 0 0 1-2.01 2.48 8.41 8.41 0 0 1-2.85 1.47 11.32 11.32 0 0 1-6.46 0 8.74 8.74 0 0 1-2.85-1.46 7.34 7.34 0 0 1-2.86-5.97v-13.8a2 2 0 0 1 .54-1.3c.37-.44.96-.65 1.78-.65.8 0 1.4.2 1.77.6.36.4.55.86.55 1.36v11.81c0 .87.07 1.67.2 2.37.14.68.38 1.27.7 1.74.3.47.74.83 1.28 1.08a5.1 5.1 0 0 0 2.14.4c.85 0 1.55-.13 2.1-.38.52-.24.95-.6 1.26-1.05a4.3 4.3 0 0 0 .65-1.72c.13-.7.19-1.52.19-2.44V60.73c0-.45.17-.9.5-1.31.35-.43.96-.65 1.82-.65.8 0 1.4.2 1.77.6zm20.23 18.74c.47.48.72 1.04.74 1.67.02.64-.2 1.2-.68 1.7a2.56 2.56 0 0 1-1.88.79c-.58 0-1.06-.2-1.43-.57l-7.77-8.38v6.98c0 .51-.2.97-.58 1.37-.39.4-1 .6-1.8.6-.81 0-1.4-.23-1.75-.66-.33-.41-.5-.85-.5-1.3V61.48c0-.48.04-.86.12-1.16.08-.34.25-.6.49-.8.23-.18.53-.3.93-.36.36-.05.82-.08 1.37-.08h4.7c1.25 0 2.36.1 3.32.3.99.22 1.82.59 2.5 1.1a4.83 4.83 0 0 1 1.52 2.09c.34.85.5 1.92.5 3.16 0 1.92-.43 3.41-1.3 4.44a6.22 6.22 0 0 1-3.48 2.05l-.63.13-.08.01zm-8.03-9.73a4.7 4.7 0 0 0 2.45-.51c.5-.32.75-1.02.75-2.1 0-.5-.09-.91-.25-1.23a1.83 1.83 0 0 0-.66-.73c-.29-.18-.63-.3-1.02-.38-.4-.07-.84-.1-1.27-.1h-2.99v5.05zm25.95-8.82c.37.32.56.86.59 1.6.02.76-.18 1.31-.58 1.64-.39.3-.92.46-1.59.46h-7.25v4.8h6.32c.67 0 1.21.17 1.62.52.36.37.54.9.54 1.6 0 .72-.18 1.26-.53 1.58-.35.32-.89.48-1.63.48h-6.32v8.42c0 .38-.2.75-.59 1.1-.38.34-.95.5-1.76.5s-1.38-.16-1.74-.5c-.37-.35-.55-.72-.55-1.1V61.14c0-.75.2-1.3.62-1.61.38-.3.93-.44 1.67-.44h9.63c.68 0 1.2.16 1.55.47zm18.53 19.98c.29.93.2 1.63-.28 2.08-.44.43-1.02.64-1.74.64h-.12c-.66 0-1.17-.17-1.52-.51-.34-.34-.6-.74-.78-1.2l-1.43-3.65h-5.93l-1.3 3.48c-.2.55-.49 1-.86 1.34-.38.36-.94.54-1.66.54-.71 0-1.3-.2-1.74-.62-.47-.45-.55-1.18-.22-2.17l6.43-19.2c.12-.38.38-.74.77-1.04.4-.3.92-.46 1.56-.46.65 0 1.17.15 1.57.46.39.3.65.66.77 1.06zm-6.81-6.85l-2-6.61-2.01 6.61zm27.94 4.57c.2.4.26.8.21 1.23-.05.32-.25.7-.62 1.18a6.4 6.4 0 0 1-1.47 1.35 9.47 9.47 0 0 1-5.27 1.56c-1.59 0-3.09-.27-4.46-.82a10.04 10.04 0 0 1-3.58-2.4c-1-1.04-1.79-2.33-2.34-3.82-.55-1.49-.82-3.2-.8-5.08.02-1.87.3-3.57.85-5.05a11.44 11.44 0 0 1 2.2-3.77 9.5 9.5 0 0 1 3.32-2.37 10.37 10.37 0 0 1 9.3.61c.64.41 1.16.85 1.53 1.31.4.49.6.9.66 1.29.05.32.03.6-.06.85-.08.2-.14.35-.19.44a2.14 2.14 0 0 1-1.1.88c-.4.19-.9.18-1.32-.05-.36-.2-.77-.44-1.2-.73a10.8 10.8 0 0 0-1.51-.8 5.1 5.1 0 0 0-2.08-.38c-.92 0-1.75.21-2.46.64a5.84 5.84 0 0 0-1.81 1.72 8.08 8.08 0 0 0-1.11 2.48 11.35 11.35 0 0 0 .04 5.9 8 8 0 0 0 1.25 2.54 5.6 5.6 0 0 0 4.72 2.37h.14a5.61 5.61 0 0 0 3.42-1.14l.8-.61c.62-.46 1.24-.54 1.83-.26a2 2 0 0 1 1.1.93zm17.47.95c.4.32.62.87.62 1.65 0 .77-.21 1.33-.62 1.64-.39.3-1 .44-1.86.44H354c-.68 0-1.23-.14-1.63-.41-.44-.3-.66-.86-.66-1.64V61.14c0-.75.2-1.3.61-1.61.4-.3.94-.44 1.68-.44h9.63c.67 0 1.2.16 1.55.47.36.32.56.86.58 1.6.03.76-.17 1.31-.58 1.64-.38.3-.91.46-1.58.46h-7.25v4.8h6.94c.74 0 1.29.17 1.64.52.35.34.52.88.52 1.6 0 .72-.18 1.26-.53 1.58-.35.32-.88.48-1.63.48h-6.94v5.53h7.25c.86 0 1.47.14 1.86.44zM382 61.11v19.6c0 .71-.4 1.55-2.26 1.55-1.86 0-2.25-.84-2.25-1.54V63.77h-1.24c-.63 0-.92-.29-1.06-.53-.18-.3-.26-.86-.26-1.75 0-.83.11-1.4.35-1.76a1.3 1.3 0 0 1 1.16-.58h3.12c2.02 0 2.44 1.07 2.44 1.96z"/></defs><g><g transform="translate(-192 -53)"><use fill="#fff" xlink:href="#1czxa"/></g></g></svg>