<?xml version="1.0" encoding="UTF-8"?>
<!DOCTYPE svg PUBLIC "-//W3C//DTD SVG 1.1//EN" "http://www.w3.org/Graphics/SVG/1.1/DTD/svg11.dtd">
<!-- Creator: CorelDRAW 2017 -->
<svg xmlns="http://www.w3.org/2000/svg" xml:space="preserve" width="500px" height="100px" version="1.1" style="shape-rendering:geometricPrecision; text-rendering:geometricPrecision; image-rendering:optimizeQuality; fill-rule:evenodd; clip-rule:evenodd"
viewBox="0 0 677.31 135.6"
 xmlns:xlink="http://www.w3.org/1999/xlink">
 <defs>
  <style type="text/css">
   <![CDATA[
    .fil4 {fill:#FEFEFE}
    .fil2 {fill:#9D9E9E}
    .fil3 {fill:#00A0E3}
    .fil1 {fill:#9D9E9E;fill-rule:nonzero}
    .fil0 {fill:#00A0E3;fill-rule:nonzero}
   ]]>
  </style>
 </defs>
 <g id="Слой_x0020_1">
  <metadata id="CorelCorpID_0Corel-Layer"/>
  <path class="fil0" d="M215.26 36.45l-27.64 40.38 -10.07 0 -10.5 -40.38 10.99 0 6.75 30.66 19.48 -30.66 10.99 0zm120.03 24.16l-17.07 0 1.41 -6.85 17.07 0 -1.41 6.85zm40.55 -17.2l-14.25 0 -6.86 33.31 -0.77 0 -0.02 0.11 -9.32 0 0.02 -0.11 -0.67 0 6.86 -33.31 -14.11 0 1.41 -6.85c13.17,0 25.97,0 39.12,0l-1.41 6.85zm173.35 20.82c-0.72,3.53 -2.51,6.5 -5.34,8.92 -2.84,2.42 -6.06,3.62 -9.67,3.62l-28.47 0 1.49 -7.24 23.47 0c1.57,0 2.97,-0.37 4.2,-1.11 1.4,-0.84 2.25,-2 2.55,-3.47 0.71,-3.43 -1.35,-5.15 -6.19,-5.15l-11.85 0c-3.41,0 -6.18,-1.05 -8.32,-3.16 -2.13,-2.11 -2.87,-4.79 -2.19,-8.05 0.74,-3.61 2.6,-6.53 5.57,-8.78 2.97,-2.24 6.51,-3.36 10.61,-3.36l27.22 0 -1.43 6.9 -23.98 0c-1.08,0 -2.25,0.45 -3.53,1.35 -1.28,0.9 -2.05,1.97 -2.3,3.2 -0.28,1.38 0,2.54 0.87,3.48 0.86,0.94 2.04,1.41 3.53,1.41l13.06 0c4.07,0 7.04,1.04 8.93,3.13 1.89,2.09 2.48,4.86 1.77,8.31zm-49.01 12.49l-12.77 0 -13.31 -29.8 -6.13 29.8 -9.61 0 8.29 -40.27 12.94 0 12.88 30.2 6.22 -30.2 9.78 0 -8.29 40.27zm-118.36 0l-1.02 0 -9.55 0 -0.19 0 8.3 -40.27 0.18 0 29.45 0c3.34,0 5.83,1.29 7.49,3.88 1.65,2.59 2.12,5.65 1.39,9.18 -0.58,2.8 -2.01,5.17 -4.29,7.13 -2.28,1.96 -4.91,3.18 -7.89,3.68l6.65 14.01 24.77 -37.88 10.44 0 9.58 40.27 -10.69 0 -1.59 -9.21 -17.65 0 -5.86 9.21 -7.86 0 -2.7 0 -8.68 0 -7.21 -15.71 -9.83 0 -3.24 15.71zm6.9 -33.48l-2.33 11.27 11.35 0c1.8,0 3.5,-0.4 5.08,-1.21 1.97,-0.99 3.14,-2.39 3.51,-4.2 0.39,-1.88 -0.01,-3.32 -1.2,-4.34 -1.19,-1.02 -2.98,-1.52 -5.36,-1.52l-11.05 0zm54.37 17.25l-2.71 -14.15 -8.71 14.15 11.42 0zm-128.6 -3.96c-1.61,7.82 -4.93,13.42 -9.96,16.79 -4.09,2.73 -9.51,4.09 -16.26,4.09 -7.48,0 -12.68,-1.57 -15.6,-4.72 -3.2,-3.45 -4.01,-8.99 -2.44,-16.63 1.28,-6.25 4.03,-11.12 8.24,-14.61 4.58,-3.79 10.65,-5.69 18.2,-5.69 8.32,0 13.82,1.82 16.48,5.46 2.33,3.22 2.77,8.32 1.34,15.31zm-10.2 -0.23c0.82,-3.96 0.53,-7.1 -0.87,-9.44 -1.58,-2.61 -4.43,-3.91 -8.57,-3.91 -4.07,0 -7.43,1.4 -10.07,4.2 -2.21,2.34 -3.7,5.39 -4.48,9.15 -0.89,4.33 -0.86,7.53 0.1,9.6 1.32,2.88 4.58,4.32 9.75,4.32 4.38,0 7.73,-1.4 10.07,-4.2 1.83,-2.19 3.19,-5.43 4.07,-9.72zm-77.93 20.42l-2.03 0 8.29 -40.27 10.76 0 -0.02 0.06 17.36 0c2.96,0 5.34,0.86 7.15,2.58 1.81,1.73 2.58,3.99 2.31,6.79 -0.01,0.23 -0.03,0.46 -0.08,0.69 -0.05,0.23 -0.1,0.46 -0.14,0.69 -0.45,2.15 -1.35,4.04 -2.72,5.67 -1.37,1.63 -3.19,2.9 -5.45,3.83 1.95,0.76 3.37,1.93 4.25,3.5 0.89,1.58 1.11,3.44 0.67,5.58 -0.63,3.03 -2.23,5.61 -4.81,7.71 -2.58,2.11 -5.39,3.17 -8.42,3.17l-18.39 0 -8.73 0zm12.07 -16.23l-1.93 9.38 14.77 0c1.22,0 2.32,-0.43 3.28,-1.29 0.97,-0.87 1.57,-1.91 1.83,-3.14 0.27,-1.34 0.09,-2.5 -0.55,-3.48 -0.64,-0.98 -1.62,-1.47 -2.92,-1.47l-14.48 0zm20.78 -11.33c0.29,-1.38 0.1,-2.57 -0.56,-3.57 -0.66,-0.99 -1.66,-1.49 -3,-1.49l-13.71 0 -1.98 9.61 14.22 0.05c1.19,0.01 2.26,-0.45 3.21,-1.35 0.95,-0.9 1.56,-1.98 1.82,-3.25zm-40.77 27.56l-10.76 0 8.29 -40.27 10.76 0 -8.29 40.27z"/>
  <path class="fil1" d="M669.14 76.72l-19.15 0c-1.8,0 -3.54,-0.23 -5.19,-0.75 -3.21,-1.01 -5.42,-3.41 -6.64,-7.13 -1.11,-3.38 -1.2,-7.31 -0.28,-11.8 0.89,-4.33 2.49,-8.17 4.78,-11.5 2.53,-3.68 5.56,-6.2 9.09,-7.54 2.74,-1.04 5.44,-1.55 8.09,-1.55l17.47 0 -1.59 7.71 -18.1 0c-2.72,0 -5,1.47 -6.84,4.43 -1.43,2.3 -2.53,5.31 -3.3,9.03 -0.64,3.14 -0.57,5.81 0.2,7.99 0.9,2.57 2.62,3.86 5.19,3.86l17.76 0 -1.49 7.25zm-61.71 0l-3.71 0 8.29 -40.27 10.76 0 -6.95 33.77 21.57 0 -1.34 6.5 -21.57 0 -7.05 0zm-34.4 0l-3.71 0 8.29 -40.27 10.76 0 -6.95 33.77 21.57 0 -1.34 6.5 -21.57 0 -7.05 0z"/>
  <g>
   <path class="fil2" d="M171.8 90.42l0.24 -1.15 0.02 -0.1 0.11 0 6.88 0c0.17,0 0.33,0.01 0.48,0.03 0.16,0.02 0.31,0.04 0.46,0.08 0.15,0.04 0.29,0.08 0.43,0.14 0.13,0.05 0.26,0.11 0.38,0.18 0.12,0.07 0.23,0.15 0.33,0.23l0 0c0.1,0.08 0.19,0.17 0.26,0.27l0 0c0.1,0.13 0.19,0.27 0.25,0.41 0.07,0.14 0.12,0.29 0.14,0.45l0 0c0.04,0.16 0.06,0.31 0.07,0.46l0 0c0.01,0.16 0.01,0.32 -0.01,0.48 -0.02,0.31 -0.06,0.6 -0.13,0.86l0.01 0 -1.62 7.74 0 0c-0.01,0.07 -0.03,0.13 -0.04,0.2 -0.02,0.07 -0.05,0.15 -0.07,0.23 -0.03,0.09 -0.06,0.17 -0.1,0.26 -0.05,0.08 -0.09,0.16 -0.15,0.25l0 0c-0.05,0.09 -0.12,0.18 -0.2,0.26l0 0c-0.07,0.08 -0.15,0.15 -0.25,0.22l0 0.01c-0.09,0.06 -0.19,0.12 -0.29,0.16 -0.1,0.05 -0.2,0.09 -0.3,0.12 -0.1,0.02 -0.21,0.04 -0.31,0.06 -0.1,0.02 -0.2,0.03 -0.3,0.04l0 0 -0.28 0.01 0 0c-0.1,0 -0.18,0 -0.26,0l-5.4 0 0 0c-0.14,0 -0.28,0 -0.42,-0.01 -0.14,0 -0.28,-0.01 -0.43,-0.02 -0.14,-0.01 -0.29,-0.03 -0.43,-0.06l0 0c-0.14,-0.02 -0.29,-0.06 -0.43,-0.1l0 0c-0.14,-0.04 -0.27,-0.1 -0.4,-0.17l0 0c-0.13,-0.07 -0.25,-0.15 -0.37,-0.25l0 0c-0.13,-0.12 -0.23,-0.24 -0.32,-0.38 -0.09,-0.14 -0.17,-0.29 -0.22,-0.45l0 0c-0.06,-0.15 -0.1,-0.31 -0.13,-0.47 -0.03,-0.17 -0.04,-0.33 -0.05,-0.5l0 0c-0.01,-0.17 -0.01,-0.34 0,-0.49 0.01,-0.16 0.02,-0.31 0.04,-0.46 0.02,-0.15 0.04,-0.28 0.06,-0.41 0.02,-0.12 0.04,-0.24 0.07,-0.34 0.07,-0.36 0.17,-0.73 0.31,-1.1 0.07,-0.19 0.15,-0.38 0.24,-0.56l0 0c0.1,-0.18 0.21,-0.36 0.33,-0.54l0 0c0.12,-0.17 0.27,-0.34 0.43,-0.49 0.16,-0.16 0.34,-0.31 0.54,-0.44l0.01 -0.01c0.15,-0.09 0.31,-0.18 0.47,-0.26 0.16,-0.07 0.33,-0.14 0.49,-0.19l0.01 0c0.16,-0.05 0.33,-0.09 0.49,-0.13 0.16,-0.03 0.32,-0.05 0.48,-0.07l0 0c0.16,-0.02 0.32,-0.03 0.46,-0.04 0.15,-0.01 0.29,-0.01 0.43,-0.01l0 0 5.98 0 0.38 -1.83c0.02,-0.07 0.03,-0.14 0.04,-0.22 0,-0.08 0.01,-0.16 0,-0.25l0 0c0,-0.18 -0.01,-0.36 -0.05,-0.54l0 0c-0.02,-0.09 -0.05,-0.17 -0.08,-0.25l0 0c-0.03,-0.07 -0.06,-0.14 -0.1,-0.21 -0.05,-0.07 -0.12,-0.14 -0.2,-0.2 -0.08,-0.07 -0.18,-0.13 -0.28,-0.18l-0.01 0c-0.1,-0.05 -0.23,-0.09 -0.36,-0.12 -0.13,-0.03 -0.28,-0.04 -0.44,-0.04l0 0 -6.81 0 -0.1 0 0.02 -0.11zm6.72 10.06l0.99 -4.75 -6.3 0 0 0c-0.13,0 -0.26,0.01 -0.38,0.02 -0.11,0.02 -0.22,0.04 -0.32,0.08l-0.01 0c-0.1,0.03 -0.2,0.06 -0.29,0.1l0 0c-0.08,0.04 -0.16,0.08 -0.24,0.13 -0.07,0.04 -0.14,0.09 -0.2,0.13l0 0c-0.05,0.05 -0.1,0.09 -0.14,0.13l0 0c-0.1,0.1 -0.19,0.21 -0.27,0.34l0 0c-0.08,0.13 -0.16,0.27 -0.22,0.43 -0.07,0.17 -0.14,0.36 -0.19,0.55 -0.06,0.2 -0.11,0.4 -0.15,0.62l0 0c-0.03,0.13 -0.06,0.26 -0.08,0.39 -0.02,0.14 -0.04,0.27 -0.05,0.41l0 0c-0.02,0.13 -0.02,0.27 -0.02,0.39 -0.01,0.13 0,0.25 0.01,0.37 0.02,0.12 0.04,0.23 0.08,0.34l0 0c0.03,0.1 0.08,0.19 0.13,0.28l0 0c0.06,0.07 0.12,0.14 0.2,0.2 0.07,0.06 0.16,0.12 0.27,0.17l0 0c0.1,0.05 0.21,0.09 0.33,0.11 0.12,0.03 0.25,0.04 0.39,0.04l0 0 5.67 0 0 0c0.04,0 0.08,0 0.13,0 0.05,0 0.1,-0.01 0.15,-0.01l0 0c0.05,-0.01 0.1,-0.02 0.15,-0.04l0 0c0.04,-0.02 0.09,-0.04 0.14,-0.07 0.04,-0.03 0.08,-0.06 0.11,-0.09 0.02,-0.03 0.04,-0.05 0.05,-0.07 0.01,-0.03 0.02,-0.06 0.03,-0.09 0.01,-0.03 0.02,-0.07 0.03,-0.1l0 -0.01zm7.52 -9.13l-2.27 10.86 -0.02 0.11 -0.11 0 -1.38 0 -0.1 0 0.02 -0.11 2.31 -11.08 0.01 0c0.01,-0.1 0.04,-0.21 0.06,-0.31 0.03,-0.11 0.06,-0.22 0.09,-0.33 0.03,-0.12 0.08,-0.23 0.13,-0.34 0.06,-0.11 0.13,-0.22 0.21,-0.32l0.01 0c0.07,-0.09 0.16,-0.18 0.24,-0.25 0.09,-0.07 0.18,-0.13 0.27,-0.17 0.09,-0.05 0.19,-0.09 0.28,-0.12 0.09,-0.03 0.19,-0.06 0.28,-0.07 0.09,-0.02 0.18,-0.03 0.27,-0.04 0.09,-0.01 0.18,-0.01 0.26,-0.01l0 0 8.95 0 0.1 0 -0.02 0.1 -0.24 1.15 -0.02 0.11 -0.11 0 -8.42 0c-0.07,0 -0.14,0 -0.2,0.01 -0.05,0.01 -0.1,0.02 -0.14,0.04l-0.01 0c-0.04,0.01 -0.08,0.03 -0.11,0.05 -0.03,0.02 -0.05,0.03 -0.07,0.05l0 0c-0.03,0.03 -0.05,0.06 -0.07,0.09 -0.02,0.03 -0.04,0.07 -0.06,0.11l0 0c-0.02,0.04 -0.04,0.09 -0.05,0.13 -0.02,0.04 -0.03,0.08 -0.04,0.12 -0.03,0.08 -0.04,0.16 -0.05,0.22zm19.39 9.72l-0.24 1.14 -0.02 0.11 -0.11 0 -6.88 0 0 0c-0.19,0 -0.39,-0.01 -0.6,-0.03 -0.2,-0.02 -0.41,-0.05 -0.62,-0.09l0 0c-0.21,-0.04 -0.42,-0.11 -0.63,-0.19 -0.2,-0.08 -0.4,-0.18 -0.59,-0.29 -0.2,-0.12 -0.38,-0.27 -0.55,-0.44 -0.16,-0.16 -0.32,-0.36 -0.46,-0.59l0 0c-0.14,-0.22 -0.25,-0.45 -0.33,-0.69 -0.08,-0.24 -0.14,-0.49 -0.17,-0.75 -0.02,-0.25 -0.04,-0.51 -0.03,-0.79l0 0c0,-0.27 0.03,-0.56 0.06,-0.85l0 0c0.04,-0.28 0.09,-0.58 0.15,-0.89 0.05,-0.3 0.11,-0.61 0.18,-0.93l0 0c0.05,-0.23 0.1,-0.46 0.15,-0.69 0.06,-0.24 0.12,-0.48 0.19,-0.72 0.07,-0.25 0.15,-0.5 0.24,-0.75 0.09,-0.24 0.19,-0.48 0.3,-0.72 0.11,-0.24 0.24,-0.48 0.38,-0.71 0.15,-0.23 0.31,-0.45 0.48,-0.67l0 0c0.18,-0.22 0.38,-0.43 0.6,-0.63 0.22,-0.2 0.46,-0.39 0.72,-0.56l0 0c0.25,-0.17 0.51,-0.31 0.78,-0.44 0.26,-0.12 0.53,-0.23 0.8,-0.31l0 0c0.27,-0.09 0.54,-0.16 0.8,-0.21 0.27,-0.06 0.54,-0.1 0.81,-0.13 0.27,-0.03 0.53,-0.05 0.78,-0.06 0.25,-0.02 0.49,-0.02 0.73,-0.02l0 0c0.17,0 0.35,0 0.53,0.01 0.18,0.01 0.38,0.02 0.58,0.04l0 0c0.21,0.02 0.41,0.05 0.61,0.09 0.2,0.03 0.41,0.08 0.61,0.13 0.21,0.06 0.41,0.12 0.6,0.2 0.18,0.08 0.37,0.17 0.54,0.27 0.06,0.03 0.12,0.08 0.18,0.13 0.07,0.05 0.14,0.1 0.22,0.17l0 0c0.08,0.07 0.16,0.14 0.24,0.23l0 0c0.08,0.09 0.16,0.18 0.25,0.29 0.08,0.11 0.16,0.23 0.23,0.37 0.08,0.13 0.14,0.27 0.21,0.43l-0.01 0c0.13,0.31 0.21,0.69 0.23,1.11l0 0c0.02,0.22 0.02,0.44 0,0.69 -0.02,0.24 -0.06,0.5 -0.12,0.77l0 0.01c-0.01,0.06 -0.03,0.14 -0.05,0.22 -0.02,0.09 -0.05,0.18 -0.08,0.29 -0.03,0.11 -0.08,0.22 -0.13,0.33l0 0c-0.05,0.11 -0.11,0.22 -0.17,0.33l0 0c-0.07,0.12 -0.16,0.22 -0.25,0.32l0 0.01c-0.09,0.09 -0.19,0.18 -0.31,0.26l0 0c-0.09,0.07 -0.18,0.12 -0.28,0.16l0 0c-0.09,0.05 -0.19,0.08 -0.29,0.11l0 0c-0.1,0.03 -0.2,0.06 -0.29,0.08 -0.1,0.02 -0.19,0.03 -0.29,0.04l0 0c-0.1,0.01 -0.18,0.02 -0.26,0.02l0 0c-0.08,0.01 -0.15,0.01 -0.22,0.01l-8.45 0c-0.03,0.1 -0.05,0.21 -0.07,0.32l0 0c-0.03,0.13 -0.06,0.28 -0.08,0.44l0 0c-0.03,0.15 -0.06,0.31 -0.08,0.47 -0.02,0.16 -0.04,0.32 -0.05,0.47 -0.01,0.15 -0.02,0.29 -0.02,0.43l0 0c0,0.14 0,0.26 0.01,0.37l0 0c0.02,0.26 0.09,0.51 0.19,0.77 0.05,0.12 0.12,0.25 0.19,0.36 0.08,0.12 0.17,0.23 0.27,0.34 0.1,0.1 0.21,0.2 0.34,0.28 0.13,0.09 0.27,0.16 0.43,0.22l0 0c0.16,0.07 0.34,0.12 0.53,0.15 0.19,0.03 0.4,0.05 0.62,0.05l0 0 6.89 0 0.1 0 -0.02 0.11zm-8.84 -6.64c-0.05,0.16 -0.09,0.33 -0.13,0.5l8.45 0 0 0c0.07,0 0.13,-0.01 0.18,-0.03 0.04,-0.01 0.09,-0.03 0.12,-0.05 0.04,-0.03 0.07,-0.06 0.1,-0.1 0.03,-0.03 0.06,-0.07 0.08,-0.11l0 0c0.03,-0.05 0.05,-0.09 0.07,-0.14 0.01,-0.04 0.03,-0.08 0.04,-0.12l0 0 0.01 -0.03c0.02,-0.07 0.03,-0.13 0.03,-0.16l0.01 -0.01c0.04,-0.2 0.07,-0.4 0.08,-0.59 0.02,-0.18 0.02,-0.36 0.01,-0.52 -0.01,-0.16 -0.03,-0.31 -0.06,-0.45l0 0c-0.03,-0.14 -0.06,-0.27 -0.11,-0.39l0 0c-0.04,-0.13 -0.09,-0.24 -0.14,-0.34 -0.06,-0.1 -0.11,-0.19 -0.17,-0.27l0 0c-0.13,-0.18 -0.27,-0.33 -0.43,-0.46 -0.15,-0.12 -0.31,-0.22 -0.49,-0.3l0 0c-0.18,-0.08 -0.37,-0.14 -0.56,-0.19 -0.19,-0.05 -0.39,-0.08 -0.59,-0.1l0 0c-0.22,-0.02 -0.43,-0.03 -0.63,-0.04l0 0c-0.21,-0.01 -0.42,-0.01 -0.63,0l0 0c-0.17,-0.01 -0.35,0 -0.53,0 -0.17,0.01 -0.35,0.02 -0.53,0.03 -0.18,0.01 -0.35,0.03 -0.53,0.06 -0.17,0.03 -0.35,0.07 -0.53,0.11l0 0c-0.17,0.05 -0.35,0.11 -0.52,0.19l0 0c-0.17,0.07 -0.34,0.16 -0.5,0.26l0 0.01c-0.17,0.1 -0.34,0.22 -0.5,0.36 -0.16,0.14 -0.32,0.31 -0.48,0.49 -0.12,0.14 -0.22,0.28 -0.32,0.42l0 0c-0.1,0.14 -0.18,0.29 -0.26,0.44 -0.08,0.15 -0.15,0.31 -0.21,0.47 -0.07,0.16 -0.12,0.33 -0.18,0.51l0 0c-0.05,0.17 -0.1,0.36 -0.15,0.55zm1.12 -2.39l0 0 0 0 0 0zm23.85 -2.77l-2.71 12.94 -0.02 0.11 -0.1 0 -1.38 0 -0.1 0 0.02 -0.11 1.25 -6 -8.21 0 -1.25 6 -0.03 0.11 -0.1 0 -1.38 0 -0.1 0 0.02 -0.11 2.7 -12.94 0.02 -0.1 0.11 0 1.38 0 0.1 0 -0.02 0.1 -1.17 5.59 8.21 0 1.17 -5.59 0.02 -0.1 0.11 0 1.37 0 0.11 0 -0.02 0.1zm7.47 1.26l-2.44 11.68 -0.03 0.11 -0.1 0 -1.38 0 -0.1 0 0.02 -0.11 2.44 -11.68 -5.19 0 -0.11 0 0.03 -0.11 0.23 -1.15 0.03 -0.1 0.1 0 11.97 0 0.11 0 -0.03 0.1 -0.24 1.15 -0.02 0.11 -0.1 0 -5.19 0zm18.06 0.09l-2.42 11.59 -0.02 0.11 -0.1 0 -1.38 0 -0.11 0 0.03 -0.11 2.35 -11.25 0 -0.01c0.01,-0.04 0.01,-0.07 0.02,-0.1 0.01,-0.02 0.01,-0.05 0.01,-0.08l-0.01 0 -0.04 0.02c-0.02,0.02 -0.05,0.04 -0.08,0.08 -0.04,0.04 -0.09,0.09 -0.15,0.15l-9.34 10.47 0 0c-0.09,0.11 -0.19,0.21 -0.28,0.29l0 0c-0.1,0.1 -0.19,0.18 -0.28,0.25 -0.09,0.07 -0.19,0.14 -0.28,0.19l0 0c-0.1,0.06 -0.2,0.1 -0.3,0.14l0 0c-0.1,0.03 -0.2,0.06 -0.31,0.08 -0.11,0.02 -0.23,0.03 -0.34,0.03l-0.01 -0.01c-0.21,0 -0.39,-0.03 -0.54,-0.09 -0.16,-0.06 -0.29,-0.16 -0.38,-0.29 -0.1,-0.12 -0.16,-0.28 -0.18,-0.46 -0.02,-0.17 -0.01,-0.38 0.03,-0.6l0 0 2.45 -11.75 0.02 -0.1 0.11 0 1.38 0 0.1 0 -0.02 0.1 -2.35 11.26 0 0.01c-0.01,0.02 -0.01,0.05 -0.02,0.08 0,0.03 0,0.06 0,0.09 0,0.01 0,0.02 0.01,0.02 0,0.01 0.01,0.01 0.02,0.01 0.01,0 0.01,0 0.02,-0.01l0 0c0.02,-0.01 0.03,-0.02 0.05,-0.04 0.03,-0.03 0.06,-0.06 0.09,-0.09 0.03,-0.04 0.06,-0.08 0.1,-0.12l0 -0.01 9.45 -10.62c0.12,-0.14 0.24,-0.25 0.37,-0.36 0.13,-0.1 0.27,-0.19 0.41,-0.26 0.15,-0.07 0.3,-0.12 0.45,-0.16 0.16,-0.03 0.32,-0.05 0.48,-0.05l0 0c0.16,0 0.3,0.02 0.41,0.05 0.12,0.04 0.22,0.09 0.3,0.15l0 0c0.08,0.06 0.15,0.13 0.2,0.21l0 0c0.05,0.08 0.08,0.17 0.1,0.26l0 0c0.02,0.09 0.04,0.18 0.05,0.27 0,0.08 0,0.17 -0.01,0.26 -0.01,0.08 -0.01,0.16 -0.02,0.22l0 0c-0.01,0.07 -0.02,0.12 -0.04,0.18zm-2.7 -0.77l0 0 0 0 0 0zm8.15 12.47l0 0 -3.86 0 -0.85 4.04 -0.02 0.11 -0.11 0 -1.37 0 -0.11 0 0.02 -0.11 3.24 -15.48 0 0c0.02,-0.12 0.06,-0.23 0.1,-0.33 0.05,-0.11 0.1,-0.21 0.16,-0.3l0 0c0.06,-0.09 0.12,-0.16 0.19,-0.23 0.06,-0.08 0.13,-0.14 0.19,-0.2l0.01 0c0.06,-0.06 0.12,-0.1 0.17,-0.14 0.06,-0.04 0.11,-0.08 0.16,-0.1l0 0c0.16,-0.1 0.32,-0.17 0.47,-0.23 0.16,-0.06 0.32,-0.1 0.47,-0.12 0.15,-0.03 0.29,-0.04 0.41,-0.05 0.13,-0.01 0.25,-0.02 0.35,-0.01l3.55 0 0 0c0.12,0 0.25,0 0.39,0.01 0.15,0 0.31,0.02 0.46,0.03 0.17,0.01 0.34,0.04 0.51,0.07l0 0c0.18,0.03 0.36,0.07 0.54,0.12 0.19,0.05 0.37,0.12 0.55,0.19 0.18,0.08 0.36,0.17 0.54,0.27 0.17,0.1 0.34,0.22 0.5,0.36 0.16,0.14 0.31,0.29 0.45,0.47l0 0c0.14,0.18 0.27,0.36 0.37,0.55l0 0c0.1,0.19 0.18,0.39 0.25,0.59 0.06,0.2 0.1,0.41 0.14,0.62l0 0c0.03,0.2 0.05,0.41 0.05,0.63 0,0.21 0,0.42 -0.02,0.63 -0.01,0.21 -0.04,0.42 -0.07,0.63 -0.03,0.21 -0.06,0.41 -0.1,0.62 -0.04,0.2 -0.08,0.39 -0.12,0.59l0 0c-0.05,0.27 -0.12,0.55 -0.18,0.82 -0.07,0.28 -0.15,0.55 -0.23,0.83 -0.08,0.28 -0.18,0.56 -0.29,0.83 -0.11,0.26 -0.23,0.53 -0.36,0.79 -0.14,0.27 -0.3,0.53 -0.48,0.78 -0.17,0.26 -0.37,0.51 -0.59,0.74l0 0.01c-0.25,0.26 -0.5,0.49 -0.76,0.69l0 0c-0.26,0.2 -0.53,0.38 -0.81,0.52 -0.27,0.14 -0.56,0.27 -0.86,0.36 -0.3,0.1 -0.61,0.18 -0.94,0.24 -0.32,0.05 -0.66,0.1 -1.01,0.12 -0.35,0.03 -0.71,0.04 -1.1,0.04zm-1.51 -11.26l-2.07 9.9 4.42 0c0.21,0 0.42,-0.01 0.63,-0.04 0.21,-0.02 0.42,-0.06 0.63,-0.11l0 0c0.21,-0.06 0.41,-0.12 0.61,-0.2l0 0c0.2,-0.08 0.4,-0.17 0.59,-0.27l0 0c0.18,-0.11 0.36,-0.23 0.53,-0.36 0.17,-0.13 0.33,-0.28 0.48,-0.44l0 0c0.2,-0.22 0.38,-0.46 0.53,-0.73 0.16,-0.26 0.3,-0.56 0.42,-0.87l0 0c0.13,-0.32 0.24,-0.67 0.34,-1.04 0.11,-0.37 0.2,-0.76 0.28,-1.18l0 0c0.06,-0.3 0.12,-0.57 0.16,-0.82 0.04,-0.26 0.08,-0.49 0.1,-0.71 0.03,-0.21 0.05,-0.41 0.06,-0.59 0.01,-0.18 0.01,-0.34 0,-0.49l0 0c0,-0.15 -0.02,-0.29 -0.03,-0.41 -0.02,-0.13 -0.05,-0.25 -0.08,-0.35 -0.06,-0.22 -0.14,-0.42 -0.25,-0.59 -0.11,-0.18 -0.24,-0.34 -0.39,-0.47 -0.15,-0.13 -0.31,-0.25 -0.48,-0.35 -0.17,-0.09 -0.36,-0.17 -0.56,-0.24 -0.2,-0.06 -0.4,-0.1 -0.61,-0.13 -0.2,-0.03 -0.41,-0.05 -0.62,-0.04l0 0 -4.05 0c-0.03,0 -0.06,0 -0.08,0.01l0 0c-0.04,0 -0.07,0.02 -0.11,0.03l0 0c-0.04,0.02 -0.08,0.04 -0.11,0.05 -0.03,0.02 -0.06,0.04 -0.09,0.06 -0.05,0.03 -0.09,0.06 -0.12,0.09l0 0c-0.02,0.02 -0.05,0.05 -0.06,0.08l0 0c-0.02,0.03 -0.03,0.06 -0.05,0.1l0 0c-0.01,0.03 -0.02,0.07 -0.02,0.1l0 0.01zm10.27 5.92c0.04,-0.4 0.11,-0.84 0.2,-1.31l0 0c0.04,-0.19 0.09,-0.38 0.14,-0.58 0.05,-0.2 0.11,-0.41 0.18,-0.64 0.07,-0.23 0.14,-0.46 0.23,-0.69 0.09,-0.23 0.19,-0.46 0.3,-0.7l0 0c0.11,-0.24 0.24,-0.47 0.37,-0.7 0.14,-0.23 0.29,-0.46 0.45,-0.68l0.01 0c0.16,-0.23 0.35,-0.44 0.55,-0.64l0 0c0.2,-0.21 0.41,-0.4 0.64,-0.57l0 -0.01c0.28,-0.2 0.57,-0.39 0.87,-0.54 0.3,-0.16 0.61,-0.29 0.93,-0.4 0.31,-0.1 0.63,-0.19 0.96,-0.26 0.31,-0.06 0.63,-0.12 0.95,-0.15 0.32,-0.03 0.63,-0.05 0.94,-0.07 0.31,-0.01 0.62,-0.02 0.92,-0.02l0 0c0.3,0 0.6,0.01 0.9,0.02 0.3,0.02 0.61,0.04 0.91,0.07 0.31,0.03 0.61,0.09 0.89,0.15 0.3,0.07 0.58,0.16 0.85,0.26 0.27,0.11 0.53,0.24 0.76,0.4 0.24,0.15 0.45,0.34 0.64,0.54l0.01 0.01c0.15,0.17 0.29,0.37 0.4,0.57l0 0c0.12,0.2 0.21,0.41 0.29,0.64l0 0c0.07,0.22 0.12,0.45 0.17,0.68 0.04,0.23 0.06,0.46 0.08,0.7l0 0c0.01,0.24 0.01,0.47 0,0.7 -0.01,0.23 -0.03,0.46 -0.05,0.69 -0.03,0.23 -0.06,0.44 -0.09,0.64 -0.03,0.2 -0.07,0.39 -0.11,0.58l0 0c-0.1,0.47 -0.21,0.91 -0.34,1.31 -0.13,0.41 -0.27,0.79 -0.42,1.13 -0.16,0.35 -0.32,0.66 -0.49,0.95 -0.17,0.29 -0.35,0.55 -0.53,0.79 -0.18,0.23 -0.37,0.44 -0.55,0.63 -0.18,0.19 -0.37,0.35 -0.56,0.49l0 0c-0.23,0.18 -0.48,0.34 -0.72,0.48 -0.25,0.14 -0.51,0.26 -0.77,0.36l0 0c-0.26,0.1 -0.51,0.19 -0.77,0.26 -0.25,0.07 -0.51,0.13 -0.76,0.18 -0.25,0.05 -0.5,0.09 -0.74,0.12 -0.23,0.03 -0.46,0.05 -0.68,0.06 -0.21,0.01 -0.42,0.02 -0.61,0.03 -0.19,0 -0.36,0.01 -0.52,0l0 0c-0.16,0.01 -0.34,0 -0.52,0 -0.19,-0.01 -0.39,-0.02 -0.6,-0.03 -0.21,-0.01 -0.43,-0.03 -0.66,-0.06 -0.22,-0.03 -0.45,-0.07 -0.68,-0.12 -0.23,-0.05 -0.46,-0.11 -0.69,-0.18 -0.22,-0.07 -0.44,-0.16 -0.66,-0.26l0 0c-0.22,-0.1 -0.42,-0.22 -0.61,-0.36 -0.19,-0.14 -0.37,-0.3 -0.53,-0.48l0 0c-0.13,-0.14 -0.25,-0.31 -0.35,-0.49l0 0c-0.11,-0.19 -0.2,-0.4 -0.29,-0.63 -0.08,-0.24 -0.15,-0.5 -0.2,-0.79 -0.05,-0.29 -0.08,-0.6 -0.09,-0.95 -0.01,-0.34 0,-0.72 0.05,-1.13zm1.97 -1.65c-0.04,0.17 -0.07,0.32 -0.1,0.46l0 0c-0.03,0.14 -0.06,0.28 -0.09,0.44 -0.03,0.15 -0.06,0.31 -0.09,0.49 -0.03,0.17 -0.05,0.35 -0.07,0.54 -0.02,0.18 -0.03,0.37 -0.04,0.56 -0.01,0.19 0,0.38 0.01,0.56 0.02,0.19 0.05,0.37 0.09,0.55l0 0c0.04,0.17 0.09,0.34 0.17,0.5 0.07,0.17 0.17,0.32 0.27,0.46 0.15,0.18 0.31,0.34 0.49,0.47l0 0c0.18,0.13 0.39,0.24 0.61,0.33 0.22,0.09 0.45,0.16 0.68,0.22 0.24,0.06 0.48,0.1 0.73,0.13 0.25,0.02 0.5,0.04 0.75,0.05 0.25,0.01 0.49,0.02 0.73,0.02l0 0c0.24,0 0.49,-0.01 0.74,-0.02 0.25,-0.01 0.51,-0.03 0.78,-0.05 0.26,-0.03 0.52,-0.07 0.78,-0.13 0.26,-0.06 0.52,-0.13 0.78,-0.22l0 0c0.25,-0.09 0.5,-0.2 0.74,-0.33l0 0c0.23,-0.13 0.46,-0.29 0.68,-0.47 0.17,-0.14 0.32,-0.29 0.47,-0.46 0.14,-0.16 0.26,-0.33 0.38,-0.5l0 0c0.11,-0.18 0.22,-0.36 0.31,-0.55 0.09,-0.18 0.18,-0.37 0.25,-0.56 0.07,-0.19 0.14,-0.38 0.19,-0.56 0.06,-0.19 0.11,-0.37 0.16,-0.54 0.04,-0.18 0.08,-0.34 0.11,-0.49 0.04,-0.16 0.07,-0.3 0.09,-0.44l0 0c0.03,-0.14 0.06,-0.29 0.1,-0.46 0.03,-0.16 0.06,-0.33 0.09,-0.52 0.03,-0.19 0.06,-0.37 0.08,-0.57l0 0c0.02,-0.19 0.03,-0.38 0.04,-0.58 0.01,-0.2 0.01,-0.4 -0.01,-0.59 -0.01,-0.19 -0.04,-0.38 -0.07,-0.56 -0.04,-0.18 -0.09,-0.35 -0.16,-0.51 -0.07,-0.16 -0.16,-0.32 -0.26,-0.46 -0.11,-0.13 -0.23,-0.24 -0.35,-0.35 -0.14,-0.1 -0.28,-0.2 -0.44,-0.28 -0.16,-0.07 -0.32,-0.14 -0.49,-0.2 -0.18,-0.06 -0.36,-0.11 -0.55,-0.15l0 0c-0.18,-0.04 -0.37,-0.07 -0.56,-0.09l0 0c-0.19,-0.03 -0.38,-0.05 -0.57,-0.06l0 0c-0.19,-0.01 -0.37,-0.02 -0.55,-0.03l0 0c-0.18,0 -0.35,0 -0.52,0l0 0c-0.16,0 -0.34,0 -0.52,0l0 0c-0.18,0.01 -0.36,0.02 -0.56,0.03l0 0c-0.2,0.01 -0.4,0.03 -0.59,0.06l0 0c-0.2,0.02 -0.4,0.05 -0.61,0.09l0 0c-0.2,0.04 -0.4,0.09 -0.6,0.15 -0.19,0.06 -0.39,0.13 -0.58,0.2l0 0c-0.19,0.08 -0.38,0.18 -0.55,0.28l0 0c-0.17,0.11 -0.34,0.22 -0.5,0.35 -0.16,0.14 -0.31,0.3 -0.45,0.46 -0.14,0.16 -0.26,0.33 -0.37,0.51 -0.12,0.18 -0.22,0.37 -0.31,0.56l0 0c-0.1,0.19 -0.18,0.39 -0.26,0.59l0 0c-0.07,0.2 -0.14,0.39 -0.2,0.58 -0.06,0.19 -0.11,0.38 -0.15,0.57 -0.05,0.19 -0.09,0.36 -0.13,0.52zm13.13 5.65c0.01,-0.1 0.03,-0.2 0.05,-0.3l0 0 2.06 -9.87 0 0c0.03,-0.12 0.07,-0.23 0.11,-0.34 0.05,-0.11 0.1,-0.22 0.17,-0.32 0.06,-0.1 0.13,-0.19 0.2,-0.28l0 0c0.08,-0.08 0.16,-0.16 0.25,-0.23l0 -0.01c0.1,-0.07 0.2,-0.13 0.32,-0.19 0.1,-0.06 0.22,-0.11 0.34,-0.15l0 0c0.12,-0.04 0.24,-0.07 0.36,-0.09 0.11,-0.02 0.23,-0.03 0.34,-0.03l6.12 0 0 0c0.11,0 0.22,0 0.35,0.01 0.12,0.01 0.26,0.02 0.41,0.04 0.15,0.02 0.31,0.05 0.46,0.1 0.15,0.04 0.31,0.1 0.46,0.17l0.01 0c0.15,0.07 0.3,0.17 0.43,0.28l0 0c0.13,0.11 0.24,0.24 0.35,0.39l0 0c0.08,0.12 0.14,0.25 0.19,0.38 0.05,0.14 0.09,0.28 0.11,0.43 0.02,0.15 0.04,0.3 0.04,0.45 0.01,0.15 0,0.31 -0.01,0.46l0 0c-0.02,0.15 -0.03,0.3 -0.05,0.44 -0.03,0.14 -0.05,0.28 -0.08,0.42l0 0c-0.02,0.11 -0.05,0.23 -0.08,0.34 -0.02,0.11 -0.05,0.22 -0.09,0.34l0 0c-0.03,0.11 -0.07,0.23 -0.12,0.35l0 0c-0.05,0.11 -0.11,0.22 -0.17,0.34l0 0c-0.06,0.11 -0.14,0.22 -0.23,0.33 -0.08,0.11 -0.18,0.22 -0.28,0.32 -0.06,0.05 -0.12,0.11 -0.18,0.16l0 0c-0.07,0.05 -0.14,0.1 -0.21,0.16l0 0c-0.08,0.05 -0.16,0.11 -0.26,0.15 -0.09,0.05 -0.18,0.1 -0.29,0.14 -0.1,0.04 -0.21,0.08 -0.33,0.11l0 0c0.04,0.02 0.09,0.03 0.13,0.05 0.14,0.06 0.27,0.12 0.38,0.2l0 0c0.11,0.08 0.2,0.16 0.28,0.25l0.01 0c0.08,0.09 0.15,0.19 0.2,0.28 0.06,0.11 0.11,0.21 0.15,0.32l0 0c0.03,0.11 0.06,0.22 0.07,0.34l0 0c0.01,0.11 0.02,0.23 0.01,0.34 0,0.11 -0.01,0.23 -0.03,0.35 -0.01,0.11 -0.03,0.22 -0.05,0.34 -0.02,0.11 -0.04,0.22 -0.07,0.33l0 0c-0.04,0.19 -0.08,0.37 -0.12,0.55l0 0c-0.04,0.18 -0.1,0.37 -0.15,0.55 -0.06,0.19 -0.13,0.38 -0.21,0.56l0 0c-0.08,0.19 -0.18,0.37 -0.29,0.54l0 0.01c-0.1,0.17 -0.23,0.35 -0.37,0.51l0 0c-0.14,0.17 -0.3,0.33 -0.48,0.48l-0.01 0c-0.14,0.12 -0.28,0.22 -0.42,0.31l0 0c-0.14,0.09 -0.29,0.16 -0.43,0.22 -0.14,0.07 -0.27,0.12 -0.4,0.16 -0.14,0.04 -0.27,0.07 -0.4,0.09 -0.13,0.02 -0.26,0.04 -0.37,0.05 -0.12,0.01 -0.23,0.01 -0.34,0.01l0 0 -6.52 0 0 0c-0.12,0 -0.24,-0.01 -0.36,-0.03 -0.11,-0.03 -0.22,-0.06 -0.31,-0.1 -0.11,-0.03 -0.19,-0.08 -0.27,-0.13 -0.08,-0.06 -0.15,-0.12 -0.2,-0.19l0 0c-0.07,-0.09 -0.12,-0.18 -0.15,-0.28 -0.03,-0.09 -0.05,-0.2 -0.05,-0.3l0 0c0,-0.1 0.01,-0.21 0.02,-0.31zm3.68 -10.1l-0.81 3.9 6.04 0 0 0c0.09,0.01 0.19,0 0.28,0 0.09,-0.01 0.18,-0.02 0.27,-0.03l0 0c0.09,-0.01 0.17,-0.02 0.26,-0.05l0 0c0.08,-0.02 0.16,-0.05 0.25,-0.08 0.08,-0.04 0.16,-0.09 0.25,-0.14 0.08,-0.06 0.17,-0.13 0.25,-0.2l0 0c0.1,-0.08 0.19,-0.17 0.26,-0.25l0 0c0.07,-0.09 0.14,-0.18 0.19,-0.27 0.06,-0.09 0.11,-0.19 0.15,-0.29 0.04,-0.09 0.08,-0.19 0.11,-0.28l0 0c0.03,-0.1 0.06,-0.2 0.08,-0.3 0.03,-0.1 0.05,-0.2 0.07,-0.29l0 -0.01c0.02,-0.08 0.03,-0.17 0.05,-0.26l0 0c0.01,-0.08 0.03,-0.18 0.04,-0.29l0 0c0.01,-0.1 0.02,-0.19 0.01,-0.29 0,-0.1 -0.01,-0.19 -0.03,-0.29 -0.02,-0.1 -0.05,-0.19 -0.1,-0.27 -0.04,-0.09 -0.1,-0.17 -0.17,-0.25 -0.06,-0.07 -0.13,-0.12 -0.2,-0.16 -0.07,-0.05 -0.14,-0.09 -0.22,-0.12l0 0c-0.08,-0.03 -0.16,-0.05 -0.24,-0.07 -0.08,-0.02 -0.16,-0.04 -0.23,-0.04l0 0c-0.08,-0.01 -0.16,-0.02 -0.23,-0.02 -0.07,-0.01 -0.14,-0.01 -0.21,0l0 0 -5.59 0c-0.02,0 -0.05,0 -0.08,0 -0.04,0.01 -0.08,0.02 -0.12,0.03 -0.04,0 -0.08,0.01 -0.11,0.03 -0.02,0.01 -0.05,0.02 -0.06,0.03 -0.02,0.01 -0.03,0.03 -0.05,0.05 -0.01,0.02 -0.03,0.04 -0.05,0.07 -0.01,0.03 -0.02,0.06 -0.04,0.08 0,0.02 -0.01,0.05 -0.02,0.06zm4.95 5.26l-6.04 0 -0.86 4.12c-0.01,0.06 -0.02,0.11 -0.03,0.16 -0.01,0.05 -0.01,0.1 -0.01,0.15l0 0c0,0.05 0,0.09 0.01,0.13l0 0c0.01,0.04 0.03,0.07 0.05,0.1 0.03,0.04 0.06,0.07 0.1,0.09 0.03,0.02 0.08,0.04 0.12,0.05 0.05,0.01 0.11,0.01 0.17,0.02 0.06,0 0.12,0 0.18,0l0 0 5.01 0 0 0c0.12,0 0.25,0 0.37,0 0.12,-0.01 0.23,-0.01 0.34,-0.02 0.11,-0.01 0.21,-0.03 0.32,-0.05 0.1,-0.03 0.2,-0.06 0.3,-0.1l0 0c0.09,-0.04 0.19,-0.08 0.28,-0.14 0.09,-0.06 0.18,-0.13 0.27,-0.22 0.1,-0.08 0.19,-0.18 0.26,-0.28l0 0c0.08,-0.09 0.14,-0.19 0.2,-0.3l0 0c0.06,-0.11 0.11,-0.22 0.15,-0.33 0.04,-0.11 0.08,-0.22 0.11,-0.34 0.04,-0.12 0.07,-0.23 0.09,-0.34 0.03,-0.12 0.05,-0.23 0.07,-0.34l0 0c0.03,-0.09 0.04,-0.19 0.06,-0.29 0.02,-0.1 0.04,-0.2 0.05,-0.31 0.02,-0.11 0.02,-0.21 0.02,-0.32 0.01,-0.1 0,-0.21 -0.01,-0.31l0 0c-0.02,-0.1 -0.04,-0.2 -0.07,-0.3l0 0c-0.04,-0.09 -0.09,-0.19 -0.15,-0.28 -0.08,-0.11 -0.17,-0.2 -0.27,-0.28 -0.1,-0.07 -0.21,-0.13 -0.32,-0.16l-0.01 0c-0.23,-0.08 -0.49,-0.12 -0.76,-0.11l0 0zm7.28 -5.72l0.24 -1.15 0.02 -0.1 0.11 0 6.88 0c0.17,0 0.33,0.01 0.48,0.03 0.16,0.02 0.31,0.04 0.46,0.08 0.15,0.04 0.29,0.08 0.43,0.14 0.13,0.05 0.26,0.11 0.38,0.18 0.12,0.07 0.23,0.14 0.33,0.23 0.1,0.08 0.19,0.17 0.26,0.27l0 0c0.1,0.13 0.19,0.27 0.25,0.41 0.07,0.14 0.12,0.29 0.15,0.45 0.03,0.16 0.05,0.31 0.06,0.46l0 0c0.01,0.16 0.01,0.32 -0.01,0.48 -0.02,0.31 -0.06,0.6 -0.12,0.86l0 0 -1.62 7.74 0 0c-0.01,0.07 -0.03,0.13 -0.04,0.2l0 0c-0.02,0.07 -0.05,0.15 -0.07,0.23 -0.03,0.09 -0.06,0.17 -0.1,0.26 -0.04,0.08 -0.09,0.16 -0.15,0.25l0 0c-0.05,0.09 -0.12,0.18 -0.19,0.26l0 0c-0.08,0.08 -0.16,0.15 -0.26,0.22l0 0.01c-0.09,0.06 -0.19,0.12 -0.29,0.16 -0.09,0.05 -0.2,0.09 -0.3,0.12 -0.1,0.02 -0.2,0.04 -0.31,0.06 -0.1,0.02 -0.2,0.03 -0.3,0.04l0 0 -0.28 0.01 0 0c-0.1,0 -0.18,0 -0.26,0l-5.4 0 0 0c-0.14,0 -0.28,0 -0.41,-0.01 -0.15,0 -0.29,-0.01 -0.43,-0.02 -0.15,-0.01 -0.3,-0.03 -0.44,-0.06l0 0c-0.14,-0.02 -0.29,-0.06 -0.43,-0.1l0 0c-0.14,-0.04 -0.27,-0.1 -0.4,-0.17 -0.13,-0.07 -0.25,-0.15 -0.37,-0.25l0 0c-0.12,-0.12 -0.23,-0.24 -0.32,-0.38l0 0c-0.09,-0.14 -0.16,-0.29 -0.22,-0.45l0 0c-0.05,-0.15 -0.1,-0.31 -0.13,-0.47 -0.03,-0.17 -0.04,-0.33 -0.05,-0.5 0,-0.17 0,-0.33 0,-0.49 0.01,-0.16 0.02,-0.31 0.04,-0.46 0.02,-0.15 0.04,-0.28 0.06,-0.41 0.02,-0.12 0.04,-0.24 0.07,-0.34l0 0c0.03,-0.18 0.08,-0.36 0.13,-0.55 0.05,-0.18 0.11,-0.36 0.18,-0.55 0.07,-0.19 0.15,-0.38 0.24,-0.56l0 0c0.1,-0.18 0.21,-0.36 0.33,-0.54l0 0c0.12,-0.17 0.27,-0.34 0.43,-0.49 0.16,-0.16 0.35,-0.31 0.55,-0.44l0 -0.01c0.15,-0.09 0.31,-0.18 0.47,-0.26 0.16,-0.07 0.33,-0.14 0.5,-0.19l0 0c0.16,-0.05 0.33,-0.09 0.49,-0.13 0.16,-0.03 0.32,-0.05 0.49,-0.07l0 0c0.15,-0.02 0.31,-0.03 0.45,-0.04 0.15,-0.01 0.29,-0.01 0.43,-0.01l0 0 5.99 0 0.38 -1.83c0.01,-0.07 0.02,-0.14 0.03,-0.22 0,-0.08 0.01,-0.16 0.01,-0.25l0 0c-0.01,-0.18 -0.02,-0.36 -0.06,-0.54l0 0c-0.02,-0.09 -0.05,-0.17 -0.08,-0.25l0 0c-0.02,-0.07 -0.06,-0.14 -0.1,-0.21 -0.05,-0.07 -0.12,-0.14 -0.2,-0.2 -0.08,-0.07 -0.18,-0.13 -0.28,-0.18l-0.01 0c-0.1,-0.05 -0.22,-0.09 -0.36,-0.12 -0.13,-0.03 -0.28,-0.04 -0.44,-0.04l0 0 -6.81 0 -0.1 0 0.02 -0.11zm6.72 10.06l0.99 -4.75 -6.3 0 0 0c-0.13,0 -0.26,0.01 -0.38,0.02 -0.11,0.02 -0.22,0.04 -0.32,0.08l-0.01 0c-0.1,0.03 -0.2,0.06 -0.29,0.1l0 0c-0.08,0.04 -0.16,0.08 -0.24,0.13 -0.07,0.04 -0.14,0.09 -0.19,0.13l0 0c-0.06,0.05 -0.11,0.09 -0.15,0.13l0 0c-0.1,0.1 -0.19,0.21 -0.27,0.34l0 0c-0.08,0.13 -0.16,0.27 -0.22,0.43 -0.07,0.17 -0.14,0.36 -0.19,0.55 -0.06,0.2 -0.11,0.4 -0.15,0.62l0 0c-0.03,0.13 -0.06,0.26 -0.08,0.39 -0.02,0.14 -0.04,0.27 -0.05,0.41l0 0c-0.01,0.13 -0.02,0.27 -0.02,0.39 0,0.13 0,0.25 0.01,0.37 0.02,0.12 0.04,0.23 0.08,0.34l0 0c0.03,0.1 0.08,0.19 0.13,0.28l0 0c0.06,0.07 0.12,0.14 0.2,0.2 0.07,0.06 0.16,0.12 0.27,0.17l0 0c0.1,0.05 0.21,0.09 0.33,0.11 0.12,0.03 0.25,0.04 0.39,0.04l0 0 5.67 0 0 0c0.04,0 0.08,0 0.13,0 0.05,0 0.1,-0.01 0.15,-0.01l0 0c0.05,-0.01 0.1,-0.02 0.15,-0.04l0 0c0.04,-0.02 0.09,-0.04 0.14,-0.07 0.04,-0.03 0.08,-0.06 0.11,-0.09 0.02,-0.03 0.04,-0.05 0.05,-0.07 0.01,-0.03 0.02,-0.06 0.03,-0.09 0.01,-0.03 0.02,-0.07 0.03,-0.1l0 -0.01zm17.75 -11.21l-2.7 12.94 -0.03 0.11 -0.1 0 -1.38 0 -0.1 0 0.02 -0.11 1.25 -6 -8.21 0 -1.25 6 -0.02 0.11 -0.11 0 -1.38 0 -0.1 0 0.02 -0.11 2.7 -12.94 0.03 -0.1 0.1 0 1.38 0 0.1 0 -0.02 0.1 -1.17 5.59 8.22 0 1.16 -5.59 0.02 -0.1 0.11 0 1.37 0 0.11 0 -0.02 0.1zm14.1 1.35l-2.42 11.59 -0.03 0.11 -0.1 0 -1.38 0 -0.1 0 0.02 -0.11 2.35 -11.25 0 -0.01c0.01,-0.04 0.02,-0.07 0.02,-0.1 0.01,-0.02 0.01,-0.05 0.01,-0.08l-0.01 0 -0.04 0.02c-0.02,0.02 -0.04,0.04 -0.08,0.08 -0.04,0.04 -0.09,0.09 -0.15,0.15l-9.33 10.47 0 0c-0.1,0.11 -0.19,0.21 -0.28,0.29l0 0c-0.1,0.1 -0.2,0.18 -0.29,0.25 -0.09,0.07 -0.18,0.14 -0.28,0.19l0 0c-0.1,0.06 -0.2,0.1 -0.3,0.14l0 0c-0.09,0.03 -0.2,0.06 -0.31,0.08 -0.11,0.02 -0.22,0.03 -0.34,0.03l0 -0.01c-0.21,0 -0.4,-0.03 -0.55,-0.09 -0.16,-0.06 -0.28,-0.16 -0.38,-0.29 -0.1,-0.12 -0.16,-0.28 -0.18,-0.46 -0.02,-0.17 -0.01,-0.38 0.03,-0.6l0 0 2.46 -11.75 0.02 -0.1 0.1 0 1.38 0 0.1 0 -0.02 0.1 -2.35 11.26 0 0.01c-0.01,0.02 -0.01,0.05 -0.01,0.08 -0.01,0.03 -0.01,0.06 -0.01,0.09 0,0.01 0,0.02 0.01,0.02 0,0.01 0.01,0.01 0.02,0.01 0.01,0 0.02,0 0.03,-0.01l0 0c0.01,-0.01 0.03,-0.02 0.04,-0.04l0 0c0.03,-0.03 0.06,-0.06 0.09,-0.09 0.03,-0.04 0.07,-0.08 0.1,-0.12l0 -0.01 9.45 -10.62c0.12,-0.14 0.24,-0.25 0.37,-0.36 0.13,-0.1 0.27,-0.19 0.41,-0.26 0.15,-0.07 0.3,-0.12 0.45,-0.16 0.16,-0.03 0.32,-0.05 0.49,-0.05l0 0c0.15,0 0.29,0.02 0.41,0.05 0.12,0.04 0.22,0.09 0.3,0.15l0 0c0.07,0.06 0.14,0.13 0.19,0.21l0 0c0.05,0.08 0.08,0.17 0.11,0.26l0 0c0.02,0.09 0.03,0.18 0.04,0.27 0.01,0.08 0.01,0.17 0,0.26 -0.01,0.08 -0.02,0.16 -0.03,0.22 -0.01,0.07 -0.02,0.12 -0.03,0.18zm-2.71 -0.77l0 0 0 0 0 0zm14.37 11.22l-0.24 1.14 -0.02 0.11 -0.1 0 -6.89 0 0 0c-0.19,0 -0.39,-0.01 -0.59,-0.03 -0.21,-0.02 -0.42,-0.05 -0.63,-0.09l0 0c-0.21,-0.04 -0.42,-0.11 -0.62,-0.19 -0.21,-0.08 -0.4,-0.18 -0.6,-0.29 -0.19,-0.12 -0.37,-0.27 -0.54,-0.44 -0.17,-0.16 -0.32,-0.36 -0.47,-0.59l0 0c-0.13,-0.22 -0.24,-0.45 -0.32,-0.69 -0.09,-0.24 -0.14,-0.49 -0.17,-0.75 -0.03,-0.25 -0.04,-0.51 -0.04,-0.79l0 0c0.01,-0.27 0.03,-0.56 0.07,-0.85l0 0c0.04,-0.28 0.09,-0.58 0.14,-0.89 0.05,-0.3 0.12,-0.61 0.18,-0.93l0 0c0.05,-0.23 0.1,-0.46 0.16,-0.69 0.05,-0.24 0.12,-0.48 0.18,-0.72 0.07,-0.25 0.15,-0.5 0.25,-0.75 0.08,-0.24 0.18,-0.48 0.29,-0.72 0.11,-0.24 0.24,-0.48 0.39,-0.71 0.14,-0.23 0.3,-0.45 0.48,-0.67l0 0c0.18,-0.22 0.37,-0.43 0.59,-0.63 0.22,-0.2 0.46,-0.39 0.72,-0.56l0.01 0c0.25,-0.17 0.51,-0.31 0.77,-0.44 0.26,-0.12 0.53,-0.23 0.8,-0.31l0.01 0c0.27,-0.09 0.53,-0.16 0.8,-0.21 0.27,-0.06 0.54,-0.1 0.81,-0.13 0.26,-0.03 0.52,-0.05 0.77,-0.06 0.25,-0.02 0.5,-0.02 0.74,-0.02l0 0c0.17,0 0.34,0 0.53,0.01 0.18,0.01 0.37,0.02 0.57,0.04l0 0c0.21,0.02 0.41,0.05 0.61,0.09 0.21,0.03 0.41,0.08 0.62,0.13 0.2,0.06 0.4,0.12 0.59,0.2 0.19,0.08 0.37,0.17 0.55,0.27 0.05,0.03 0.11,0.08 0.18,0.13 0.06,0.05 0.14,0.1 0.22,0.17l0 0c0.08,0.07 0.16,0.14 0.24,0.23l0 0c0.08,0.09 0.16,0.18 0.24,0.29 0.09,0.11 0.17,0.23 0.24,0.37 0.07,0.13 0.14,0.27 0.2,0.43l0 0c0.12,0.31 0.2,0.69 0.23,1.11l0 0c0.01,0.22 0.01,0.44 -0.01,0.69 -0.02,0.24 -0.06,0.5 -0.11,0.77l0 0.01c-0.01,0.06 -0.03,0.14 -0.05,0.22 -0.03,0.09 -0.05,0.18 -0.09,0.29 -0.03,0.11 -0.07,0.22 -0.12,0.33l0 0c-0.05,0.11 -0.11,0.22 -0.18,0.33l0 0c-0.07,0.12 -0.15,0.22 -0.25,0.32l0 0.01c-0.09,0.09 -0.19,0.18 -0.3,0.26l0 0c-0.1,0.07 -0.19,0.12 -0.28,0.16l0 0c-0.1,0.05 -0.2,0.08 -0.3,0.11l0 0c-0.1,0.03 -0.19,0.06 -0.29,0.08 -0.09,0.02 -0.19,0.03 -0.28,0.04l-0.01 0c-0.09,0.01 -0.18,0.02 -0.25,0.02l0 0c-0.09,0.01 -0.16,0.01 -0.23,0.01l-8.45 0c-0.02,0.1 -0.05,0.21 -0.07,0.32l0 0c-0.03,0.13 -0.05,0.28 -0.08,0.44l0 0c-0.03,0.15 -0.05,0.31 -0.07,0.47 -0.03,0.16 -0.04,0.32 -0.06,0.47 -0.01,0.15 -0.02,0.29 -0.02,0.43 0,0.13 0,0.26 0.01,0.37 0.03,0.26 0.09,0.51 0.19,0.77 0.06,0.12 0.12,0.25 0.2,0.36 0.07,0.12 0.16,0.23 0.26,0.34 0.1,0.1 0.22,0.2 0.35,0.28 0.12,0.09 0.27,0.16 0.43,0.22l0 0c0.16,0.07 0.33,0.12 0.52,0.15 0.19,0.03 0.4,0.05 0.63,0.05l0 0 6.88 0 0.11 0 -0.03 0.11zm-8.84 -6.64c-0.04,0.16 -0.08,0.33 -0.12,0.5l8.44 0 0 0c0.07,0 0.13,-0.01 0.18,-0.03 0.05,-0.01 0.09,-0.03 0.12,-0.05 0.04,-0.03 0.08,-0.06 0.11,-0.1 0.03,-0.03 0.05,-0.07 0.08,-0.11l0 0c0.02,-0.05 0.04,-0.09 0.06,-0.14 0.02,-0.04 0.03,-0.08 0.04,-0.12l0 0 0.01 -0.03c0.02,-0.07 0.03,-0.13 0.04,-0.16l0 -0.01c0.04,-0.2 0.07,-0.4 0.09,-0.59 0.01,-0.18 0.01,-0.36 0,-0.52 -0.01,-0.16 -0.03,-0.31 -0.05,-0.45l0 0c-0.03,-0.14 -0.07,-0.27 -0.11,-0.39l0 0c-0.05,-0.13 -0.1,-0.24 -0.15,-0.34 -0.05,-0.1 -0.11,-0.19 -0.17,-0.27l0 0c-0.13,-0.18 -0.27,-0.33 -0.42,-0.46 -0.15,-0.12 -0.32,-0.22 -0.5,-0.3l0 0c-0.18,-0.08 -0.36,-0.14 -0.56,-0.19 -0.19,-0.05 -0.39,-0.08 -0.59,-0.1l0 0c-0.21,-0.02 -0.42,-0.03 -0.63,-0.04l0 0c-0.2,-0.01 -0.41,-0.01 -0.62,0l0 0c-0.18,-0.01 -0.36,0 -0.53,0 -0.18,0.01 -0.35,0.02 -0.54,0.03 -0.17,0.01 -0.35,0.03 -0.52,0.06 -0.18,0.03 -0.36,0.07 -0.53,0.11l0 0c-0.18,0.05 -0.35,0.11 -0.52,0.19l-0.01 0c-0.16,0.07 -0.33,0.16 -0.5,0.26l0 0.01c-0.17,0.1 -0.33,0.22 -0.49,0.36 -0.17,0.14 -0.33,0.31 -0.48,0.49 -0.12,0.14 -0.23,0.28 -0.33,0.42l0 0c-0.09,0.14 -0.18,0.29 -0.26,0.44 -0.07,0.15 -0.14,0.31 -0.21,0.47 -0.06,0.16 -0.12,0.33 -0.17,0.51l0 0c-0.06,0.17 -0.11,0.36 -0.16,0.55l0 0zm1.13 -2.39l0 0 -0.01 0 0.01 0zm12.81 8.4l-3.37 3.93 -0.07 0.08 -0.07 -0.05 -1.13 -0.7 -0.08 -0.06 0.08 -0.09 3.36 -3.93 0.07 -0.08 0.08 0.04 1.12 0.71 0.09 0.06 -0.08 0.09zm13.1 1.88l0 0 -5.3 0 -0.1 0 0.02 -0.11 0.24 -1.14 0.02 -0.11 0.11 0 6.03 0 0.01 0c0.14,0 0.29,0 0.45,-0.01 0.16,-0.01 0.33,-0.03 0.5,-0.06l0 0c0.17,-0.02 0.34,-0.06 0.51,-0.1 0.17,-0.05 0.34,-0.1 0.51,-0.17l0 0c0.17,-0.07 0.34,-0.15 0.5,-0.24 0.17,-0.09 0.32,-0.2 0.48,-0.33 0.16,-0.12 0.3,-0.26 0.44,-0.42 0.14,-0.16 0.27,-0.34 0.39,-0.53l0 0c0.06,-0.09 0.11,-0.19 0.17,-0.3 0.05,-0.11 0.11,-0.23 0.16,-0.36l0 0c0.06,-0.13 0.11,-0.27 0.17,-0.41 0.05,-0.14 0.1,-0.28 0.16,-0.43l0 0c0.05,-0.15 0.1,-0.29 0.14,-0.44 0.05,-0.14 0.09,-0.28 0.13,-0.43 0.04,-0.14 0.08,-0.27 0.11,-0.39 0.02,-0.09 0.04,-0.18 0.06,-0.27l-9.53 0 -0.1 0 0.02 -0.11 0.24 -1.14 0.02 -0.11 0.1 0 9.54 0c0.02,-0.12 0.05,-0.25 0.07,-0.38 0.02,-0.15 0.04,-0.32 0.05,-0.48l0 -0.01c0.01,-0.17 0.01,-0.34 0.01,-0.51 0,-0.17 -0.01,-0.34 -0.03,-0.5 -0.01,-0.16 -0.04,-0.32 -0.08,-0.47 -0.03,-0.14 -0.07,-0.27 -0.12,-0.39l0 0c-0.07,-0.17 -0.15,-0.32 -0.24,-0.45 -0.09,-0.14 -0.19,-0.25 -0.3,-0.35 -0.11,-0.09 -0.23,-0.18 -0.35,-0.25l0 0c-0.13,-0.07 -0.25,-0.13 -0.39,-0.18l0 0c-0.13,-0.04 -0.27,-0.08 -0.4,-0.11 -0.14,-0.03 -0.28,-0.06 -0.41,-0.07l0 0c-0.14,-0.01 -0.27,-0.02 -0.4,-0.03 -0.13,0 -0.26,-0.01 -0.38,0l0 0 -5.88 0 -0.1 0 0.02 -0.11 0.24 -1.15 0.02 -0.1 0.1 0 5.91 0 0 0c0.24,0 0.47,0 0.7,0.02 0.23,0.02 0.46,0.05 0.68,0.09 0.23,0.04 0.44,0.1 0.66,0.17 0.21,0.07 0.41,0.16 0.61,0.27l0 0c0.2,0.1 0.39,0.23 0.56,0.38 0.18,0.15 0.35,0.32 0.51,0.51 0.12,0.16 0.23,0.33 0.33,0.51 0.1,0.18 0.18,0.38 0.25,0.59 0.07,0.2 0.11,0.44 0.14,0.7 0.03,0.25 0.05,0.53 0.04,0.83 0,0.3 -0.03,0.64 -0.08,1.01 -0.04,0.36 -0.11,0.77 -0.2,1.2l0 0c-0.08,0.37 -0.16,0.72 -0.25,1.06 -0.09,0.34 -0.19,0.67 -0.3,0.98 -0.1,0.32 -0.22,0.63 -0.36,0.92 -0.13,0.3 -0.27,0.57 -0.42,0.83 -0.16,0.27 -0.33,0.52 -0.52,0.76 -0.19,0.24 -0.4,0.46 -0.62,0.67l0 0c-0.22,0.2 -0.44,0.37 -0.66,0.53 -0.23,0.16 -0.46,0.29 -0.69,0.41l0 0c-0.23,0.11 -0.45,0.2 -0.68,0.28l0 0c-0.24,0.09 -0.47,0.16 -0.7,0.21l0 0c-0.23,0.05 -0.45,0.09 -0.67,0.12 -0.22,0.03 -0.44,0.05 -0.66,0.07l0 0c-0.21,0.01 -0.42,0.02 -0.62,0.02 -0.2,0.01 -0.4,0.01 -0.59,0.01zm12.52 -13.05l-2.7 12.94 -0.02 0.11 -0.11 0 -1.37 0 -0.11 0 0.02 -0.11 2.7 -12.94 0.03 -0.1 0.1 0 1.38 0 0.1 0 -0.02 0.1zm1.09 6.91l5.62 5.95 0.17 0.19 -0.28 0 -1.96 0 -0.04 0 -0.02 -0.03 -4.84 -5.12 0 0c-0.15,-0.16 -0.27,-0.31 -0.36,-0.46 -0.09,-0.15 -0.16,-0.29 -0.2,-0.43 -0.04,-0.14 -0.06,-0.27 -0.07,-0.39l0 0c0,-0.12 0.01,-0.24 0.03,-0.35 0.03,-0.11 0.07,-0.22 0.13,-0.33 0.05,-0.11 0.12,-0.22 0.21,-0.33l0 0c0.16,-0.22 0.35,-0.42 0.56,-0.61 0.11,-0.1 0.21,-0.18 0.31,-0.26 0.1,-0.09 0.19,-0.16 0.28,-0.23l0 0 6.31 -4.59 0.04 -0.02 0.03 0 1.88 0 0.28 0 -0.25 0.18 -7.38 5.45 0 0c-0.04,0.03 -0.09,0.06 -0.14,0.1l0 0c-0.04,0.03 -0.09,0.07 -0.13,0.11 -0.05,0.04 -0.1,0.09 -0.15,0.13l0 0c-0.05,0.05 -0.09,0.1 -0.14,0.15l0 0c-0.04,0.04 -0.07,0.09 -0.09,0.13l0 0c-0.03,0.05 -0.04,0.09 -0.06,0.13l0 0c0,0.02 0,0.05 0,0.09 0,0.03 0.01,0.07 0.03,0.11l0 0c0.01,0.04 0.03,0.08 0.04,0.12 0.02,0.04 0.04,0.08 0.06,0.12l0 0c0.02,0.04 0.05,0.08 0.07,0.11 0.02,0.03 0.04,0.06 0.06,0.08l0 0zm17.42 4.89l-0.24 1.14 -0.02 0.11 -0.11 0 -5.61 0 0 0c-0.34,0 -0.65,-0.02 -0.94,-0.06l0 0c-0.29,-0.04 -0.56,-0.09 -0.81,-0.17 -0.25,-0.07 -0.48,-0.16 -0.69,-0.26 -0.21,-0.1 -0.41,-0.21 -0.58,-0.34l0 0c-0.17,-0.12 -0.33,-0.25 -0.47,-0.39 -0.14,-0.15 -0.26,-0.3 -0.37,-0.45 -0.14,-0.21 -0.26,-0.43 -0.35,-0.65 -0.1,-0.23 -0.17,-0.47 -0.21,-0.71l0 0c-0.04,-0.25 -0.07,-0.5 -0.07,-0.76 -0.01,-0.26 0,-0.54 0.03,-0.82 0.03,-0.28 0.07,-0.57 0.11,-0.87 0.05,-0.3 0.11,-0.61 0.18,-0.92l0 -0.01c0.05,-0.22 0.09,-0.44 0.15,-0.67 0.05,-0.23 0.11,-0.46 0.18,-0.69 0.06,-0.24 0.13,-0.47 0.22,-0.7 0.08,-0.23 0.17,-0.46 0.27,-0.7 0.1,-0.23 0.21,-0.46 0.34,-0.68 0.13,-0.22 0.27,-0.44 0.42,-0.65 0.16,-0.22 0.33,-0.42 0.52,-0.62 0.19,-0.2 0.4,-0.38 0.62,-0.56l0 0c0.17,-0.14 0.36,-0.26 0.55,-0.38 0.2,-0.12 0.41,-0.24 0.64,-0.35l0 0c0.45,-0.22 0.98,-0.4 1.57,-0.53l0 -0.01c0.29,-0.06 0.6,-0.11 0.94,-0.15 0.33,-0.03 0.68,-0.05 1.05,-0.05l0 0 4.74 0 0.11 0 -0.03 0.1 -0.24 1.15 -0.02 0.11 -0.1 0 -4.9 0 0 0c-0.37,0 -0.72,0.03 -1.05,0.08 -0.33,0.06 -0.64,0.14 -0.94,0.25l0 0c-0.29,0.11 -0.56,0.24 -0.81,0.39 -0.25,0.15 -0.48,0.32 -0.69,0.51 -0.21,0.19 -0.4,0.4 -0.57,0.62 -0.16,0.22 -0.31,0.46 -0.43,0.7l0 0c-0.04,0.09 -0.08,0.19 -0.12,0.31 -0.05,0.11 -0.09,0.23 -0.13,0.36l0 0c-0.05,0.14 -0.09,0.28 -0.13,0.42 -0.05,0.13 -0.09,0.28 -0.13,0.44l0 0c-0.08,0.25 -0.14,0.49 -0.19,0.71l-0.04 0.13 -0.08 0.36c-0.02,0.09 -0.04,0.19 -0.06,0.28 -0.03,0.11 -0.05,0.22 -0.07,0.34 -0.02,0.11 -0.04,0.24 -0.06,0.38 -0.02,0.14 -0.04,0.28 -0.05,0.41 -0.02,0.14 -0.03,0.28 -0.04,0.42l0 0c-0.01,0.15 -0.02,0.29 -0.02,0.42l0 0c-0.01,0.13 -0.01,0.26 0,0.39l0 0c0,0.12 0.01,0.24 0.02,0.35l0 0c0.02,0.1 0.03,0.2 0.06,0.29l0 0c0.06,0.21 0.13,0.39 0.23,0.56 0.1,0.16 0.21,0.3 0.34,0.43l0 0c0.14,0.12 0.28,0.23 0.44,0.33 0.15,0.09 0.32,0.17 0.5,0.24 0.18,0.06 0.36,0.11 0.54,0.15 0.18,0.05 0.36,0.08 0.55,0.1 0.19,0.02 0.37,0.04 0.54,0.05 0.18,0.01 0.34,0.01 0.5,0.01l0 0 4.93 0 0.1 0 -0.02 0.11zm5.8 -11.87c0.13,-0.02 0.27,-0.03 0.42,-0.03l0 0 7.68 0 0 0c0.15,0 0.28,0.01 0.4,0.03 0.13,0.01 0.24,0.04 0.33,0.07 0.1,0.03 0.18,0.07 0.25,0.11 0.08,0.04 0.14,0.08 0.19,0.13 0.05,0.04 0.1,0.09 0.13,0.13l0 0c0.04,0.05 0.07,0.09 0.09,0.14 0.05,0.1 0.08,0.2 0.1,0.32l0 0c0.02,0.11 0.03,0.23 0.02,0.36 -0.01,0.12 -0.02,0.24 -0.04,0.36 -0.01,0.11 -0.03,0.22 -0.06,0.33l0 0 -2.31 11.06 -0.02 0.11 -0.11 0 -1.37 0 -0.11 0 0.02 -0.11 2.31 -11.06c0.01,-0.05 0.02,-0.11 0.03,-0.16 0.01,-0.06 0.01,-0.12 0.02,-0.17l0 0c0,-0.05 0,-0.1 -0.01,-0.13l0 0c0,-0.03 -0.01,-0.05 -0.02,-0.07 -0.02,-0.01 -0.03,-0.02 -0.06,-0.03l0 0c-0.02,-0.02 -0.06,-0.03 -0.1,-0.03 -0.04,-0.01 -0.08,-0.02 -0.12,-0.03 -0.03,0 -0.06,0 -0.08,0l-7.21 0c-0.02,0 -0.05,0 -0.09,0l0 0c-0.04,0.01 -0.08,0.02 -0.13,0.03l0 0c-0.04,0 -0.07,0.01 -0.1,0.03 -0.03,0.01 -0.06,0.02 -0.08,0.03 -0.02,0.02 -0.03,0.04 -0.05,0.07l0 0c-0.02,0.03 -0.04,0.07 -0.06,0.13l0 0c-0.04,0.11 -0.07,0.22 -0.09,0.33l-2.31 11.06 -0.03 0.11 -0.1 0 -1.38 0 -0.1 0 0.02 -0.11 2.31 -11.06 0 0c0.02,-0.11 0.05,-0.22 0.08,-0.33 0.03,-0.12 0.07,-0.24 0.11,-0.36 0.05,-0.13 0.1,-0.25 0.17,-0.36l0 -0.01c0.07,-0.11 0.15,-0.21 0.24,-0.31 0.03,-0.05 0.08,-0.09 0.14,-0.14l0 0c0.05,-0.04 0.11,-0.09 0.18,-0.13 0.08,-0.05 0.16,-0.09 0.25,-0.13 0.09,-0.04 0.18,-0.08 0.29,-0.11 0.11,-0.03 0.23,-0.06 0.36,-0.07zm21.29 11.87l-0.24 1.14 -0.02 0.11 -0.11 0 -6.88 0 0 0c-0.19,0 -0.39,-0.01 -0.6,-0.03 -0.2,-0.02 -0.41,-0.05 -0.62,-0.09l0 0c-0.21,-0.04 -0.42,-0.11 -0.63,-0.19 -0.2,-0.08 -0.4,-0.18 -0.59,-0.29 -0.2,-0.12 -0.38,-0.27 -0.55,-0.44 -0.16,-0.16 -0.32,-0.36 -0.46,-0.59l0 0c-0.14,-0.22 -0.25,-0.45 -0.33,-0.69 -0.08,-0.24 -0.14,-0.49 -0.17,-0.75 -0.03,-0.25 -0.04,-0.52 -0.03,-0.79 0,-0.27 0.03,-0.56 0.06,-0.85l0 0c0.04,-0.28 0.09,-0.58 0.15,-0.89 0.05,-0.3 0.11,-0.61 0.18,-0.93l0 0c0.05,-0.23 0.1,-0.46 0.15,-0.69 0.06,-0.24 0.12,-0.48 0.19,-0.72 0.07,-0.25 0.15,-0.5 0.24,-0.75 0.09,-0.24 0.19,-0.48 0.3,-0.72 0.11,-0.24 0.24,-0.48 0.38,-0.71 0.15,-0.23 0.31,-0.45 0.48,-0.67l0 0c0.18,-0.22 0.38,-0.43 0.6,-0.63 0.22,-0.2 0.46,-0.39 0.72,-0.56l0 0c0.25,-0.17 0.51,-0.31 0.77,-0.44 0.27,-0.12 0.54,-0.23 0.81,-0.31l0 0c0.27,-0.09 0.54,-0.16 0.8,-0.21 0.27,-0.06 0.54,-0.1 0.81,-0.13 0.27,-0.03 0.53,-0.05 0.78,-0.06 0.25,-0.02 0.49,-0.02 0.73,-0.02l0 0c0.17,0 0.35,0 0.53,0.01 0.18,0.01 0.38,0.02 0.58,0.04l0 0c0.21,0.02 0.41,0.05 0.61,0.09 0.2,0.03 0.41,0.08 0.61,0.13 0.21,0.06 0.4,0.12 0.59,0.2 0.19,0.08 0.38,0.17 0.55,0.27 0.06,0.03 0.12,0.08 0.18,0.13 0.07,0.05 0.14,0.1 0.22,0.17l0 0c0.08,0.07 0.16,0.15 0.24,0.23l0 0c0.08,0.09 0.17,0.19 0.25,0.29 0.08,0.11 0.16,0.23 0.23,0.37 0.08,0.13 0.14,0.27 0.2,0.43l0 0c0.13,0.31 0.21,0.69 0.23,1.11l0 0c0.02,0.22 0.02,0.44 0,0.69 -0.02,0.24 -0.06,0.5 -0.12,0.77l0 0.01c-0.01,0.06 -0.03,0.14 -0.05,0.22 -0.02,0.09 -0.05,0.18 -0.08,0.29 -0.04,0.11 -0.08,0.22 -0.13,0.33l0 0c-0.05,0.11 -0.11,0.22 -0.18,0.33l0 0c-0.06,0.12 -0.15,0.23 -0.24,0.33 -0.09,0.09 -0.19,0.18 -0.31,0.26l0 0c-0.09,0.07 -0.18,0.12 -0.28,0.16l0 0c-0.09,0.05 -0.19,0.08 -0.29,0.11l0 0c-0.1,0.03 -0.2,0.06 -0.29,0.08 -0.1,0.02 -0.19,0.03 -0.29,0.04l0 0c-0.1,0.01 -0.18,0.02 -0.26,0.02l0 0c-0.08,0.01 -0.15,0.01 -0.22,0.01l-8.45 0c-0.03,0.1 -0.05,0.21 -0.07,0.32l0 0c-0.03,0.13 -0.06,0.28 -0.09,0.44l0 0c-0.02,0.15 -0.05,0.31 -0.07,0.47 -0.02,0.16 -0.04,0.32 -0.05,0.47 -0.01,0.15 -0.02,0.29 -0.02,0.43l0 0c0,0.14 0,0.26 0.01,0.37l0 0c0.02,0.26 0.09,0.51 0.19,0.77 0.05,0.12 0.12,0.25 0.19,0.36 0.08,0.12 0.17,0.23 0.27,0.34 0.1,0.1 0.21,0.2 0.34,0.28l0 0c0.13,0.09 0.27,0.16 0.43,0.22l0 0c0.16,0.07 0.34,0.12 0.53,0.15 0.19,0.03 0.4,0.05 0.62,0.05l0 0 6.89 0 0.1 0 -0.02 0.11zm-8.84 -6.64c-0.05,0.16 -0.09,0.33 -0.13,0.5l8.45 0 0 0c0.07,0 0.13,-0.01 0.18,-0.03 0.04,-0.01 0.09,-0.03 0.12,-0.05 0.04,-0.03 0.07,-0.06 0.1,-0.1 0.03,-0.03 0.06,-0.07 0.08,-0.11l0 0c0.03,-0.05 0.05,-0.09 0.07,-0.14 0.01,-0.04 0.03,-0.08 0.04,-0.12l0.01 -0.04 0 0c0.02,-0.07 0.03,-0.12 0.03,-0.15l0 0 0 -0.01c0.05,-0.2 0.07,-0.4 0.09,-0.59 0.02,-0.18 0.02,-0.36 0.01,-0.52 -0.01,-0.16 -0.03,-0.31 -0.06,-0.45l0 0c-0.03,-0.14 -0.06,-0.27 -0.11,-0.39l0 0c-0.04,-0.13 -0.09,-0.24 -0.14,-0.34 -0.06,-0.1 -0.11,-0.19 -0.17,-0.27l0 0c-0.13,-0.18 -0.27,-0.33 -0.43,-0.46 -0.15,-0.12 -0.31,-0.22 -0.49,-0.3 -0.18,-0.08 -0.37,-0.14 -0.56,-0.19 -0.19,-0.05 -0.39,-0.08 -0.59,-0.1l0 0c-0.22,-0.02 -0.43,-0.03 -0.63,-0.04l0 0c-0.21,-0.01 -0.42,-0.01 -0.63,0l0 0c-0.17,-0.01 -0.35,0 -0.53,0 -0.17,0.01 -0.35,0.02 -0.53,0.03 -0.18,0.01 -0.35,0.03 -0.53,0.06 -0.17,0.03 -0.35,0.07 -0.53,0.11l0 0c-0.17,0.05 -0.35,0.11 -0.52,0.19 -0.17,0.07 -0.34,0.16 -0.5,0.26l0 0.01c-0.17,0.1 -0.34,0.22 -0.5,0.36 -0.16,0.14 -0.32,0.31 -0.48,0.49 -0.12,0.14 -0.22,0.28 -0.32,0.42l0 0c-0.1,0.14 -0.18,0.29 -0.26,0.44 -0.08,0.15 -0.15,0.31 -0.21,0.47 -0.07,0.16 -0.12,0.33 -0.18,0.51l0 0c-0.05,0.17 -0.1,0.36 -0.15,0.55zm1.12 -2.39l0 0 0 0 0 0zm8.54 8.92l1.07 0 6.74 -10.75 0 0c0.05,-0.09 0.11,-0.17 0.18,-0.26 0.06,-0.08 0.13,-0.17 0.21,-0.26 0.08,-0.09 0.18,-0.17 0.28,-0.25 0.1,-0.08 0.21,-0.15 0.33,-0.22l0 0c0.12,-0.06 0.25,-0.11 0.4,-0.14 0.14,-0.04 0.29,-0.06 0.45,-0.06l0.01 0c0.16,0 0.3,0.02 0.43,0.06 0.13,0.03 0.24,0.08 0.34,0.14l0 0c0.09,0.07 0.17,0.14 0.24,0.22 0.07,0.08 0.13,0.16 0.17,0.25l0 0c0.04,0.09 0.08,0.18 0.11,0.26 0.03,0.09 0.05,0.17 0.06,0.26l0 0 2.26 10.75 1.07 0 0.1 0 -0.02 0.11 -0.24 1.14 -0.02 0.11 -0.1 0 -14.36 0 -0.1 0 0.02 -0.11 0.24 -1.14 0.02 -0.11 0.11 0zm29.4 -10.34l-2.42 11.59 -0.02 0.11 -0.1 0 -1.38 0 -0.11 0 0.03 -0.11 2.35 -11.25 0 -0.01c0.01,-0.04 0.01,-0.07 0.02,-0.1 0.01,-0.02 0.01,-0.05 0.01,-0.08l-0.01 0 -0.04 0.02c-0.02,0.02 -0.05,0.04 -0.08,0.08 -0.04,0.04 -0.09,0.09 -0.15,0.15l-9.34 10.47 0 0c-0.09,0.11 -0.19,0.21 -0.28,0.29l0 0c-0.1,0.1 -0.19,0.18 -0.28,0.25 -0.09,0.07 -0.19,0.14 -0.28,0.19l0 0c-0.1,0.06 -0.2,0.1 -0.3,0.14l0 0c-0.1,0.03 -0.2,0.06 -0.31,0.08 -0.11,0.02 -0.23,0.03 -0.34,0.03l-0.01 -0.01c-0.21,0 -0.39,-0.03 -0.54,-0.09 -0.16,-0.06 -0.29,-0.16 -0.38,-0.29 -0.1,-0.12 -0.16,-0.28 -0.18,-0.46 -0.02,-0.17 -0.01,-0.38 0.03,-0.6l0 0 2.45 -11.75 0.03 -0.1 0.1 0 1.38 0 0.1 0 -0.02 0.1 -2.35 11.26 0 0.01c-0.01,0.02 -0.01,0.05 -0.02,0.08 0,0.03 0,0.06 0,0.09 0,0.01 0,0.02 0.01,0.02 0,0.01 0.01,0.01 0.02,0.01 0,0 0.01,0 0.02,-0.01l0 0c0.02,-0.01 0.03,-0.02 0.05,-0.04 0.03,-0.03 0.06,-0.06 0.09,-0.09 0.03,-0.04 0.06,-0.08 0.1,-0.12l0 -0.01 9.45 -10.62c0.12,-0.14 0.24,-0.25 0.37,-0.36 0.13,-0.1 0.27,-0.19 0.41,-0.26 0.15,-0.07 0.3,-0.12 0.45,-0.16 0.16,-0.03 0.32,-0.05 0.48,-0.05l0 0c0.16,0 0.3,0.02 0.41,0.05 0.12,0.04 0.22,0.09 0.3,0.15l0.01 0c0.07,0.06 0.14,0.13 0.19,0.21l0 0c0.05,0.08 0.08,0.17 0.1,0.26l0 0c0.02,0.09 0.04,0.18 0.05,0.27 0,0.08 0,0.17 -0.01,0.26 0,0.08 -0.01,0.16 -0.02,0.22l0 0c-0.01,0.07 -0.02,0.12 -0.04,0.18zm-2.7 -0.77l0 0 0 0 0 0zm8.15 12.47l0 0 -3.86 0 -0.85 4.04 -0.02 0.11 -0.11 0 -1.37 0 -0.11 0 0.02 -0.11 3.24 -15.48 0 0c0.02,-0.12 0.06,-0.23 0.1,-0.33 0.05,-0.11 0.1,-0.21 0.16,-0.3l0 0c0.06,-0.09 0.12,-0.16 0.18,-0.23l0.01 0c0.06,-0.08 0.13,-0.14 0.19,-0.2l0.01 0c0.06,-0.05 0.12,-0.1 0.17,-0.14l0 0c0.06,-0.04 0.11,-0.08 0.16,-0.1l0 0c0.16,-0.1 0.32,-0.17 0.48,-0.23 0.15,-0.06 0.31,-0.1 0.46,-0.12 0.15,-0.03 0.29,-0.04 0.42,-0.05 0.12,-0.01 0.24,-0.02 0.34,-0.01l3.55 0 0 0c0.12,0 0.25,0 0.39,0.01 0.15,0 0.31,0.02 0.46,0.03 0.17,0.01 0.34,0.04 0.51,0.07l0 0c0.18,0.03 0.36,0.07 0.54,0.12 0.19,0.05 0.37,0.12 0.55,0.19 0.18,0.08 0.36,0.17 0.54,0.27 0.17,0.1 0.34,0.22 0.5,0.36 0.16,0.14 0.31,0.29 0.45,0.47l0 0c0.15,0.18 0.27,0.36 0.37,0.55l0 0c0.1,0.19 0.18,0.39 0.25,0.59 0.06,0.2 0.11,0.41 0.14,0.62l0 0c0.03,0.2 0.05,0.41 0.05,0.63 0,0.21 0,0.42 -0.02,0.63 -0.01,0.21 -0.04,0.42 -0.07,0.63 -0.03,0.21 -0.06,0.41 -0.1,0.62 -0.04,0.2 -0.08,0.39 -0.12,0.59l0 0c-0.05,0.27 -0.12,0.55 -0.18,0.82 -0.07,0.28 -0.15,0.55 -0.23,0.83 -0.08,0.28 -0.18,0.56 -0.29,0.83 -0.11,0.26 -0.23,0.53 -0.36,0.79 -0.14,0.27 -0.3,0.53 -0.48,0.78 -0.17,0.26 -0.37,0.51 -0.59,0.74l0 0.01c-0.25,0.26 -0.5,0.49 -0.76,0.69l0 0c-0.26,0.2 -0.53,0.38 -0.81,0.52 -0.27,0.14 -0.56,0.27 -0.86,0.36 -0.3,0.1 -0.61,0.18 -0.94,0.24 -0.32,0.05 -0.66,0.1 -1.01,0.12 -0.35,0.03 -0.71,0.04 -1.1,0.04zm-1.51 -11.26l-2.07 9.9 4.42 0c0.21,0 0.42,-0.01 0.63,-0.04 0.21,-0.02 0.42,-0.06 0.63,-0.11l0 0c0.21,-0.05 0.41,-0.12 0.61,-0.2 0.2,-0.08 0.4,-0.17 0.59,-0.27l0 0c0.18,-0.11 0.36,-0.23 0.53,-0.36 0.17,-0.13 0.33,-0.28 0.48,-0.44l0 0c0.2,-0.22 0.38,-0.46 0.53,-0.73 0.16,-0.26 0.3,-0.56 0.42,-0.87l0 0c0.13,-0.32 0.24,-0.67 0.34,-1.04 0.11,-0.37 0.2,-0.76 0.28,-1.18l0 0c0.07,-0.3 0.12,-0.57 0.16,-0.82 0.05,-0.26 0.08,-0.49 0.11,-0.71 0.02,-0.21 0.04,-0.41 0.05,-0.59 0.01,-0.18 0.01,-0.34 0,-0.49l0 0c0,-0.15 -0.02,-0.29 -0.03,-0.41 -0.02,-0.13 -0.05,-0.25 -0.08,-0.35 -0.06,-0.22 -0.14,-0.42 -0.25,-0.59 -0.11,-0.18 -0.24,-0.34 -0.39,-0.47 -0.15,-0.13 -0.31,-0.25 -0.48,-0.35 -0.17,-0.09 -0.36,-0.17 -0.56,-0.24 -0.2,-0.06 -0.4,-0.1 -0.61,-0.13 -0.2,-0.03 -0.41,-0.05 -0.62,-0.04l0 0 -4.05 0c-0.03,0 -0.06,0 -0.08,0.01l0 0c-0.04,0 -0.07,0.02 -0.11,0.03l0 0c-0.04,0.02 -0.08,0.04 -0.11,0.05 -0.03,0.02 -0.07,0.04 -0.1,0.06 -0.04,0.03 -0.08,0.06 -0.11,0.09l0 0c-0.02,0.02 -0.05,0.05 -0.06,0.08l0 0c-0.02,0.03 -0.03,0.06 -0.05,0.1l0 0c-0.01,0.03 -0.02,0.07 -0.02,0.1l0 0.01zm10.27 5.92c0.04,-0.4 0.11,-0.84 0.2,-1.31l0.01 0c0.03,-0.19 0.08,-0.38 0.13,-0.58 0.05,-0.2 0.11,-0.41 0.18,-0.64 0.07,-0.23 0.14,-0.46 0.23,-0.69 0.09,-0.23 0.19,-0.46 0.3,-0.7l0 0c0.11,-0.24 0.24,-0.47 0.37,-0.7 0.14,-0.23 0.29,-0.46 0.46,-0.68l0 0c0.16,-0.23 0.35,-0.44 0.55,-0.64l0 0c0.2,-0.21 0.41,-0.4 0.64,-0.57l0.01 -0.01c0.27,-0.2 0.57,-0.39 0.86,-0.54 0.3,-0.16 0.61,-0.29 0.93,-0.4 0.32,-0.1 0.64,-0.19 0.96,-0.26 0.31,-0.06 0.63,-0.12 0.95,-0.15 0.32,-0.03 0.64,-0.05 0.94,-0.07 0.31,-0.01 0.62,-0.02 0.91,-0.02l0.01 0c0.3,0 0.6,0.01 0.9,0.02 0.3,0.02 0.61,0.04 0.91,0.07 0.31,0.03 0.61,0.09 0.89,0.15 0.3,0.07 0.58,0.16 0.85,0.26 0.28,0.11 0.53,0.24 0.76,0.4 0.24,0.15 0.45,0.34 0.64,0.54l0 0.01c0.16,0.17 0.3,0.37 0.41,0.57l0 0c0.12,0.2 0.21,0.41 0.29,0.64l0 0c0.07,0.22 0.12,0.45 0.16,0.68 0.05,0.23 0.07,0.46 0.09,0.7l0 0c0.01,0.24 0.01,0.47 0,0.7l0 0c-0.01,0.23 -0.03,0.46 -0.05,0.69 -0.03,0.23 -0.06,0.44 -0.09,0.64 -0.03,0.2 -0.07,0.39 -0.11,0.58l0 0c-0.1,0.47 -0.21,0.91 -0.34,1.31 -0.13,0.41 -0.27,0.79 -0.42,1.13 -0.16,0.35 -0.32,0.66 -0.49,0.95 -0.17,0.29 -0.35,0.55 -0.53,0.79 -0.18,0.23 -0.36,0.44 -0.55,0.63 -0.18,0.19 -0.37,0.35 -0.56,0.49l0 0c-0.23,0.18 -0.48,0.34 -0.72,0.48 -0.25,0.14 -0.51,0.26 -0.77,0.36l0 0c-0.26,0.1 -0.51,0.19 -0.77,0.26 -0.25,0.07 -0.51,0.13 -0.76,0.18 -0.25,0.05 -0.5,0.09 -0.74,0.12 -0.23,0.03 -0.46,0.05 -0.68,0.06 -0.21,0.01 -0.42,0.02 -0.61,0.03 -0.19,0 -0.36,0.01 -0.52,0l0 0c-0.16,0.01 -0.34,0 -0.52,0 -0.19,-0.01 -0.39,-0.02 -0.6,-0.03 -0.21,-0.01 -0.43,-0.03 -0.66,-0.06 -0.22,-0.03 -0.45,-0.07 -0.68,-0.12 -0.23,-0.05 -0.46,-0.11 -0.69,-0.18 -0.22,-0.07 -0.44,-0.16 -0.66,-0.26l0 0c-0.22,-0.1 -0.42,-0.22 -0.61,-0.36 -0.19,-0.14 -0.37,-0.3 -0.53,-0.48l0 0c-0.13,-0.14 -0.25,-0.31 -0.35,-0.49l0 0c-0.11,-0.19 -0.2,-0.4 -0.29,-0.63 -0.08,-0.24 -0.15,-0.5 -0.2,-0.79 -0.05,-0.29 -0.08,-0.6 -0.09,-0.95 -0.01,-0.34 0.01,-0.72 0.05,-1.13zm1.97 -1.65c-0.04,0.17 -0.07,0.32 -0.1,0.46l0 0c-0.03,0.14 -0.06,0.28 -0.09,0.44 -0.03,0.15 -0.06,0.31 -0.09,0.49 -0.03,0.17 -0.05,0.35 -0.07,0.54 -0.02,0.18 -0.03,0.37 -0.04,0.56 -0.01,0.19 0,0.38 0.01,0.56 0.02,0.19 0.05,0.37 0.09,0.55l0 0c0.04,0.17 0.09,0.34 0.17,0.5 0.07,0.17 0.17,0.32 0.27,0.46 0.15,0.18 0.31,0.34 0.49,0.47l0 0c0.18,0.13 0.39,0.24 0.61,0.33 0.22,0.09 0.45,0.16 0.68,0.22 0.24,0.06 0.48,0.1 0.73,0.13 0.25,0.02 0.5,0.04 0.75,0.05 0.25,0.01 0.49,0.02 0.73,0.02l0 0c0.24,0 0.49,-0.01 0.74,-0.02 0.25,-0.01 0.51,-0.03 0.78,-0.05 0.26,-0.03 0.52,-0.07 0.78,-0.13 0.26,-0.06 0.52,-0.13 0.78,-0.22l0 0c0.25,-0.09 0.5,-0.2 0.74,-0.33l0 0c0.23,-0.13 0.46,-0.29 0.68,-0.47 0.17,-0.14 0.32,-0.29 0.47,-0.46 0.14,-0.16 0.26,-0.33 0.38,-0.5l0 0c0.11,-0.18 0.22,-0.36 0.31,-0.55 0.09,-0.18 0.18,-0.37 0.25,-0.56 0.07,-0.19 0.14,-0.38 0.19,-0.56 0.06,-0.19 0.11,-0.37 0.16,-0.54 0.04,-0.18 0.08,-0.34 0.11,-0.49 0.04,-0.16 0.07,-0.3 0.09,-0.44l0 0c0.03,-0.14 0.07,-0.29 0.1,-0.46 0.03,-0.16 0.06,-0.33 0.09,-0.52 0.03,-0.19 0.06,-0.37 0.08,-0.57l0 0c0.02,-0.19 0.03,-0.38 0.04,-0.58 0.01,-0.2 0.01,-0.4 -0.01,-0.59 -0.01,-0.19 -0.04,-0.38 -0.07,-0.56 -0.04,-0.18 -0.09,-0.35 -0.16,-0.51 -0.07,-0.16 -0.16,-0.32 -0.26,-0.46 -0.11,-0.13 -0.22,-0.24 -0.35,-0.35 -0.14,-0.1 -0.28,-0.2 -0.44,-0.28 -0.15,-0.07 -0.32,-0.14 -0.49,-0.2 -0.17,-0.06 -0.36,-0.11 -0.55,-0.15l0 0c-0.18,-0.04 -0.37,-0.07 -0.56,-0.09l0 0c-0.19,-0.03 -0.37,-0.05 -0.57,-0.06l0 0c-0.19,-0.01 -0.37,-0.02 -0.55,-0.03l0 0c-0.18,0 -0.35,0 -0.52,0l0 0c-0.16,0 -0.34,0 -0.52,0l0 0c-0.18,0.01 -0.36,0.02 -0.56,0.03l0 0c-0.2,0.01 -0.4,0.03 -0.59,0.06l0 0c-0.2,0.02 -0.4,0.05 -0.61,0.09l0 0c-0.2,0.04 -0.4,0.09 -0.6,0.15 -0.19,0.06 -0.39,0.13 -0.58,0.2l0 0c-0.19,0.08 -0.37,0.18 -0.55,0.28 -0.17,0.11 -0.34,0.22 -0.5,0.35 -0.16,0.14 -0.31,0.3 -0.45,0.46 -0.14,0.16 -0.26,0.33 -0.37,0.51 -0.12,0.18 -0.22,0.37 -0.31,0.56l0 0c-0.1,0.19 -0.18,0.39 -0.26,0.59l0 0c-0.07,0.2 -0.14,0.39 -0.2,0.58 -0.06,0.19 -0.11,0.38 -0.16,0.57 -0.04,0.19 -0.08,0.36 -0.12,0.52zm13.13 5.65c0.01,-0.1 0.03,-0.2 0.05,-0.3l0 0 2.06 -9.87 0 0c0.03,-0.12 0.07,-0.23 0.11,-0.34 0.05,-0.11 0.1,-0.22 0.17,-0.32 0.06,-0.1 0.13,-0.19 0.2,-0.28l0 0c0.08,-0.09 0.16,-0.16 0.25,-0.23l0 -0.01c0.1,-0.07 0.2,-0.13 0.32,-0.19 0.1,-0.06 0.22,-0.11 0.34,-0.15l0 0c0.12,-0.04 0.24,-0.07 0.36,-0.09 0.11,-0.02 0.23,-0.03 0.34,-0.03l6.12 0 0 0c0.1,0 0.22,0 0.35,0.01 0.12,0.01 0.26,0.02 0.41,0.04 0.15,0.02 0.31,0.05 0.46,0.1 0.15,0.04 0.31,0.1 0.46,0.17l0.01 0c0.15,0.07 0.3,0.17 0.43,0.28l0 0c0.13,0.11 0.24,0.24 0.35,0.39l0 0c0.08,0.12 0.14,0.25 0.19,0.38 0.05,0.14 0.09,0.28 0.11,0.43 0.02,0.15 0.04,0.3 0.04,0.45 0.01,0.15 0,0.31 -0.01,0.46l0 0c-0.02,0.15 -0.03,0.3 -0.05,0.44 -0.03,0.14 -0.05,0.28 -0.08,0.42l0 0c-0.02,0.11 -0.05,0.23 -0.08,0.34 -0.02,0.11 -0.05,0.22 -0.09,0.34l0 0c-0.03,0.11 -0.07,0.23 -0.12,0.35l0 0c-0.05,0.11 -0.11,0.22 -0.17,0.34l0 0c-0.06,0.11 -0.14,0.22 -0.22,0.33l-0.01 0c-0.08,0.11 -0.18,0.22 -0.28,0.32 -0.06,0.05 -0.12,0.11 -0.18,0.16l0 0c-0.07,0.05 -0.14,0.1 -0.21,0.16l0 0c-0.08,0.05 -0.16,0.11 -0.26,0.15 -0.09,0.05 -0.18,0.1 -0.29,0.14 -0.1,0.04 -0.21,0.08 -0.33,0.11l0 0c0.04,0.02 0.09,0.03 0.13,0.05 0.14,0.06 0.27,0.12 0.38,0.2l0 0c0.11,0.08 0.2,0.16 0.29,0.25l0 0c0.08,0.09 0.15,0.19 0.2,0.28 0.06,0.11 0.11,0.21 0.15,0.32l0 0c0.04,0.11 0.06,0.22 0.07,0.34l0 0c0.01,0.11 0.02,0.23 0.01,0.34 0,0.11 -0.01,0.23 -0.02,0.35 -0.02,0.11 -0.04,0.22 -0.06,0.34 -0.02,0.11 -0.04,0.22 -0.07,0.33l0 0c-0.03,0.19 -0.08,0.37 -0.12,0.55l0 0c-0.04,0.18 -0.1,0.37 -0.15,0.55 -0.06,0.19 -0.13,0.38 -0.21,0.56l0 0c-0.08,0.19 -0.18,0.37 -0.28,0.54l-0.01 0.01c-0.1,0.17 -0.23,0.35 -0.37,0.51l0 0c-0.14,0.17 -0.3,0.33 -0.48,0.48l0 0c-0.15,0.12 -0.29,0.22 -0.43,0.31l0 0c-0.14,0.09 -0.29,0.16 -0.43,0.22 -0.14,0.07 -0.27,0.12 -0.4,0.16 -0.14,0.04 -0.27,0.07 -0.4,0.09 -0.13,0.02 -0.26,0.04 -0.37,0.05 -0.12,0.01 -0.23,0.01 -0.34,0.01l0 0 -6.51 0 -0.01 0c-0.12,0 -0.24,-0.01 -0.36,-0.03 -0.11,-0.03 -0.22,-0.06 -0.31,-0.1 -0.1,-0.03 -0.19,-0.08 -0.27,-0.13 -0.08,-0.06 -0.15,-0.12 -0.2,-0.19l0 0c-0.07,-0.09 -0.12,-0.18 -0.15,-0.28 -0.03,-0.09 -0.05,-0.2 -0.05,-0.3l0 0c0,-0.1 0.01,-0.21 0.02,-0.31zm3.68 -10.1l-0.81 3.9 6.04 0 0 0c0.09,0.01 0.19,0 0.28,0 0.09,-0.01 0.18,-0.02 0.27,-0.03l0 0c0.09,-0.01 0.17,-0.02 0.26,-0.05l0 0c0.08,-0.02 0.16,-0.05 0.25,-0.08 0.08,-0.04 0.16,-0.09 0.25,-0.14 0.08,-0.06 0.17,-0.13 0.25,-0.2l0 0c0.1,-0.08 0.19,-0.17 0.26,-0.25l0 0c0.07,-0.09 0.14,-0.18 0.19,-0.27 0.06,-0.09 0.11,-0.19 0.15,-0.29 0.04,-0.09 0.08,-0.19 0.11,-0.28l0 0c0.03,-0.1 0.06,-0.2 0.08,-0.3 0.03,-0.1 0.05,-0.2 0.07,-0.29l0 -0.01c0.02,-0.08 0.03,-0.17 0.05,-0.26l0 0c0.01,-0.08 0.03,-0.18 0.04,-0.29l0 0c0.01,-0.1 0.02,-0.19 0.01,-0.29 0,-0.1 -0.01,-0.19 -0.03,-0.29 -0.02,-0.1 -0.05,-0.19 -0.1,-0.27 -0.04,-0.09 -0.1,-0.17 -0.17,-0.25 -0.06,-0.07 -0.13,-0.12 -0.2,-0.16 -0.07,-0.05 -0.14,-0.09 -0.22,-0.12l0 0c-0.08,-0.03 -0.16,-0.05 -0.24,-0.07 -0.08,-0.02 -0.15,-0.04 -0.23,-0.04l0 0c-0.08,-0.01 -0.16,-0.02 -0.23,-0.02 -0.07,-0.01 -0.14,-0.01 -0.21,0l0 0 -5.59 0c-0.02,0 -0.05,0 -0.08,0 -0.04,0.01 -0.08,0.02 -0.12,0.03 -0.04,0 -0.08,0.01 -0.11,0.03 -0.02,0.01 -0.05,0.02 -0.06,0.03 -0.02,0.01 -0.03,0.03 -0.05,0.05 -0.01,0.02 -0.03,0.04 -0.05,0.07 -0.01,0.03 -0.02,0.06 -0.04,0.08 0,0.02 -0.01,0.05 -0.02,0.06zm4.95 5.26l-6.04 0 -0.86 4.12c-0.01,0.06 -0.02,0.11 -0.03,0.16 -0.01,0.05 -0.01,0.1 -0.01,0.15l0 0c0,0.05 0,0.09 0.01,0.13l0 0c0.01,0.04 0.03,0.07 0.05,0.1 0.03,0.04 0.06,0.07 0.1,0.09 0.03,0.02 0.08,0.04 0.12,0.05 0.05,0.01 0.11,0.01 0.17,0.02 0.06,0 0.12,0 0.18,0l0 0 5.01 0 0 0c0.12,0 0.25,0 0.37,0 0.12,-0.01 0.23,-0.01 0.34,-0.02 0.11,-0.01 0.21,-0.03 0.32,-0.05 0.1,-0.03 0.2,-0.06 0.3,-0.1l0 0c0.09,-0.03 0.18,-0.08 0.28,-0.14l0 0c0.09,-0.06 0.18,-0.13 0.27,-0.22 0.1,-0.08 0.19,-0.18 0.26,-0.28l0 0c0.08,-0.09 0.14,-0.19 0.2,-0.3l0 0c0.06,-0.11 0.11,-0.22 0.15,-0.33 0.04,-0.11 0.08,-0.22 0.11,-0.34 0.04,-0.12 0.07,-0.23 0.09,-0.34 0.03,-0.12 0.05,-0.23 0.07,-0.34l0 0c0.03,-0.09 0.04,-0.19 0.06,-0.29 0.02,-0.1 0.04,-0.2 0.05,-0.31 0.02,-0.11 0.02,-0.21 0.03,-0.32 0,-0.1 -0.01,-0.21 -0.02,-0.31l0 0c-0.01,-0.1 -0.04,-0.2 -0.07,-0.3l0 0c-0.04,-0.09 -0.09,-0.19 -0.15,-0.28 -0.08,-0.11 -0.17,-0.2 -0.27,-0.28 -0.1,-0.07 -0.21,-0.13 -0.32,-0.16l-0.01 0c-0.11,-0.04 -0.24,-0.07 -0.37,-0.09 -0.12,-0.02 -0.26,-0.02 -0.39,-0.02l0 0zm7.28 -5.72l0.24 -1.15 0.02 -0.1 0.11 0 6.88 0c0.17,0 0.33,0.01 0.49,0.03 0.15,0.02 0.3,0.04 0.45,0.08 0.15,0.04 0.29,0.08 0.43,0.14 0.13,0.05 0.26,0.11 0.38,0.18 0.12,0.07 0.23,0.14 0.33,0.23 0.1,0.08 0.19,0.17 0.26,0.27l0 0c0.1,0.13 0.19,0.27 0.25,0.41 0.07,0.14 0.12,0.29 0.15,0.45 0.03,0.16 0.05,0.31 0.06,0.46l0 0c0.01,0.16 0.01,0.32 -0.01,0.48 -0.01,0.15 -0.02,0.3 -0.05,0.45 -0.02,0.14 -0.04,0.28 -0.07,0.41l0 0 -1.62 7.74 0 0c-0.01,0.07 -0.02,0.13 -0.04,0.2 -0.02,0.07 -0.05,0.15 -0.07,0.23 -0.03,0.09 -0.06,0.17 -0.1,0.26 -0.04,0.08 -0.09,0.16 -0.15,0.25l0 0c-0.05,0.09 -0.12,0.18 -0.19,0.26l0 0c-0.08,0.08 -0.16,0.15 -0.26,0.22l0 0.01c-0.09,0.06 -0.19,0.12 -0.29,0.16 -0.09,0.05 -0.2,0.09 -0.3,0.12 -0.1,0.02 -0.2,0.04 -0.31,0.06 -0.1,0.02 -0.2,0.03 -0.3,0.04l0 0 -0.28 0.01 0 0c-0.1,0 -0.18,0 -0.26,0l-5.4 0 0 0c-0.14,0 -0.27,0 -0.41,-0.01 -0.15,0 -0.29,-0.01 -0.43,-0.02 -0.15,-0.01 -0.3,-0.03 -0.44,-0.06l0 0c-0.14,-0.02 -0.29,-0.06 -0.43,-0.1l0 0c-0.14,-0.04 -0.27,-0.1 -0.4,-0.17l0 0c-0.13,-0.07 -0.25,-0.15 -0.37,-0.25l0 0c-0.12,-0.12 -0.23,-0.24 -0.32,-0.38 -0.09,-0.14 -0.16,-0.29 -0.22,-0.45l0 0c-0.05,-0.15 -0.1,-0.31 -0.13,-0.47 -0.03,-0.17 -0.04,-0.33 -0.05,-0.5 0,-0.17 0,-0.33 0,-0.49 0.01,-0.16 0.02,-0.31 0.04,-0.46 0.02,-0.15 0.04,-0.28 0.06,-0.41 0.02,-0.12 0.04,-0.24 0.07,-0.34l0 0c0.03,-0.18 0.08,-0.36 0.13,-0.55 0.05,-0.18 0.11,-0.36 0.18,-0.55 0.07,-0.19 0.15,-0.38 0.24,-0.56l0 0c0.1,-0.18 0.21,-0.36 0.33,-0.54l0 0c0.12,-0.17 0.27,-0.34 0.43,-0.49 0.16,-0.16 0.35,-0.31 0.54,-0.44l0.01 -0.01c0.15,-0.09 0.31,-0.18 0.47,-0.26 0.17,-0.07 0.33,-0.14 0.5,-0.19l0 0c0.16,-0.05 0.33,-0.09 0.49,-0.13 0.16,-0.03 0.32,-0.05 0.49,-0.07l0 0c0.15,-0.02 0.31,-0.03 0.45,-0.04 0.15,-0.01 0.29,-0.01 0.43,-0.01l0 0 5.99 0 0.38 -1.83c0.01,-0.07 0.02,-0.14 0.03,-0.22 0.01,-0.08 0.01,-0.16 0.01,-0.25l0 0c0,-0.18 -0.02,-0.36 -0.06,-0.54l0 0c-0.02,-0.09 -0.05,-0.17 -0.08,-0.25l0 0c-0.02,-0.07 -0.06,-0.14 -0.1,-0.21 -0.05,-0.07 -0.12,-0.14 -0.2,-0.2 -0.08,-0.07 -0.18,-0.13 -0.28,-0.18l0 0c-0.11,-0.05 -0.23,-0.09 -0.37,-0.12 -0.13,-0.03 -0.28,-0.04 -0.44,-0.04l0 0 -6.81 0 -0.1 0 0.02 -0.11zm6.72 10.06l0.99 -4.75 -6.3 0 0 0c-0.13,0 -0.26,0.01 -0.38,0.02 -0.11,0.02 -0.22,0.04 -0.32,0.08l-0.01 0c-0.1,0.03 -0.2,0.06 -0.29,0.1l0 0c-0.08,0.04 -0.16,0.08 -0.24,0.13 -0.07,0.04 -0.14,0.09 -0.19,0.13l0 0c-0.06,0.05 -0.11,0.09 -0.15,0.13l0 0c-0.1,0.1 -0.19,0.21 -0.27,0.34l0 0c-0.08,0.13 -0.16,0.27 -0.22,0.43 -0.07,0.17 -0.13,0.36 -0.19,0.55 -0.06,0.2 -0.11,0.4 -0.15,0.62l0 0c-0.03,0.13 -0.05,0.26 -0.08,0.39 -0.02,0.14 -0.04,0.27 -0.05,0.41l0 0c-0.01,0.13 -0.02,0.27 -0.02,0.39 0,0.13 0,0.25 0.01,0.37 0.02,0.12 0.04,0.23 0.08,0.34l0 0c0.03,0.1 0.08,0.19 0.13,0.28l0 0c0.06,0.07 0.12,0.14 0.2,0.2 0.07,0.06 0.17,0.12 0.27,0.17l0 0c0.1,0.05 0.21,0.09 0.33,0.11 0.12,0.03 0.25,0.04 0.39,0.04l0 0 5.67 0 0 0c0.04,0 0.08,0 0.13,0 0.05,0 0.1,-0.01 0.15,-0.01l0 0c0.05,-0.01 0.1,-0.02 0.15,-0.04l0 0c0.04,-0.02 0.09,-0.04 0.14,-0.07 0.04,-0.03 0.08,-0.06 0.11,-0.09 0.02,-0.03 0.04,-0.05 0.05,-0.07 0.01,-0.03 0.03,-0.06 0.03,-0.09 0.01,-0.03 0.02,-0.07 0.03,-0.1l0 -0.01zm17.75 -11.21l-2.7 12.94 -0.03 0.11 -0.1 0 -1.38 0 -0.1 0 0.02 -0.11 1.25 -6 -8.21 0 -1.25 6 -0.02 0.11 -0.11 0 -1.37 0 -0.11 0 0.02 -0.11 2.7 -12.94 0.03 -0.1 0.1 0 1.38 0 0.1 0 -0.02 0.1 -1.17 5.59 8.22 0 1.16 -5.59 0.02 -0.1 0.11 0 1.37 0 0.11 0 -0.02 0.1zm14.1 1.35l-2.43 11.59 -0.02 0.11 -0.1 0 -1.38 0 -0.1 0 0.02 -0.11 2.35 -11.25 0 -0.01c0.01,-0.04 0.02,-0.07 0.02,-0.1 0.01,-0.02 0.01,-0.05 0.01,-0.08l-0.01 0 -0.04 0.02c-0.02,0.02 -0.04,0.04 -0.08,0.08 -0.04,0.04 -0.09,0.09 -0.15,0.15l-9.33 10.47 0 0c-0.1,0.11 -0.19,0.21 -0.28,0.29l0 0c-0.1,0.1 -0.2,0.18 -0.29,0.25 -0.09,0.07 -0.18,0.14 -0.28,0.19l0 0c-0.1,0.06 -0.2,0.1 -0.3,0.14l0 0c-0.09,0.03 -0.2,0.06 -0.31,0.08 -0.11,0.02 -0.22,0.03 -0.34,0.03l0 -0.01c-0.21,0 -0.4,-0.03 -0.55,-0.09 -0.16,-0.06 -0.28,-0.16 -0.38,-0.29 -0.1,-0.12 -0.16,-0.28 -0.18,-0.46 -0.02,-0.17 -0.01,-0.38 0.03,-0.6l0 0 2.46 -11.75 0.02 -0.1 0.1 0 1.38 0 0.11 0 -0.03 0.1 -2.35 11.26 0 0.01c-0.01,0.02 -0.01,0.05 -0.01,0.08 -0.01,0.03 -0.01,0.06 -0.01,0.09 0,0.01 0,0.02 0.01,0.02 0,0.01 0.01,0.01 0.02,0.01 0.01,0 0.02,0 0.02,-0.01l0.01 0c0.01,-0.01 0.03,-0.02 0.04,-0.04l0 0c0.03,-0.03 0.06,-0.06 0.09,-0.09 0.03,-0.04 0.07,-0.08 0.1,-0.12l0 -0.01 9.45 -10.62c0.12,-0.14 0.24,-0.25 0.37,-0.36 0.13,-0.1 0.27,-0.19 0.41,-0.26 0.15,-0.07 0.3,-0.12 0.45,-0.16 0.16,-0.03 0.32,-0.05 0.49,-0.05l0 0c0.15,0 0.29,0.02 0.41,0.05 0.12,0.04 0.22,0.09 0.3,0.15l0 0c0.08,0.06 0.14,0.13 0.19,0.21l0 0c0.05,0.08 0.08,0.17 0.11,0.26l0 0c0.02,0.09 0.03,0.18 0.04,0.27 0.01,0.08 0.01,0.17 0,0.26 -0.01,0.08 -0.02,0.16 -0.03,0.22 -0.01,0.07 -0.02,0.12 -0.03,0.18zm-2.71 -0.77l0 0 0 0 0 0zm14.37 11.22l-0.24 1.14 -0.02 0.11 -0.1 0 -6.89 0 0 0c-0.19,0 -0.39,-0.01 -0.59,-0.03 -0.21,-0.02 -0.42,-0.05 -0.63,-0.09l0 0c-0.21,-0.04 -0.42,-0.11 -0.62,-0.19 -0.2,-0.08 -0.4,-0.18 -0.6,-0.29 -0.19,-0.12 -0.37,-0.27 -0.54,-0.44 -0.17,-0.16 -0.32,-0.36 -0.46,-0.59l-0.01 0c-0.13,-0.22 -0.24,-0.45 -0.32,-0.69 -0.09,-0.24 -0.14,-0.49 -0.17,-0.75 -0.03,-0.25 -0.04,-0.51 -0.04,-0.79l0 0c0.01,-0.27 0.03,-0.56 0.07,-0.85l0 0c0.04,-0.28 0.09,-0.58 0.14,-0.89 0.05,-0.3 0.12,-0.61 0.18,-0.93l0 0c0.05,-0.23 0.1,-0.46 0.16,-0.69 0.05,-0.24 0.12,-0.48 0.18,-0.72 0.07,-0.25 0.15,-0.5 0.25,-0.75 0.08,-0.24 0.18,-0.48 0.29,-0.72 0.11,-0.24 0.24,-0.48 0.39,-0.71 0.14,-0.23 0.3,-0.45 0.48,-0.67l0 0c0.18,-0.22 0.37,-0.43 0.59,-0.63 0.22,-0.2 0.46,-0.39 0.72,-0.56l0.01 0c0.25,-0.17 0.51,-0.31 0.77,-0.44 0.26,-0.12 0.53,-0.23 0.81,-0.31l0 0c0.27,-0.09 0.53,-0.16 0.8,-0.21 0.27,-0.06 0.54,-0.1 0.81,-0.13 0.26,-0.03 0.52,-0.05 0.77,-0.06 0.25,-0.02 0.5,-0.02 0.74,-0.02l0 0c0.17,0 0.34,0 0.53,0.01 0.18,0.01 0.37,0.02 0.57,0.04l0 0c0.21,0.02 0.41,0.05 0.61,0.09 0.21,0.03 0.41,0.08 0.62,0.13 0.2,0.06 0.4,0.12 0.59,0.2 0.19,0.08 0.37,0.17 0.55,0.27 0.05,0.03 0.11,0.08 0.18,0.13 0.06,0.05 0.14,0.1 0.22,0.17l0 0c0.08,0.07 0.16,0.14 0.24,0.23l0 0c0.08,0.09 0.16,0.18 0.24,0.29 0.09,0.11 0.17,0.23 0.24,0.37 0.07,0.13 0.14,0.27 0.2,0.43l0 0c0.12,0.31 0.2,0.69 0.23,1.11l0 0c0.01,0.22 0.01,0.44 -0.01,0.69 -0.02,0.24 -0.06,0.5 -0.11,0.77l0 0.01c-0.01,0.06 -0.03,0.14 -0.05,0.22 -0.03,0.09 -0.05,0.18 -0.09,0.29 -0.03,0.11 -0.07,0.22 -0.12,0.33l0 0c-0.05,0.11 -0.11,0.22 -0.18,0.33l0 0c-0.07,0.12 -0.15,0.22 -0.24,0.32l0 0.01c-0.1,0.09 -0.2,0.18 -0.31,0.26l0 0c-0.1,0.07 -0.19,0.12 -0.28,0.16l0 0c-0.1,0.05 -0.2,0.08 -0.3,0.11l0 0c-0.1,0.03 -0.19,0.06 -0.29,0.08 -0.09,0.02 -0.19,0.03 -0.28,0.04l-0.01 0c-0.09,0.01 -0.18,0.02 -0.25,0.02l0 0c-0.08,0.01 -0.16,0.01 -0.23,0.01l-8.45 0c-0.02,0.1 -0.05,0.21 -0.07,0.32l0 0c-0.03,0.13 -0.05,0.28 -0.08,0.44l0 0c-0.03,0.15 -0.05,0.31 -0.07,0.47 -0.03,0.16 -0.04,0.32 -0.06,0.47 -0.01,0.15 -0.02,0.29 -0.02,0.43l0 0c0,0.14 0,0.26 0.01,0.37l0 0c0.03,0.26 0.09,0.51 0.2,0.77 0.05,0.12 0.11,0.25 0.19,0.36 0.07,0.12 0.16,0.23 0.26,0.34 0.1,0.1 0.22,0.2 0.35,0.28 0.12,0.09 0.27,0.16 0.43,0.22l0 0c0.16,0.07 0.33,0.12 0.52,0.15 0.19,0.03 0.4,0.05 0.63,0.05l0 0 6.88 0 0.11 0 -0.03 0.11zm-8.84 -6.64c-0.04,0.16 -0.08,0.33 -0.12,0.5l8.45 0 0 0c0.06,0 0.12,-0.01 0.17,-0.03 0.05,-0.01 0.09,-0.03 0.12,-0.05 0.04,-0.03 0.08,-0.06 0.11,-0.1 0.03,-0.03 0.05,-0.07 0.08,-0.11l0 0c0.02,-0.05 0.04,-0.09 0.06,-0.14 0.02,-0.04 0.03,-0.08 0.04,-0.12l0 0 0.01 -0.03c0.02,-0.07 0.03,-0.13 0.04,-0.16l0 -0.01c0.04,-0.2 0.07,-0.4 0.09,-0.59 0.01,-0.18 0.01,-0.36 0,-0.52 -0.01,-0.16 -0.03,-0.31 -0.05,-0.45l0 0c-0.03,-0.14 -0.07,-0.27 -0.11,-0.39l0 0c-0.05,-0.13 -0.1,-0.24 -0.15,-0.34 -0.05,-0.1 -0.11,-0.19 -0.17,-0.27l0 0c-0.13,-0.18 -0.27,-0.33 -0.42,-0.46 -0.15,-0.12 -0.32,-0.22 -0.5,-0.3l0 0c-0.18,-0.08 -0.36,-0.14 -0.55,-0.19 -0.2,-0.05 -0.4,-0.08 -0.6,-0.1l0 0c-0.21,-0.02 -0.42,-0.03 -0.63,-0.04l0 0c-0.21,-0.01 -0.41,-0.01 -0.62,0l0 0c-0.18,-0.01 -0.35,0 -0.53,0 -0.18,0.01 -0.35,0.02 -0.54,0.03 -0.17,0.01 -0.35,0.03 -0.52,0.06 -0.18,0.03 -0.36,0.07 -0.53,0.11l0 0c-0.18,0.05 -0.35,0.11 -0.52,0.19l-0.01 0c-0.16,0.07 -0.33,0.16 -0.5,0.26l0 0.01c-0.17,0.1 -0.33,0.22 -0.49,0.36 -0.17,0.14 -0.33,0.31 -0.48,0.49 -0.12,0.14 -0.23,0.28 -0.33,0.42l0 0c-0.09,0.14 -0.18,0.29 -0.26,0.44 -0.07,0.15 -0.14,0.31 -0.21,0.47 -0.06,0.16 -0.12,0.33 -0.17,0.51l0 0c-0.06,0.17 -0.11,0.36 -0.16,0.55zm1.13 -2.39l0 0 -0.01 0 0.01 0zm12.81 8.4l-3.37 3.93 -0.07 0.08 -0.07 -0.05 -1.13 -0.7 -0.08 -0.06 0.08 -0.09 3.36 -3.93 0.07 -0.08 0.08 0.04 1.12 0.71 0.09 0.06 -0.08 0.09zm8.31 1.88l-1.56 0 -0.16 0 0.09 -0.15 7.79 -12.06 0 0c0.11,-0.16 0.22,-0.3 0.32,-0.42 0.12,-0.13 0.23,-0.23 0.34,-0.31l0.01 0c0.1,-0.07 0.21,-0.14 0.31,-0.19l0 0c0.11,-0.05 0.21,-0.09 0.3,-0.11 0.09,-0.02 0.16,-0.04 0.23,-0.05 0.07,-0.01 0.14,-0.01 0.19,-0.01 0.05,0 0.11,0 0.18,0.01 0.06,0.01 0.13,0.03 0.21,0.05l0 0c0.09,0.02 0.17,0.06 0.25,0.11 0.08,0.05 0.16,0.12 0.24,0.19l0 0c0.08,0.08 0.15,0.18 0.21,0.31 0.06,0.12 0.11,0.26 0.15,0.42l0 0 2.75 12.06 0.04 0.15 -0.16 0 -1.56 0 -0.07 0 -0.02 -0.07 -2.45 -11.32 0 -0.01c-0.01,-0.03 -0.01,-0.06 -0.02,-0.1l0 0 -0.01 -0.07 0 0c0,-0.02 -0.01,-0.04 -0.02,-0.07 -0.01,-0.02 -0.01,-0.03 -0.02,-0.05l-0.01 0 0 -0.01c0,-0.01 -0.01,-0.02 -0.01,-0.02l-0.01 0 -0.01 0c-0.01,0 -0.02,0.01 -0.03,0.02l0 0.01 0 0c-0.02,0.02 -0.04,0.03 -0.05,0.05 -0.02,0.03 -0.03,0.05 -0.05,0.07l-0.04 0.08 0 0c-0.02,0.03 -0.04,0.06 -0.05,0.09l-0.01 0.01 -7.18 11.32 -0.04 0.07 -0.07 0zm13.33 -5.34c0.05,-0.4 0.12,-0.84 0.21,-1.31l0 0c0.04,-0.19 0.08,-0.38 0.14,-0.58 0.05,-0.2 0.11,-0.41 0.17,-0.64 0.07,-0.23 0.15,-0.46 0.24,-0.69 0.09,-0.23 0.19,-0.46 0.3,-0.7l0 0c0.11,-0.24 0.23,-0.47 0.37,-0.7 0.14,-0.23 0.29,-0.46 0.45,-0.68l0 0c0.17,-0.23 0.35,-0.44 0.55,-0.64 0.2,-0.2 0.42,-0.4 0.65,-0.57l0 -0.01c0.28,-0.21 0.57,-0.39 0.87,-0.54 0.3,-0.16 0.61,-0.29 0.92,-0.4l0 0c0.32,-0.1 0.63,-0.19 0.95,-0.25 0.32,-0.07 0.64,-0.13 0.96,-0.16 0.33,-0.03 0.64,-0.05 0.95,-0.07 0.31,-0.01 0.61,-0.02 0.91,-0.02l0 0c0.3,0 0.61,0.01 0.91,0.02 0.3,0.02 0.6,0.04 0.91,0.07 0.31,0.03 0.6,0.09 0.89,0.15 0.29,0.07 0.58,0.16 0.85,0.26 0.27,0.11 0.53,0.24 0.76,0.4 0.23,0.15 0.45,0.34 0.64,0.54l0 0.01c0.16,0.17 0.29,0.36 0.41,0.57l0 0c0.11,0.2 0.21,0.41 0.28,0.64l0 0c0.07,0.22 0.13,0.45 0.17,0.68 0.04,0.23 0.07,0.46 0.08,0.7l0 0c0.01,0.24 0.01,0.47 0.01,0.7l0 0c-0.01,0.23 -0.03,0.46 -0.06,0.69 -0.02,0.23 -0.05,0.44 -0.08,0.64 -0.04,0.2 -0.07,0.39 -0.11,0.58l0 0c-0.1,0.47 -0.22,0.91 -0.35,1.31 -0.12,0.41 -0.26,0.79 -0.42,1.13 -0.15,0.35 -0.31,0.66 -0.48,0.95 -0.17,0.29 -0.35,0.55 -0.54,0.79 -0.18,0.23 -0.36,0.44 -0.54,0.63 -0.19,0.19 -0.38,0.35 -0.56,0.49l0 0c-0.24,0.18 -0.48,0.34 -0.73,0.48 -0.25,0.14 -0.5,0.26 -0.76,0.36l0 0c-0.26,0.1 -0.52,0.19 -0.77,0.26 -0.26,0.07 -0.51,0.13 -0.77,0.18 -0.24,0.05 -0.49,0.09 -0.73,0.12 -0.24,0.03 -0.46,0.05 -0.68,0.06 -0.22,0.01 -0.42,0.02 -0.61,0.03 -0.19,0 -0.36,0.01 -0.52,0l-0.01 0c-0.16,0.01 -0.33,0 -0.51,0 -0.19,-0.01 -0.39,-0.02 -0.6,-0.03 -0.22,-0.01 -0.44,-0.03 -0.66,-0.06 -0.23,-0.03 -0.45,-0.07 -0.68,-0.12 -0.24,-0.05 -0.47,-0.11 -0.69,-0.18 -0.23,-0.07 -0.45,-0.16 -0.66,-0.26l0 0c-0.22,-0.1 -0.43,-0.22 -0.62,-0.36 -0.19,-0.14 -0.36,-0.3 -0.52,-0.48l0 0c-0.13,-0.14 -0.25,-0.3 -0.36,-0.49 -0.1,-0.19 -0.2,-0.4 -0.28,-0.63 -0.09,-0.24 -0.16,-0.5 -0.2,-0.79 -0.05,-0.29 -0.08,-0.6 -0.09,-0.95 -0.01,-0.34 0,-0.72 0.04,-1.13zm1.98 -1.65c-0.04,0.17 -0.07,0.32 -0.1,0.46l0 0c-0.03,0.14 -0.06,0.28 -0.09,0.44 -0.03,0.15 -0.06,0.31 -0.09,0.49 -0.03,0.17 -0.06,0.35 -0.08,0.54 -0.01,0.18 -0.03,0.37 -0.03,0.56 -0.01,0.19 -0.01,0.38 0.01,0.56 0.02,0.19 0.04,0.37 0.08,0.55l0 0c0.04,0.17 0.1,0.34 0.17,0.5 0.08,0.17 0.17,0.32 0.28,0.46 0.14,0.18 0.31,0.34 0.49,0.47l0 0c0.18,0.13 0.38,0.24 0.6,0.33 0.22,0.09 0.45,0.16 0.69,0.22 0.24,0.06 0.48,0.1 0.72,0.13 0.26,0.02 0.51,0.04 0.76,0.05 0.25,0.01 0.49,0.02 0.73,0.02l0 0c0.24,0 0.48,-0.01 0.74,-0.02 0.25,-0.01 0.51,-0.03 0.77,-0.05 0.26,-0.03 0.52,-0.07 0.78,-0.13 0.26,-0.06 0.53,-0.13 0.78,-0.22l0 0c0.26,-0.09 0.5,-0.2 0.74,-0.33l0 0c0.24,-0.13 0.47,-0.29 0.68,-0.47 0.17,-0.14 0.33,-0.29 0.47,-0.46 0.14,-0.16 0.27,-0.33 0.38,-0.5l0.01 0c0.11,-0.18 0.21,-0.36 0.3,-0.55 0.1,-0.18 0.18,-0.37 0.25,-0.56 0.08,-0.19 0.14,-0.38 0.2,-0.56 0.06,-0.19 0.11,-0.37 0.15,-0.54 0.05,-0.18 0.08,-0.34 0.12,-0.49 0.03,-0.16 0.06,-0.3 0.09,-0.44l0 0c0.03,-0.14 0.06,-0.29 0.09,-0.46 0.03,-0.16 0.06,-0.33 0.1,-0.52l0 0c0.03,-0.19 0.05,-0.37 0.07,-0.56 0.03,-0.2 0.04,-0.39 0.05,-0.59 0.01,-0.2 0,-0.4 -0.01,-0.59 -0.01,-0.19 -0.04,-0.38 -0.08,-0.56 -0.03,-0.18 -0.09,-0.35 -0.16,-0.51 -0.07,-0.16 -0.16,-0.32 -0.26,-0.46 -0.1,-0.13 -0.22,-0.24 -0.35,-0.35 -0.13,-0.1 -0.28,-0.2 -0.43,-0.28 -0.16,-0.07 -0.32,-0.14 -0.49,-0.2 -0.18,-0.06 -0.36,-0.11 -0.55,-0.15l0 0c-0.19,-0.04 -0.37,-0.07 -0.56,-0.09l0 0c-0.19,-0.03 -0.38,-0.05 -0.57,-0.06l0 0c-0.19,-0.01 -0.38,-0.02 -0.55,-0.03l0 0c-0.18,0 -0.36,0 -0.52,0l0 0c-0.17,0 -0.34,0 -0.52,0l0 0c-0.18,0.01 -0.37,0.02 -0.57,0.03l0 0c-0.19,0.01 -0.39,0.03 -0.59,0.06l0 0c-0.2,0.02 -0.4,0.05 -0.6,0.09l0 0c-0.2,0.04 -0.4,0.09 -0.6,0.15 -0.2,0.06 -0.39,0.13 -0.59,0.2l0 0c-0.18,0.08 -0.37,0.18 -0.55,0.28 -0.17,0.11 -0.33,0.22 -0.49,0.35 -0.16,0.14 -0.31,0.3 -0.45,0.46 -0.14,0.16 -0.27,0.33 -0.38,0.51 -0.11,0.18 -0.21,0.37 -0.31,0.56l0 0c-0.09,0.19 -0.17,0.39 -0.25,0.59l0 0c-0.07,0.2 -0.14,0.39 -0.2,0.58 -0.06,0.19 -0.11,0.38 -0.16,0.57 -0.04,0.19 -0.09,0.36 -0.12,0.52zm16.71 -3.98l-2.26 10.86 -0.03 0.11 -0.1 0 -1.38 0 -0.1 0 0.02 -0.11 2.31 -11.08 0 0c0.02,-0.1 0.04,-0.21 0.07,-0.31 0.02,-0.11 0.05,-0.22 0.08,-0.33 0.04,-0.12 0.08,-0.23 0.14,-0.34 0.06,-0.11 0.13,-0.22 0.21,-0.32l0 0c0.08,-0.09 0.16,-0.18 0.25,-0.25 0.08,-0.07 0.18,-0.13 0.27,-0.17 0.09,-0.05 0.18,-0.09 0.28,-0.12 0.09,-0.03 0.18,-0.06 0.28,-0.07 0.09,-0.02 0.18,-0.03 0.27,-0.04 0.09,-0.01 0.17,-0.01 0.26,-0.01l0 0 8.95 0 0.1 0 -0.02 0.1 -0.24 1.15 -0.02 0.11 -0.11 0 -8.42 0c-0.07,0 -0.14,0 -0.2,0.01 -0.06,0.01 -0.11,0.02 -0.15,0.04l0 0c-0.05,0.01 -0.08,0.03 -0.11,0.05 -0.03,0.02 -0.05,0.03 -0.07,0.05l0 0c-0.03,0.03 -0.05,0.06 -0.07,0.09 -0.02,0.03 -0.04,0.07 -0.06,0.11l0 0c-0.02,0.04 -0.04,0.09 -0.06,0.13 -0.01,0.04 -0.03,0.08 -0.04,0.12 -0.02,0.08 -0.03,0.16 -0.05,0.22zm22.11 -0.73l-2.42 11.59 -0.02 0.11 -0.11 0 -1.38 0 -0.1 0 0.02 -0.11 2.35 -11.25 0 -0.01c0.01,-0.04 0.02,-0.07 0.03,-0.1 0,-0.02 0,-0.05 0.01,-0.08l-0.02 0 -0.03 0.02 0 0c-0.02,0.02 -0.05,0.04 -0.09,0.08l0 0c-0.04,0.04 -0.09,0.09 -0.15,0.15l-9.33 10.47 0 0c-0.1,0.11 -0.19,0.21 -0.28,0.29 -0.1,0.09 -0.19,0.18 -0.28,0.25 -0.1,0.07 -0.19,0.14 -0.29,0.19l0 0c-0.09,0.06 -0.19,0.1 -0.29,0.14l0 0c-0.1,0.03 -0.21,0.06 -0.32,0.08 -0.11,0.02 -0.22,0.03 -0.34,0.03l0 -0.01c-0.21,0 -0.4,-0.03 -0.55,-0.09 -0.16,-0.06 -0.28,-0.16 -0.38,-0.29 -0.09,-0.12 -0.15,-0.28 -0.18,-0.46 -0.02,-0.17 -0.01,-0.38 0.04,-0.6l0 0 2.45 -11.75 0.02 -0.1 0.11 0 1.37 0 0.11 0 -0.02 0.1 -2.35 11.26 -0.01 0.01c0,0.02 -0.01,0.05 -0.01,0.08 0,0.03 -0.01,0.06 -0.01,0.09 0,0.01 0.01,0.02 0.01,0.02 0,0.01 0.01,0.01 0.02,0.01 0.01,0 0.02,0 0.03,-0.01l0 0c0.01,-0.01 0.03,-0.02 0.05,-0.04l0 0c0.02,-0.03 0.05,-0.06 0.08,-0.09 0.04,-0.04 0.07,-0.08 0.1,-0.12l0.01 -0.01 9.44 -10.62c0.12,-0.14 0.25,-0.25 0.38,-0.36 0.13,-0.1 0.26,-0.19 0.41,-0.26 0.14,-0.07 0.29,-0.12 0.45,-0.16 0.15,-0.03 0.31,-0.05 0.48,-0.05l0 0c0.15,0 0.29,0.02 0.41,0.05 0.12,0.04 0.22,0.09 0.3,0.15l0 0c0.08,0.06 0.14,0.13 0.19,0.21l0 0c0.05,0.08 0.09,0.17 0.11,0.26l0 0c0.02,0.09 0.03,0.18 0.04,0.27 0.01,0.08 0.01,0.17 0,0.26 -0.01,0.08 -0.02,0.16 -0.03,0.22 -0.01,0.07 -0.02,0.12 -0.03,0.18zm-2.71 -0.77l0 0 0 0 0 0zm13.66 11.22l-0.24 1.14 -0.02 0.11 -0.1 0 -5.62 0 0 0c-0.33,0 -0.65,-0.02 -0.94,-0.06 -0.29,-0.04 -0.56,-0.09 -0.81,-0.17 -0.25,-0.07 -0.48,-0.16 -0.69,-0.26 -0.21,-0.1 -0.41,-0.21 -0.58,-0.34l0 0c-0.17,-0.12 -0.33,-0.25 -0.47,-0.39 -0.14,-0.15 -0.26,-0.3 -0.37,-0.45 -0.14,-0.21 -0.26,-0.43 -0.35,-0.65 -0.1,-0.23 -0.17,-0.46 -0.21,-0.71l0 0c-0.04,-0.25 -0.07,-0.5 -0.07,-0.76 -0.01,-0.26 0,-0.54 0.03,-0.82 0.03,-0.28 0.07,-0.57 0.12,-0.87 0.04,-0.3 0.1,-0.61 0.17,-0.92l0 -0.01c0.05,-0.22 0.1,-0.44 0.15,-0.67 0.05,-0.23 0.11,-0.46 0.18,-0.69 0.06,-0.24 0.13,-0.47 0.22,-0.7 0.08,-0.23 0.17,-0.46 0.27,-0.7 0.1,-0.23 0.21,-0.46 0.34,-0.68 0.13,-0.22 0.27,-0.44 0.42,-0.65 0.16,-0.22 0.33,-0.42 0.52,-0.62 0.19,-0.2 0.4,-0.38 0.62,-0.56l0.01 0c0.16,-0.14 0.35,-0.26 0.54,-0.38 0.2,-0.12 0.41,-0.24 0.64,-0.35l0 0c0.45,-0.22 0.98,-0.4 1.57,-0.53l0 -0.01c0.29,-0.06 0.61,-0.11 0.94,-0.15 0.33,-0.03 0.68,-0.05 1.05,-0.05l0 0 4.74 0 0.11 0 -0.02 0.1 -0.24 1.15 -0.03 0.11 -0.1 0 -4.9 0 0 0c-0.37,0 -0.72,0.03 -1.05,0.08 -0.33,0.06 -0.64,0.14 -0.93,0.25l-0.01 0c-0.29,0.11 -0.56,0.24 -0.81,0.39 -0.25,0.15 -0.48,0.32 -0.69,0.51 -0.21,0.19 -0.4,0.4 -0.57,0.62 -0.16,0.22 -0.3,0.46 -0.42,0.7l0 0c-0.05,0.09 -0.09,0.19 -0.13,0.3 -0.04,0.12 -0.09,0.24 -0.13,0.37l0 0c-0.05,0.14 -0.09,0.28 -0.13,0.42 -0.04,0.13 -0.09,0.28 -0.13,0.44l0 0c-0.07,0.25 -0.13,0.48 -0.19,0.7l0 0 -0.04 0.14c-0.06,0.26 -0.11,0.47 -0.14,0.64 -0.02,0.11 -0.05,0.22 -0.07,0.34 -0.02,0.11 -0.04,0.24 -0.06,0.38 -0.02,0.14 -0.03,0.28 -0.05,0.41 -0.01,0.14 -0.03,0.28 -0.04,0.42l0 0c-0.01,0.14 -0.02,0.28 -0.02,0.42l0 0c-0.01,0.13 -0.01,0.26 0,0.39l0 0c0,0.13 0.01,0.24 0.02,0.35 0.02,0.1 0.04,0.2 0.06,0.29l0 0c0.06,0.21 0.13,0.39 0.23,0.56 0.1,0.16 0.21,0.3 0.34,0.43l0 0c0.14,0.12 0.28,0.23 0.44,0.33 0.16,0.09 0.32,0.17 0.5,0.24 0.18,0.06 0.36,0.11 0.54,0.15 0.18,0.05 0.36,0.08 0.55,0.1 0.19,0.02 0.37,0.04 0.54,0.05 0.18,0.01 0.34,0.01 0.5,0.01l0 0 4.93 0 0.1 0 -0.02 0.11zm9.4 -10.54l-2.44 11.68 -0.02 0.11 -0.1 0 -1.38 0 -0.1 0 0.02 -0.11 2.44 -11.68 -5.19 0 -0.11 0 0.02 -0.11 0.24 -1.15 0.02 -0.1 0.11 0 11.97 0 0.1 0 -0.02 0.1 -0.24 1.15 -0.02 0.11 -0.1 0 -5.2 0zm18.07 0.09l-2.42 11.59 -0.02 0.11 -0.11 0 -1.37 0 -0.11 0 0.02 -0.11 2.35 -11.25 0 -0.01c0.01,-0.04 0.02,-0.07 0.03,-0.1 0,-0.02 0.01,-0.05 0.01,-0.08l-0.01 0 -0.04 0.02c-0.02,0.02 -0.05,0.04 -0.09,0.08 -0.04,0.04 -0.09,0.09 -0.14,0.15l-9.34 10.47 0 0c-0.09,0.11 -0.19,0.21 -0.28,0.29l0 0c-0.1,0.1 -0.19,0.18 -0.28,0.25 -0.09,0.07 -0.19,0.14 -0.28,0.19l-0.01 0c-0.09,0.06 -0.19,0.1 -0.29,0.14l0 0c-0.1,0.03 -0.2,0.06 -0.31,0.08 -0.11,0.02 -0.23,0.03 -0.35,0.03l0 -0.01c-0.21,0 -0.39,-0.03 -0.55,-0.09 -0.15,-0.06 -0.28,-0.16 -0.37,-0.29 -0.1,-0.12 -0.16,-0.28 -0.18,-0.46 -0.03,-0.17 -0.02,-0.38 0.03,-0.6l0 0 2.45 -11.75 0.02 -0.1 0.11 0 1.38 0 0.1 0 -0.02 0.1 -2.35 11.26 0 0.01c-0.01,0.02 -0.02,0.05 -0.02,0.08 0,0.03 0,0.06 0,0.09 0,0.01 0,0.02 0,0.02 0.01,0.01 0.01,0.01 0.02,0.01 0.01,0 0.02,0 0.03,-0.01l0 0c0.01,-0.01 0.03,-0.02 0.05,-0.04l0 0c0.03,-0.03 0.06,-0.06 0.09,-0.09 0.03,-0.04 0.06,-0.08 0.09,-0.12l0.01 -0.01 9.45 -10.62c0.11,-0.14 0.24,-0.25 0.37,-0.36 0.13,-0.1 0.27,-0.19 0.41,-0.26 0.14,-0.07 0.29,-0.12 0.45,-0.16 0.15,-0.03 0.31,-0.05 0.48,-0.05l0 0c0.16,0 0.29,0.02 0.41,0.05 0.12,0.04 0.22,0.09 0.3,0.15l0 0c0.08,0.06 0.14,0.13 0.19,0.21l0 0c0.05,0.08 0.09,0.17 0.11,0.26l0 0c0.02,0.09 0.04,0.18 0.04,0.27 0.01,0.08 0.01,0.17 0,0.26 -0.01,0.08 -0.02,0.16 -0.03,0.22 0,0.07 -0.02,0.12 -0.03,0.18zm-2.7 -0.77l0 0 0 0 0 0zm7.01 -0.58l-2.7 12.94 -0.03 0.11 -0.1 0 -1.38 0 -0.1 0 0.02 -0.11 2.7 -12.94 0.02 -0.1 0.11 0 1.37 0 0.11 0 -0.02 0.1zm1.09 6.91l5.61 5.95 0.18 0.19 -0.28 0 -1.96 0 -0.04 0 -0.03 -0.03 -4.83 -5.12 0 0c-0.15,-0.16 -0.27,-0.31 -0.36,-0.46 -0.1,-0.15 -0.16,-0.29 -0.2,-0.43 -0.04,-0.13 -0.06,-0.26 -0.07,-0.39l0 0c-0.01,-0.12 0,-0.24 0.03,-0.35 0.03,-0.11 0.07,-0.22 0.12,-0.33 0.06,-0.11 0.13,-0.22 0.21,-0.33l0 0c0.17,-0.22 0.35,-0.42 0.57,-0.61 0.1,-0.1 0.2,-0.18 0.3,-0.26 0.1,-0.09 0.2,-0.16 0.29,-0.23l0 0 6.31 -4.59 0.03 -0.02 0.04 0 1.88 0 0.28 0 -0.25 0.18 -7.38 5.45 -0.01 0c-0.04,0.03 -0.08,0.06 -0.13,0.1l0 0c-0.04,0.03 -0.09,0.07 -0.14,0.11 -0.05,0.04 -0.1,0.09 -0.15,0.13 -0.04,0.05 -0.09,0.1 -0.13,0.15l0 0c-0.04,0.04 -0.07,0.09 -0.1,0.13l0 0c-0.02,0.05 -0.04,0.09 -0.05,0.13 0,0.02 0,0.05 0,0.08 0,0.04 0.01,0.08 0.02,0.12 0.02,0.04 0.03,0.08 0.05,0.12 0.02,0.04 0.04,0.08 0.06,0.12l0 0c0.02,0.04 0.04,0.08 0.07,0.11 0.02,0.03 0.04,0.06 0.06,0.08l0 0zm9.47 -5.76l0.24 -1.15 0.02 -0.1 0.11 0 6.88 0c0.17,0 0.33,0.01 0.49,0.03 0.15,0.02 0.31,0.04 0.46,0.08 0.14,0.04 0.29,0.08 0.42,0.14 0.13,0.05 0.26,0.11 0.38,0.18 0.12,0.07 0.23,0.14 0.33,0.23 0.1,0.08 0.19,0.17 0.27,0.27l0 0c0.1,0.13 0.18,0.27 0.24,0.41 0.07,0.14 0.12,0.29 0.15,0.45 0.03,0.16 0.05,0.31 0.06,0.46l0 0c0.01,0.16 0.01,0.32 0,0.48 -0.02,0.15 -0.03,0.3 -0.05,0.45 -0.03,0.14 -0.05,0.28 -0.08,0.41l0 0 -1.62 7.74 0 0c-0.01,0.07 -0.02,0.13 -0.04,0.2 -0.02,0.07 -0.04,0.15 -0.07,0.23 -0.03,0.09 -0.06,0.17 -0.1,0.26 -0.04,0.08 -0.09,0.16 -0.14,0.25l0 0c-0.06,0.09 -0.13,0.18 -0.2,0.26l0 0c-0.08,0.08 -0.16,0.15 -0.25,0.22l-0.01 0.01c-0.09,0.06 -0.19,0.12 -0.28,0.16 -0.1,0.05 -0.2,0.09 -0.31,0.12 -0.1,0.02 -0.2,0.04 -0.3,0.06 -0.11,0.02 -0.21,0.03 -0.31,0.04l0 0 -0.28 0.01 0 0c-0.1,0 -0.18,0 -0.26,0l-5.4 0 0 0c-0.13,0 -0.27,0 -0.41,-0.01 -0.15,0 -0.29,-0.01 -0.43,-0.02 -0.15,-0.01 -0.29,-0.03 -0.44,-0.06l0 0c-0.14,-0.02 -0.28,-0.06 -0.42,-0.1l-0.01 0c-0.14,-0.04 -0.27,-0.1 -0.4,-0.17l0 0c-0.13,-0.07 -0.25,-0.15 -0.36,-0.25l-0.01 0c-0.12,-0.12 -0.23,-0.24 -0.32,-0.38 -0.09,-0.14 -0.16,-0.29 -0.22,-0.45l0 0c-0.05,-0.15 -0.09,-0.31 -0.12,-0.47 -0.03,-0.17 -0.05,-0.33 -0.06,-0.5 0,-0.17 0,-0.33 0,-0.49 0.01,-0.16 0.02,-0.31 0.04,-0.46 0.02,-0.15 0.04,-0.28 0.06,-0.41 0.02,-0.12 0.04,-0.24 0.07,-0.34l0 0c0.03,-0.18 0.08,-0.36 0.13,-0.55 0.05,-0.18 0.11,-0.36 0.18,-0.55 0.07,-0.19 0.15,-0.38 0.24,-0.56l0.01 0c0.09,-0.18 0.2,-0.36 0.32,-0.54l0 0c0.13,-0.17 0.27,-0.34 0.43,-0.49 0.17,-0.16 0.35,-0.31 0.55,-0.44l0 -0.01c0.15,-0.09 0.31,-0.18 0.47,-0.26 0.17,-0.07 0.33,-0.14 0.5,-0.19l0 0c0.17,-0.05 0.33,-0.09 0.49,-0.13 0.16,-0.03 0.33,-0.05 0.49,-0.07l0 0c0.16,-0.02 0.31,-0.03 0.46,-0.04 0.14,-0.01 0.28,-0.01 0.42,-0.01l0 0 5.99 0 0.38 -1.83c0.01,-0.07 0.02,-0.14 0.03,-0.22 0.01,-0.08 0.01,-0.16 0.01,-0.25l0 0c0,-0.18 -0.02,-0.36 -0.06,-0.54l0 0c-0.02,-0.09 -0.04,-0.17 -0.07,-0.25l0 0c-0.03,-0.07 -0.07,-0.14 -0.11,-0.21 -0.05,-0.07 -0.12,-0.14 -0.2,-0.2 -0.08,-0.07 -0.17,-0.13 -0.28,-0.18l0 0c-0.11,-0.05 -0.23,-0.09 -0.37,-0.12 -0.13,-0.03 -0.28,-0.04 -0.44,-0.04l0 0 -6.8 0 -0.11 0 0.02 -0.11zm6.72 10.06l0.99 -4.75 -6.3 0 0 0c-0.13,0 -0.26,0.01 -0.37,0.02 -0.12,0.02 -0.23,0.04 -0.33,0.08l0 0c-0.11,0.03 -0.2,0.06 -0.29,0.1l0 0c-0.09,0.04 -0.17,0.08 -0.24,0.13 -0.08,0.04 -0.15,0.09 -0.2,0.13l0 0c-0.06,0.05 -0.11,0.09 -0.15,0.13l0 0c-0.1,0.1 -0.19,0.21 -0.27,0.34l0 0c-0.08,0.13 -0.16,0.27 -0.22,0.43 -0.07,0.17 -0.13,0.36 -0.19,0.55 -0.06,0.2 -0.11,0.4 -0.15,0.62l0 0c-0.03,0.13 -0.05,0.26 -0.07,0.39 -0.03,0.14 -0.04,0.27 -0.06,0.41l0 0c-0.01,0.13 -0.02,0.27 -0.02,0.39 0,0.13 0,0.25 0.02,0.37 0.01,0.12 0.04,0.23 0.07,0.34l0 0c0.03,0.1 0.08,0.19 0.14,0.28l0 0c0.05,0.07 0.11,0.14 0.19,0.2 0.08,0.06 0.17,0.12 0.27,0.17l0 0c0.1,0.05 0.21,0.09 0.33,0.11 0.12,0.03 0.25,0.04 0.39,0.04l0 0 5.67 0 0.01 0c0.03,0 0.07,0 0.12,0 0.05,0 0.1,-0.01 0.15,-0.01l0.01 0c0.04,-0.01 0.09,-0.02 0.14,-0.04l0 0c0.05,-0.02 0.09,-0.04 0.14,-0.07 0.05,-0.03 0.08,-0.06 0.11,-0.09 0.02,-0.03 0.04,-0.05 0.05,-0.07 0.01,-0.03 0.03,-0.06 0.04,-0.09 0.01,-0.03 0.01,-0.07 0.02,-0.1l0 -0.01zm-243.42 -9.69l0.02 -0.04c0.34,-0.48 0.54,-0.38 0.61,0.04l2.12 10.28 -9.16 0 6.41 -10.28z"/>
  </g>
  <path class="fil2" d="M147.71 36.59c1.89,30 -4.09,59.31 -16.3,85.57 -4.25,9.15 -12.87,14.16 -22.82,13.36 -39.41,-3.16 -75.93,-21.46 -102.32,-50.3 -8.51,-9.29 -8.46,-21.85 0.75,-30.84 6.65,-6.5 13.54,-12.39 20.67,-17.71l-7.95 18.53 14.01 0.12 13.82 44.87 9.31 0 10.99 0c-1.12,-2.94 -1.76,-6.02 -1.84,-9.2 -0.52,-19.32 19.56,-35.28 46.02,-37.65 -18.82,3.82 -31.72,14.17 -30.77,26.34 0.62,8.11 7.28,15.41 17.39,20.51l0.09 0 19.01 -44.18 21.52 0.16 8.42 -19.58z"/>
  <path class="fil3" d="M145.72 19.09c0.95,5.74 1.6,11.46 1.97,17.17l-64.93 0 -20.18 44.86 -12.01 -44.86 -22.32 0c27.05,-20.02 57.59,-31.71 92.2,-36.08 11.08,-1.4 21.79,5.36 24.75,16.42 0.22,0.83 0.38,1.66 0.52,2.49z"/>
  <path class="fil4" d="M83.01 104.9c-3.67,-3.35 -6.47,-7.2 -8.14,-11.35l4.18 0c2.43,4.29 6.21,8.15 10.96,11.35l-7 0zm-8.91 -13.57c-0.5,-1.67 -0.82,-3.39 -0.94,-5.15 -0.1,-1.52 -0.06,-3.02 0.14,-4.49l2.68 0c-0.03,0.7 -0.01,1.4 0.03,2.1 0.19,2.6 0.84,5.13 1.92,7.54l-3.83 0zm-0.57 -11.07c0.46,-2.34 1.29,-4.59 2.45,-6.73l1.94 0c-0.99,2.15 -1.62,4.4 -1.85,6.73l-2.54 0zm2.77 -7.3c3.76,-6.52 10.61,-11.88 19.36,-15.18 -8.16,3.53 -14.36,8.85 -17.47,15.18l-1.89 0z"/>
 </g>
</svg>
