<?xml version="1.0" encoding="UTF-8"?>
<!DOCTYPE svg PUBLIC "-//W3C//DTD SVG 1.1//EN" "http://www.w3.org/Graphics/SVG/1.1/DTD/svg11.dtd">
<!-- Creator: CorelDRAW 2017 -->
<svg xmlns="http://www.w3.org/2000/svg" xml:space="preserve" width="99px" height="91px" version="1.1" style="shape-rendering:geometricPrecision; text-rendering:geometricPrecision; image-rendering:optimizeQuality; fill-rule:evenodd; clip-rule:evenodd"
viewBox="0 0 29.32 26.85"
 xmlns:xlink="http://www.w3.org/1999/xlink">
 <defs>
  <style type="text/css">
   <![CDATA[
    .fil2 {fill:#FEFEFE}
    .fil0 {fill:#9D9E9E}
    .fil1 {fill:#00A0E3}
   ]]>
  </style>
 </defs>
 <g id="Слой_x0020_1">
  <metadata id="CorelCorpID_0Corel-Layer"/>
  <path class="fil0" d="M29.25 7.24c0.37,5.94 -0.81,11.75 -3.23,16.95 -0.84,1.81 -2.55,2.8 -4.52,2.64 -7.8,-0.62 -15.03,-4.25 -20.26,-9.96 -1.68,-1.84 -1.67,-4.32 0.15,-6.1 1.32,-1.29 2.68,-2.46 4.09,-3.51l-1.57 3.67 2.77 0.02 2.74 8.89 1.84 0 2.18 0c-0.22,-0.59 -0.35,-1.2 -0.37,-1.82 -0.1,-3.83 3.88,-6.99 9.12,-7.46 -3.73,0.76 -6.28,2.81 -6.1,5.22 0.13,1.6 1.44,3.05 3.45,4.06l0.01 0 3.77 -8.75 4.26 0.03 1.67 -3.88z"/>
  <path class="fil1" d="M28.85 3.78c0.19,1.14 0.32,2.27 0.39,3.4l-12.85 0 -4 8.88 -2.38 -8.88 -4.42 0c5.36,-3.96 11.41,-6.28 18.26,-7.14 2.19,-0.28 4.31,1.06 4.9,3.25 0.04,0.16 0.08,0.33 0.1,0.49z"/>
  <path class="fil2" d="M16.44 20.77c-0.73,-0.66 -1.28,-1.42 -1.62,-2.25l0.83 0c0.48,0.85 1.23,1.62 2.17,2.25l-1.38 0zm-1.77 -2.69c-0.1,-0.33 -0.16,-0.67 -0.18,-1.02 -0.03,-0.3 -0.02,-0.59 0.02,-0.89l0.53 0c0,0.14 0,0.28 0.01,0.42 0.04,0.52 0.17,1.02 0.38,1.49l-0.76 0zm-0.11 -2.19c0.09,-0.46 0.26,-0.91 0.48,-1.33l0.39 0c-0.2,0.42 -0.32,0.87 -0.37,1.33l-0.5 0zm0.55 -1.44c0.74,-1.3 2.1,-2.36 3.83,-3.01 -1.61,0.7 -2.84,1.75 -3.46,3.01l-0.37 0z"/>
 </g>
</svg>
