<?xml version="1.0" encoding="iso-8859-1"?>
<!-- Generator: Adobe Illustrator 19.0.0, SVG Export Plug-In . SVG Version: 6.00 Build 0)  -->
<svg version="1.1" id="Capa_1" xmlns="http://www.w3.org/2000/svg" xmlns:xlink="http://www.w3.org/1999/xlink" x="0px" y="0px"
	 viewBox="0 0 469.333 469.333" style="enable-background:new 0 0 469.333 469.333;" xml:space="preserve">
<path style="fill:#303C42;" d="M426.667,149.333H384V96c0-2.833-1.125-5.542-3.125-7.542L295.542,3.125
	c-2-2-4.708-3.125-7.542-3.125H128c-23.531,0-42.667,19.135-42.667,42.667v106.667H42.667C19.135,149.333,0,168.469,0,192v106.667
	c0,23.531,19.135,42.667,42.667,42.667h52.133c-4.613,24.073-21.956,56.961-29.279,69.177c-3.031,5.052-1.385,11.604,3.656,14.635
	c1.719,1.031,3.615,1.521,5.479,1.521c3.625,0,7.156-1.844,9.156-5.177c1.23-2.059,27.448-46.167,32.581-80.156h21.77
	c-3.03,38.217-20.129,92.152-20.319,92.75c-1.802,5.615,1.292,11.615,6.906,13.406c1.083,0.344,2.177,0.51,3.25,0.51
	c4.521,0,8.708-2.885,10.156-7.417c0.822-2.552,18.487-58.259,21.397-99.25h21.576c-1.4,43.069-10.251,104.464-10.348,105.135
	c-0.854,5.823,3.188,11.24,9.021,12.083c0.521,0.083,1.031,0.115,1.542,0.115c5.219,0,9.771-3.823,10.542-9.135
	c0.414-2.789,9.236-63.983,10.59-108.198H224v117.333c0,5.896,4.771,10.667,10.667,10.667s10.667-4.771,10.667-10.667V341.333
	h21.525c1.354,44.215,10.176,105.409,10.59,108.198c0.771,5.313,5.323,9.135,10.542,9.135c0.51,0,1.021-0.031,1.542-0.115
	c5.833-0.844,9.875-6.26,9.021-12.083c-0.096-0.672-8.948-62.053-10.348-105.135h21.576c2.91,40.991,20.576,96.698,21.397,99.25
	c1.448,4.531,5.635,7.417,10.156,7.417c1.073,0,2.167-0.167,3.25-0.51c5.615-1.792,8.708-7.792,6.906-13.406
	c-0.19-0.598-17.292-54.505-20.32-92.75h21.771c5.133,33.99,31.35,78.098,32.581,80.156c2,3.333,5.531,5.177,9.156,5.177
	c1.865,0,3.76-0.49,5.479-1.521c5.042-3.031,6.688-9.583,3.656-14.635c-7.323-12.216-24.665-45.104-29.279-69.177h52.133
	c23.531,0,42.667-19.135,42.667-42.667V192C469.333,168.469,450.198,149.333,426.667,149.333z"/>
<path style="fill:#E6E6E6;" d="M298.667,36.417l48.917,48.917H320c-11.76,0-21.333-9.573-21.333-21.333V36.417z"/>
<path style="fill:#FFFFFF;" d="M106.667,42.667c0-11.76,9.573-21.333,21.333-21.333h149.333V64
	c0,23.531,19.135,42.667,42.667,42.667h42.667v42.667h-256V42.667z"/>
<linearGradient id="SVGID_1_" gradientUnits="userSpaceOnUse" x1="-56.0365" y1="617.1511" x2="-56.0365" y2="623.1511" gradientTransform="matrix(21.3333 0 0 -21.3333 1430.1112 13315.2227)">
	<stop  offset="0" style="stop-color:#000000;stop-opacity:0.05"/>
	<stop  offset="0.141" style="stop-color:#000000;stop-opacity:0.043"/>
	<stop  offset="1" style="stop-color:#000000;stop-opacity:0"/>
</linearGradient>
<path style="fill:url(#SVGID_1_);" d="M106.667,42.667c0-11.76,9.573-21.333,21.333-21.333h149.333V64
	c0,23.531,19.135,42.667,42.667,42.667h42.667v42.667h-256V42.667z"/>
<path style="fill:#455A64;" d="M448,298.667c0,11.76-9.573,21.333-21.333,21.333h-384c-11.76,0-21.333-9.573-21.333-21.333V192
	c0-11.76,9.573-21.333,21.333-21.333h384c11.76,0,21.333,9.573,21.333,21.333V298.667z"/>
<path style="opacity:0.1;enable-background:new    ;" d="M426.667,170.667v96c0,11.76-9.573,21.333-21.333,21.333h-384v10.667
	c0,11.76,9.573,21.333,21.333,21.333h384c11.76,0,21.333-9.573,21.333-21.333V192C448,180.24,438.427,170.667,426.667,170.667z"/>
<circle style="fill:#7CB342;" cx="405.333" cy="213.333" r="21.333"/>
<path style="opacity:0.1;enable-background:new    ;" d="M414.042,193.958c1.21,2.674,1.958,5.589,1.958,8.708
	c0,11.76-9.573,21.333-21.333,21.333c-3.12,0-6.034-0.749-8.708-1.958c3.349,7.406,10.734,12.625,19.375,12.625
	c11.76,0,21.333-9.573,21.333-21.333C426.667,204.693,421.448,197.307,414.042,193.958z"/>
<linearGradient id="SVGID_2_" gradientUnits="userSpaceOnUse" x1="-47.9681" y1="614.0768" x2="-45.3471" y2="611.4477" gradientTransform="matrix(21.3333 0 0 -21.3333 1430.1112 13315.2227)">
	<stop  offset="0" style="stop-color:#000000;stop-opacity:0.1"/>
	<stop  offset="1" style="stop-color:#000000;stop-opacity:0"/>
</linearGradient>
<path style="fill:url(#SVGID_2_);" d="M422.121,200.788c2.668,3.563,4.546,7.763,4.546,12.546c0,11.76-9.563,21.333-21.333,21.333
	c-5.108,0-9.613-2.044-13.289-5.047L392,229.667l56,56v-59L422.121,200.788z"/>
<path style="opacity:0.2;fill:#FFFFFF;enable-background:new    ;" d="M426.667,149.333H384V96c0-2.833-1.125-5.542-3.125-7.542
	L295.542,3.125c-2-2-4.708-3.125-7.542-3.125H128c-23.531,0-42.667,19.135-42.667,42.667v106.667H42.667
	C19.135,149.333,0,168.469,0,192v106.667c0,23.531,19.135,42.667,42.667,42.667h52.133c-4.613,24.073-21.956,56.961-29.279,69.177
	c-3.031,5.052-1.385,11.604,3.656,14.635c1.719,1.031,3.615,1.521,5.479,1.521c3.625,0,7.156-1.844,9.156-5.177
	c1.23-2.059,27.448-46.167,32.581-80.156h21.77c-3.03,38.217-20.129,92.152-20.319,92.75c-1.802,5.615,1.292,11.615,6.906,13.406
	c1.083,0.344,2.177,0.51,3.25,0.51c4.521,0,8.708-2.885,10.156-7.417c0.822-2.552,18.487-58.259,21.397-99.25h21.576
	c-1.4,43.069-10.251,104.464-10.348,105.135c-0.854,5.823,3.188,11.24,9.021,12.083c0.521,0.083,1.031,0.115,1.542,0.115
	c5.219,0,9.771-3.823,10.542-9.135c0.414-2.789,9.236-63.983,10.59-108.198H224v117.333c0,5.896,4.771,10.667,10.667,10.667
	s10.667-4.771,10.667-10.667V341.333h21.525c1.354,44.215,10.176,105.409,10.59,108.198c0.771,5.313,5.323,9.135,10.542,9.135
	c0.51,0,1.021-0.031,1.542-0.115c5.833-0.844,9.875-6.26,9.021-12.083c-0.096-0.672-8.948-62.053-10.348-105.135h21.576
	c2.91,40.991,20.576,96.698,21.397,99.25c1.448,4.531,5.635,7.417,10.156,7.417c1.073,0,2.167-0.167,3.25-0.51
	c5.615-1.792,8.708-7.792,6.906-13.406c-0.19-0.598-17.292-54.505-20.32-92.75h21.771c5.133,33.99,31.35,78.098,32.581,80.156
	c2,3.333,5.531,5.177,9.156,5.177c1.865,0,3.76-0.49,5.479-1.521c5.042-3.031,6.688-9.583,3.656-14.635
	c-7.323-12.216-24.665-45.104-29.279-69.177h52.133c23.531,0,42.667-19.135,42.667-42.667V192
	C469.333,168.469,450.198,149.333,426.667,149.333z"/>
<g>
</g>
<g>
</g>
<g>
</g>
<g>
</g>
<g>
</g>
<g>
</g>
<g>
</g>
<g>
</g>
<g>
</g>
<g>
</g>
<g>
</g>
<g>
</g>
<g>
</g>
<g>
</g>
<g>
</g>
</svg>
