<?xml version="1.0" encoding="iso-8859-1"?>
<!-- Generator: Adobe Illustrator 19.0.0, SVG Export Plug-In . SVG Version: 6.00 Build 0)  -->
<svg version="1.1" id="Capa_1" xmlns="http://www.w3.org/2000/svg" xmlns:xlink="http://www.w3.org/1999/xlink" x="0px" y="0px"
	 viewBox="0 0 512 512" style="enable-background:new 0 0 512 512;" xml:space="preserve">
<path style="fill:#303C42;" d="M474.066,452.125l16.392-172.208c0.146-1.344,0.208-2.677,0.208-4.031
	c0-22.729-18.479-41.219-41.208-41.219H322.137c-1.327-29.21-2.137-60.945-2.137-96c0-11.583,8.438-20.021,18.208-29.792
	C349.667,97.417,362.667,84.417,362.667,64c0-35.885-46.854-64-106.667-64S149.333,28.115,149.333,64
	c0,20.417,13,33.417,24.458,44.875c9.771,9.771,18.208,18.208,18.208,29.792c0,35.055-0.81,66.79-2.137,96H62.542
	c-22.729,0-41.208,18.49-41.208,41.219c0,1.354,0.063,2.688,0.188,3.906l16.413,172.333c-9.844,5.462-16.6,15.84-16.6,27.875
	c0,17.646,14.354,32,32,32h96c5.896,0,10.667-4.771,10.667-10.667c0-11.76,9.563-21.333,21.333-21.333
	c3.891,0,7.54,1.436,10.882,3.504C193.29,500.18,201.786,512,213.333,512h85.333c11.513,0,19.993-11.753,21.109-28.349
	c3.385-2.164,7.116-3.651,11.12-3.651c11.555,0,20.868,9.26,21.211,20.725c-0.013,0.21-0.107,0.395-0.107,0.608
	c0,5.896,4.771,10.667,10.667,10.667h96c17.646,0,32-14.354,32-32C490.667,467.965,483.91,457.589,474.066,452.125z
	 M298.667,138.667c0,25.603,0.436,59.444,2.035,96h-89.404c1.599-36.556,2.035-70.397,2.035-96c0-20.417-13-33.417-24.458-44.875
	c-9.771-9.771-18.208-18.208-18.208-29.792c0-20.177,35.042-42.667,85.333-42.667S341.333,43.823,341.333,64
	c0,11.583-8.438,20.021-18.208,29.792C311.667,105.25,298.667,118.25,298.667,138.667z"/>
<path style="fill:#546E7A;" d="M449.458,256c10.958,0,19.875,8.917,19.771,21.771L453.017,448h-90.35
	c-2.543,0-4.78,1.012-6.612,2.495C342.43,421.43,329.073,357.977,323.168,256H449.458z"/>
<path style="opacity:0.1;enable-background:new    ;" d="M449.458,256h-31.897c10.958,0,19.875,8.917,19.771,21.771L421.12,448
	h31.897l16.212-170.229C469.333,264.917,460.417,256,449.458,256z"/>
<path style="fill:#546E7A;" d="M62.542,256h126.29c-5.905,101.977-19.262,165.43-32.887,194.495
	c-1.832-1.483-4.069-2.495-6.612-2.495H58.987l-16.32-172.115C42.667,264.917,51.583,256,62.542,256z"/>
<path style="opacity:0.2;fill:#FFFFFF;enable-background:new    ;" d="M97.71,256H62.542c-10.958,0-19.875,8.917-19.875,19.885
	L58.987,448h35.168l-16.32-172.115C77.835,264.917,86.751,256,97.71,256z"/>
<g>
	<path style="fill:#454F55;" d="M129.083,490.667h-75.75c-5.875,0-10.667-4.781-10.667-10.667c0-5.885,4.792-10.667,10.667-10.667
		h75.75C128.375,472.625,128,476.208,128,480C128,483.792,128.375,487.375,129.083,490.667z"/>
	<path style="fill:#454F55;" d="M296.5,490.667h-81c-0.938-1.698-2.167-5.385-2.167-10.667s1.229-8.969,2.167-10.667h81
		c0.938,1.698,2.167,5.385,2.167,10.667S297.438,488.969,296.5,490.667z"/>
</g>
<path style="fill:#546E7A;" d="M316.309,455.922c-3.742-8.23-10.04-13.349-17.637-13.349h-85.333
	c-7.579,0-13.863,5.098-17.608,13.297c-4.592-1.676-9.438-2.63-14.392-2.63c-2.224,0-4.361,0.327-6.493,0.656
	c21.482-43.975,31.168-127.142,35.4-203.323h91.521c4.23,76.168,13.914,159.319,35.388,203.299
	c-2.057-0.306-4.112-0.633-6.253-0.633C325.874,453.24,320.959,454.203,316.309,455.922z"/>
<path style="fill:#454F55;" d="M458.667,490.667h-75.75C383.625,487.375,384,483.792,384,480c0-3.792-0.375-7.375-1.083-10.667
	h75.75c5.875,0,10.667,4.781,10.667,10.667C469.333,485.885,464.542,490.667,458.667,490.667z"/>
<linearGradient id="SVGID_1_" gradientUnits="userSpaceOnUse" x1="-39.6452" y1="631.9421" x2="-31.9067" y2="624.2017" gradientTransform="matrix(21.3333 0 0 -21.3333 996.3334 13791.667)">
	<stop  offset="0" style="stop-color:#000000;stop-opacity:0.1"/>
	<stop  offset="1" style="stop-color:#000000;stop-opacity:0"/>
</linearGradient>
<path style="fill:url(#SVGID_1_);" d="M181.34,453.24c4.954,0,9.799,0.954,14.392,2.63c3.745-8.199,10.029-13.297,17.608-13.297
	h85.333c7.596,0,13.895,5.118,17.637,13.349c4.65-1.719,9.565-2.682,14.592-2.682c2.141,0,4.195,0.327,6.253,0.633
	c-11.98-24.536-20.194-61.419-25.936-102.326L210.246,250.573c-4.232,76.181-13.918,159.348-35.4,203.323
	C176.979,453.566,179.116,453.24,181.34,453.24z"/>
<linearGradient id="SVGID_2_" gradientUnits="userSpaceOnUse" x1="-33.4485" y1="632.5905" x2="-25.9051" y2="625.0472" gradientTransform="matrix(21.3333 0 0 -21.3333 996.3334 13791.667)">
	<stop  offset="0" style="stop-color:#000000;stop-opacity:0.1"/>
	<stop  offset="1" style="stop-color:#000000;stop-opacity:0"/>
</linearGradient>
<path style="fill:url(#SVGID_2_);" d="M362.667,448h90.35l5.405-56.746L323.168,256c5.905,101.977,19.262,165.43,32.887,194.495
	C357.887,449.012,360.124,448,362.667,448z"/>
<linearGradient id="SVGID_3_" gradientUnits="userSpaceOnUse" x1="-44.2674" y1="637.0596" x2="-22.2405" y2="626.7886" gradientTransform="matrix(21.3333 0 0 -21.3333 996.3334 13791.667)">
	<stop  offset="0" style="stop-color:#FFFFFF;stop-opacity:0.2"/>
	<stop  offset="1" style="stop-color:#FFFFFF;stop-opacity:0"/>
</linearGradient>
<path style="fill:url(#SVGID_3_);" d="M474.066,452.125l16.392-172.208c0.146-1.344,0.208-2.677,0.208-4.031
	c0-22.729-18.479-41.219-41.208-41.219H322.137c-1.327-29.21-2.137-60.945-2.137-96c0-11.583,8.438-20.021,18.208-29.792
	C349.667,97.417,362.667,84.417,362.667,64c0-35.885-46.854-64-106.667-64S149.333,28.115,149.333,64
	c0,20.417,13,33.417,24.458,44.875c9.771,9.771,18.208,18.208,18.208,29.792c0,35.055-0.81,66.79-2.137,96H62.542
	c-22.729,0-41.208,18.49-41.208,41.219c0,1.354,0.063,2.688,0.188,3.906l16.413,172.333c-9.844,5.462-16.6,15.84-16.6,27.875
	c0,17.646,14.354,32,32,32h96c5.896,0,10.667-4.771,10.667-10.667c0-11.76,9.563-21.333,21.333-21.333
	c3.891,0,7.54,1.436,10.882,3.504C193.29,500.18,201.786,512,213.333,512h85.333c11.513,0,19.993-11.753,21.109-28.349
	c3.385-2.164,7.116-3.651,11.12-3.651c11.555,0,20.868,9.26,21.211,20.725c-0.013,0.21-0.107,0.395-0.107,0.608
	c0,5.896,4.771,10.667,10.667,10.667h96c17.646,0,32-14.354,32-32C490.667,467.965,483.91,457.589,474.066,452.125z
	 M298.667,138.667c0,25.603,0.436,59.444,2.035,96h-89.404c1.599-36.556,2.035-70.397,2.035-96c0-20.417-13-33.417-24.458-44.875
	c-9.771-9.771-18.208-18.208-18.208-29.792c0-20.177,35.042-42.667,85.333-42.667S341.333,43.823,341.333,64
	c0,11.583-8.438,20.021-18.208,29.792C311.667,105.25,298.667,118.25,298.667,138.667z"/>
<g>
</g>
<g>
</g>
<g>
</g>
<g>
</g>
<g>
</g>
<g>
</g>
<g>
</g>
<g>
</g>
<g>
</g>
<g>
</g>
<g>
</g>
<g>
</g>
<g>
</g>
<g>
</g>
<g>
</g>
</svg>
