<?xml version="1.0" encoding="iso-8859-1"?>
<!-- Generator: Adobe Illustrator 19.0.0, SVG Export Plug-In . SVG Version: 6.00 Build 0)  -->
<svg version="1.1" id="Capa_1" xmlns="http://www.w3.org/2000/svg" xmlns:xlink="http://www.w3.org/1999/xlink" x="0px" y="0px"
	 viewBox="0 0 508 508" style="enable-background:new 0 0 508 508;" xml:space="preserve">
<g>
	<g>
		<path d="M427.35,248.1L288.75,136c8.6-8.8,13.9-20.8,13.9-34c0-24.1-17.6-44.2-40.6-48V37h53.1l18.7-28l-13.5-9l-13.8,20.7h-105
			L187.65,0l-13.5,9l18.7,28h53.1v32.5h8.1c17.9,0,32.5,14.6,32.5,32.5c0,9.4-4,17.7-10.4,23.7l-22.2-18l-22.1,17.9
			c-6.4-5.9-10.4-14.3-10.4-23.7h-16.2c0,13.2,5.3,25.2,13.9,34L80.55,248.1H2.25V508h503.5V248.1H427.35z M253.95,128.6l6.4,5.1
			c-2.1,0.4-4.2,0.6-6.4,0.6c-2.2,0-4.3-0.2-6.4-0.6L253.95,128.6z M232.75,145.8c6.4,3.1,13.6,4.9,21.2,4.9
			c7.6,0,14.8-1.8,21.2-4.9l126.4,102.4h-295.2L232.75,145.8z M489.45,491.8h-471V264.4h471V491.8z"/>
	</g>
</g>
<g>
	<g>
		<rect x="245.85" y="305.1" width="16.2" height="146.1"/>
	</g>
</g>
<g>
	<g>
		<rect x="164.65" y="305.1" width="16.2" height="146.1"/>
	</g>
</g>
<g>
	<g>
		<rect x="83.45" y="305.1" width="16.2" height="146.1"/>
	</g>
</g>
<g>
	<g>
		<rect x="327.05" y="305.1" width="16.2" height="146.1"/>
	</g>
</g>
<g>
	<g>
		<rect x="408.25" y="305.1" width="16.2" height="146.1"/>
	</g>
</g>
<g>
</g>
<g>
</g>
<g>
</g>
<g>
</g>
<g>
</g>
<g>
</g>
<g>
</g>
<g>
</g>
<g>
</g>
<g>
</g>
<g>
</g>
<g>
</g>
<g>
</g>
<g>
</g>
<g>
</g>
</svg>
