<?xml version="1.0" encoding="iso-8859-1"?>
<!-- Generator: Adobe Illustrator 19.0.0, SVG Export Plug-In . SVG Version: 6.00 Build 0)  -->
<svg version="1.1" id="Capa_1" xmlns="http://www.w3.org/2000/svg" xmlns:xlink="http://www.w3.org/1999/xlink" x="0px" y="0px"
	 viewBox="0 0 512 512" style="enable-background:new 0 0 512 512;" xml:space="preserve">
<g>
	<g>
		<path d="M507.345,266.085l-35.685-58.182c-5.43-9.309-15.515-14.739-25.6-14.739h-95.418c-4.655,0-7.758,3.103-7.758,7.758
			v179.976H7.758c-2.327,0-3.879,0.776-5.43,2.327S0,387.103,0,388.655v71.37c0,4.655,3.103,7.758,7.758,7.758h41.891
			c0,0.776,0,0.776,0,1.552c0,23.273,19.394,42.667,42.667,42.667c23.273,0,42.667-19.394,42.667-42.667c0-0.776,0-0.776,0-1.552
			h17.067c0,0.776,0,0.776,0,1.552c0,23.273,19.394,42.667,42.667,42.667c23.273,0,42.667-19.394,42.667-42.667
			c0-0.776,0-0.776,0-1.552h152.824c0,0.776,0,0.776,0,1.552c0,23.273,19.394,42.667,42.667,42.667
			c23.273,0,42.667-19.394,42.667-42.667c0-0.776,0-0.776,0-1.552h28.703c4.655,0,7.758-3.103,7.758-7.758v-71.37V281.6
			C512,276.17,510.449,270.739,507.345,266.085z M93.091,496.485c-14.739,0-27.152-12.412-27.152-27.151
			c-0.776-14.739,11.636-27.152,27.152-27.152c14.739,0,27.151,12.412,27.151,27.152C120.242,484.073,107.83,496.485,93.091,496.485
			z M194.715,496.485c-14.739,0-27.151-12.412-27.151-27.151c0-14.739,12.412-27.152,27.151-27.152s27.152,12.412,27.152,27.152
			C222.642,484.073,210.23,496.485,194.715,496.485z M432.873,496.485c-14.739,0-27.152-12.412-27.152-27.151
			c0-14.739,12.412-27.152,27.152-27.152c14.739,0,27.151,12.412,27.151,27.152C460.8,484.073,448.388,496.485,432.873,496.485z
			 M496.485,452.267h-24.048c-6.982-14.739-21.721-25.6-39.564-25.6c-17.842,0-32.582,10.861-39.564,25.6h-159.03
			c-6.982-14.739-21.721-25.6-39.564-25.6c-17.842,0-32.582,10.861-39.564,25.6h-23.273c-6.206-14.739-21.721-25.6-38.788-25.6
			c-17.842,0-32.582,10.861-39.564,25.6H15.515v-55.855h480.97V452.267z M497.261,381.673H358.4V209.455h88.436
			c4.655,0,9.309,2.327,12.412,6.982l35.685,58.182c1.552,2.327,2.327,4.654,2.327,7.758V381.673z"/>
	</g>
</g>
<g>
	<g>
		<path d="M462.352,280.824l-23.273-40.339c-1.552-2.327-3.879-3.879-6.982-3.879h-47.321c-4.655,0-7.758,3.103-7.758,7.758v72.145
			c0,3.879,3.879,7.758,7.758,7.758h70.594c4.655,0,7.758-3.103,7.758-7.758v-31.806
			C463.127,283.152,463.127,282.376,462.352,280.824z M447.612,308.752h-55.079v-56.63h34.909l20.17,34.909V308.752z"/>
	</g>
</g>
<g>
	<g>
		<path d="M467.782,338.23h-83.006c-3.879,0-7.758,3.879-7.758,7.758c0,4.655,3.103,7.758,7.758,7.758h83.006
			c4.655,0,7.758-3.103,7.758-7.758S472.436,338.23,467.782,338.23z"/>
	</g>
</g>
<g>
	<g>
		<path d="M326.594,181.527L193.164,102.4c0.776-0.776,1.552-2.327,2.327-3.103c2.327-3.879,0.776-8.533-3.103-10.861
			s-8.533-0.776-10.861,3.103c-0.776,0.776-0.776,1.552-1.552,2.327l-14.739-8.533c-2.327-1.552-5.43-1.552-7.758,0l-13.188,7.758
			c-0.776-2.327-1.552-4.655-1.552-7.758c0-10.085,8.533-18.618,18.618-18.618c4.655,0,7.758-3.103,7.758-7.758v-9.309h34.909
			c4.655,0,7.758-3.103,7.758-7.758V7.758c0-4.655-3.103-7.758-7.758-7.758h-85.333c-4.655,0-7.758,3.103-7.758,7.758v34.133
			c0,4.655,3.103,7.758,7.758,7.758H153.6v3.879c-15.515,3.879-26.376,17.067-26.376,33.358c0,5.43,1.552,10.861,3.879,15.515
			L3.879,181.527C1.552,183.079,0,185.406,0,188.509v174.545c0,3.879,3.103,7.758,7.758,7.758h314.958
			c4.655,0,7.758-3.103,7.758-7.758V188.509C330.473,186.182,328.921,183.079,326.594,181.527z M126.448,34.133V15.515h69.042
			v18.618H126.448z M161.358,101.624l3.879,2.327c-1.552,0.776-3.103,0.776-4.655,0.776c-1.552,0-3.103,0-3.879-0.776
			L161.358,101.624z M141.188,114.036c11.636,7.758,25.6,8.533,40.339-0.776l113.261,67.491H34.909L141.188,114.036z
			 M50.424,355.297H15.515v-159.03h34.909V355.297z M103.176,355.297H65.939v-159.03h37.236V355.297z M156.703,355.297h-38.012
			v-159.03h38.012V355.297z M210.23,355.297h-38.012v-159.03h38.012V355.297z M263.758,355.297h-38.012v-159.03h38.012V355.297z
			 M315.733,355.297h-0.776h-35.685v-159.03h36.461V355.297z"/>
	</g>
</g>
<g>
</g>
<g>
</g>
<g>
</g>
<g>
</g>
<g>
</g>
<g>
</g>
<g>
</g>
<g>
</g>
<g>
</g>
<g>
</g>
<g>
</g>
<g>
</g>
<g>
</g>
<g>
</g>
<g>
</g>
</svg>
