<?xml version="1.0" encoding="iso-8859-1"?>
<!-- Generator: Adobe Illustrator 19.0.0, SVG Export Plug-In . SVG Version: 6.00 Build 0)  -->
<svg version="1.1" id="Layer_1" xmlns="http://www.w3.org/2000/svg" xmlns:xlink="http://www.w3.org/1999/xlink" x="0px" y="0px"
	 viewBox="0 0 512.002 512.002" style="enable-background:new 0 0 512.002 512.002;" xml:space="preserve">
<g>
	<g>
		<path d="M326.088,297.07c-13.007,0-23.589,10.584-23.589,23.592s10.581,23.592,23.589,23.592
			c13.008,0,23.589-10.584,23.589-23.592S339.096,297.07,326.088,297.07z M326.089,328.581c-4.364,0-7.916-3.553-7.916-7.919
			s3.551-7.919,7.916-7.919c4.364,0,7.916,3.553,7.916,7.919C334.004,325.029,330.454,328.581,326.089,328.581z"/>
	</g>
</g>
<g>
	<g>
		<path d="M379.175,297.07c-13.007,0-23.589,10.584-23.589,23.592s10.581,23.592,23.589,23.592
			c13.007,0,23.588-10.584,23.588-23.592S392.182,297.07,379.175,297.07z M379.175,328.581c-4.364,0-7.916-3.553-7.916-7.919
			s3.55-7.919,7.916-7.919c4.364,0,7.915,3.553,7.915,7.919S383.54,328.581,379.175,328.581z"/>
	</g>
</g>
<g>
	<g>
		<path d="M432.26,297.07c-13.007,0-23.589,10.584-23.589,23.592s10.583,23.592,23.589,23.592c13.007,0,23.589-10.584,23.589-23.592
			S445.267,297.07,432.26,297.07z M432.26,328.581c-4.364,0-7.916-3.553-7.916-7.919s3.551-7.919,7.916-7.919
			c4.365,0,7.916,3.553,7.916,7.919S436.626,328.581,432.26,328.581z"/>
	</g>
</g>
<g>
	<g>
		<path d="M73.458,362.265c-1.452-1.463-3.479-2.299-5.538-2.299c-2.069,0-4.085,0.836-5.538,2.299
			c-1.463,1.452-2.299,3.479-2.299,5.538s0.836,4.086,2.299,5.538c1.452,1.463,3.469,2.299,5.538,2.299
			c2.058,0,4.086-0.836,5.538-2.299c1.463-1.452,2.299-3.479,2.299-5.538S74.921,363.717,73.458,362.265z"/>
	</g>
</g>
<g>
	<g>
		<path d="M123.612,362.265c-1.452-1.463-3.479-2.299-5.538-2.299s-4.086,0.836-5.538,2.299c-1.463,1.452-2.299,3.479-2.299,5.538
			s0.836,4.086,2.299,5.538c1.452,1.463,3.479,2.299,5.538,2.299s4.085-0.836,5.538-2.299c1.463-1.452,2.299-3.479,2.299-5.538
			S125.075,363.717,123.612,362.265z"/>
	</g>
</g>
<g>
	<g>
		<path d="M173.766,362.265c-1.452-1.463-3.479-2.299-5.538-2.299s-4.085,0.836-5.538,2.299c-1.463,1.452-2.299,3.479-2.299,5.538
			s0.836,4.086,2.299,5.538c1.452,1.463,3.479,2.299,5.538,2.299s4.085-0.836,5.538-2.299c1.463-1.452,2.299-3.479,2.299-5.538
			S175.229,363.717,173.766,362.265z"/>
	</g>
</g>
<g>
	<g>
		<path d="M223.92,362.265c-1.452-1.463-3.479-2.299-5.538-2.299c-2.069,0-4.085,0.836-5.538,2.299
			c-1.463,1.452-2.299,3.479-2.299,5.538s0.836,4.086,2.299,5.538c1.452,1.463,3.469,2.299,5.538,2.299
			c2.058,0,4.086-0.836,5.538-2.299c1.463-1.452,2.299-3.479,2.299-5.538S225.383,363.717,223.92,362.265z"/>
	</g>
</g>
<g>
	<g>
		<path d="M274.074,362.265c-1.452-1.463-3.479-2.299-5.538-2.299c-2.058,0-4.085,0.836-5.538,2.299
			c-1.463,1.452-2.299,3.479-2.299,5.538c0,2.069,0.836,4.086,2.299,5.538c1.452,1.463,3.479,2.299,5.538,2.299
			c2.069,0,4.086-0.836,5.538-2.299c1.463-1.452,2.299-3.469,2.299-5.538C276.373,365.744,275.537,363.717,274.074,362.265z"/>
	</g>
</g>
<g>
	<g>
		<path d="M324.228,362.265c-1.452-1.463-3.469-2.299-5.538-2.299s-4.085,0.836-5.538,2.299c-1.463,1.452-2.299,3.469-2.299,5.538
			s0.836,4.085,2.299,5.538c1.452,1.463,3.479,2.299,5.538,2.299c2.069,0,4.086-0.836,5.538-2.299
			c1.463-1.452,2.299-3.469,2.299-5.538C326.527,365.734,325.691,363.717,324.228,362.265z"/>
	</g>
</g>
<g>
	<g>
		<path d="M374.382,362.265c-1.452-1.463-3.479-2.299-5.538-2.299c-2.058,0-4.085,0.836-5.538,2.299
			c-1.463,1.452-2.299,3.479-2.299,5.538c0,2.069,0.836,4.086,2.299,5.538c1.452,1.463,3.479,2.299,5.538,2.299
			c2.069,0,4.086-0.836,5.538-2.299c1.463-1.452,2.299-3.469,2.299-5.538C376.681,365.744,375.845,363.717,374.382,362.265z"/>
	</g>
</g>
<g>
	<g>
		<path d="M424.536,362.265c-1.452-1.463-3.469-2.299-5.538-2.299c-2.058,0-4.085,0.836-5.538,2.299
			c-1.463,1.452-2.299,3.479-2.299,5.538s0.836,4.086,2.299,5.538c1.452,1.463,3.479,2.299,5.538,2.299s4.085-0.836,5.538-2.299
			c1.463-1.452,2.299-3.479,2.299-5.538S425.999,363.717,424.536,362.265z"/>
	</g>
</g>
<g>
	<g>
		<path d="M421.782,460.807c-2.837-3.268-7.786-3.619-11.055-0.782c-9.081,7.883-20.707,12.223-32.738,12.223
			c-14.732,0-28.649-6.467-38.186-17.742c-1.489-1.761-3.678-2.776-5.984-2.776s-4.494,1.016-5.984,2.776
			c-9.537,11.275-23.454,17.742-38.186,17.742c-12.454,0-24.388-4.614-33.605-12.994c-3.203-2.912-8.158-2.677-11.07,0.527
			c-2.912,3.203-2.676,8.158,0.527,11.07c12.107,11.008,27.786,17.07,44.148,17.07c16.464,0,32.148-6.142,44.172-17.088
			c12.024,10.946,27.709,17.088,44.169,17.088c15.804,0,31.079-5.703,43.011-16.06C424.269,469.025,424.619,464.076,421.782,460.807
			z"/>
	</g>
</g>
<g>
	<g>
		<path d="M162.203,453.584c-3.304-2.794-8.249-2.381-11.044,0.923c-9.537,11.275-23.454,17.742-38.186,17.742
			c-14.732,0-28.649-6.467-38.186-17.742c-2.795-3.304-7.738-3.719-11.044-0.923c-3.305,2.795-3.718,7.739-0.923,11.044
			c12.521,14.804,30.801,23.293,50.153,23.293c19.352,0,37.632-8.49,50.153-23.293C165.921,461.323,165.507,456.379,162.203,453.584
			z"/>
	</g>
</g>
<g>
	<g>
		<path d="M510.33,276.6c-2.039-3.188-5.561-5.015-9.666-5.015h-7.412v-32.533c0-7.202-5.859-13.061-13.061-13.061h-19.54v-37.43
			c0-7.202-5.859-13.061-13.061-13.061H278.019v-30.378c0-7.549-6.142-13.691-13.691-13.691h-2l-9.729-16.855
			c5.462-3.905,9.039-10.284,9.039-17.495c0-9.094-5.68-16.87-13.671-20.01V56.513l5.163-0.765
			c4.992-0.739,8.756-5.101,8.756-10.148v-5.283c0-5.473-4.453-9.926-9.926-9.926H140.098c-2.292-3.775-6.43-6.311-11.16-6.311
			H75.236c-7.202,0-13.061,5.86-13.061,13.061v34.845c0,7.202,5.859,13.061,13.061,13.061h6.35v172.338H72.09
			c-7.202,0-13.061,5.859-13.061,13.061v4.985H41.187c-7.201,0-13.061,5.859-13.061,13.061v29.845H11.644
			c-3.949,0-7.445,1.733-9.593,4.755c-2.148,3.023-2.635,6.895-1.336,10.625l31.387,90.104c-2.454,0.37-4.948,0.574-7.468,0.574
			c-4.328,0-7.837,3.509-7.837,7.837s3.509,7.837,7.837,7.837c16.46,0,32.146-6.143,44.169-17.088
			c12.024,10.945,27.71,17.088,44.169,17.088c16.46,0,32.146-6.143,44.169-17.088c12.024,10.945,27.71,17.088,44.17,17.088
			c16.46,0,32.146-6.143,44.17-17.088c12.024,10.945,27.709,17.088,44.169,17.088c16.46,0,32.146-6.143,44.17-17.088
			c12.024,10.945,27.71,17.088,44.169,17.088c16.46,0,32.146-6.143,44.169-17.088c12.024,10.945,27.71,17.088,44.169,17.088
			c4.328,0,7.837-3.509,7.837-7.837s-3.509-7.837-7.837-7.837c-6.012,0-11.883-1.094-17.382-3.136l27.072-58.525
			c1.817-3.929,0.106-8.586-3.822-10.403c-3.93-1.818-8.586-0.106-10.403,3.822l-11.828,25.57H138.972
			c-4.328,0-7.837,3.509-7.837,7.837s3.509,7.837,7.837,7.837h303.744l-7.463,16.133c-2.563-2.04-4.954-4.329-7.11-6.878
			c-1.489-1.761-3.678-2.776-5.984-2.776s-4.495,1.016-5.984,2.776c-9.536,11.276-23.454,17.743-38.186,17.743
			s-28.649-6.467-38.186-17.743c-1.489-1.761-3.678-2.776-5.984-2.776s-4.495,1.016-5.984,2.776
			c-9.536,11.276-23.454,17.743-38.186,17.743s-28.649-6.467-38.186-17.743c-1.489-1.761-3.678-2.776-5.984-2.776
			c-2.306,0-4.495,1.016-5.984,2.776c-9.536,11.276-23.454,17.743-38.186,17.743c-14.732,0-28.649-6.467-38.186-17.743
			c-1.489-1.761-3.678-2.776-5.984-2.776s-4.495,1.016-5.983,2.776c-9.537,11.276-23.454,17.743-38.186,17.743
			c-14.732,0-28.651-6.467-38.186-17.743c-1.489-1.761-3.678-2.776-5.984-2.776c-2.306,0-4.495,1.016-5.984,2.776
			c-4.43,5.238-9.813,9.423-15.777,12.418l-7.549-21.673h61.862c4.328,0,7.837-3.509,7.837-7.837s-3.509-7.837-7.837-7.837H34.029
			l-16.621-47.715h251.566c5.951,0,12.083-3.92,14.578-9.319l17.135-37.04c0.143-0.144,0.422-0.323,0.612-0.392h192.364
			l-17.853,38.595c-1.817,3.929-0.106,8.586,3.823,10.403c3.928,1.817,8.585,0.106,10.403-3.823l20.792-44.95
			C512.552,283.755,512.37,279.789,510.33,276.6z M59.028,318.336H43.799v-27.233h15.229V318.336z M366.001,191.173h78.975v34.817
			h-78.975V191.173z M262.345,147.104v40.907h-44.429v-40.907H262.345z M236.03,131.431l4.1-7.103l4.1,7.103H236.03z
			 M240.131,91.243c3.217,0,5.835,2.618,5.835,5.838c0,3.219-2.617,5.839-5.835,5.839s-5.836-2.62-5.836-5.839
			C234.296,93.862,236.914,91.243,240.131,91.243z M141.999,46.064h69.562l-69.562,10.309V46.064z M77.848,69.373v-29.62h48.478
			v29.62H77.848z M97.258,163.529v-8.359h9.657v8.359H97.258z M106.915,179.202v7.314h-9.657v-7.314H106.915z M97.258,139.497
			v-8.359h9.657v8.359H97.258z M97.258,115.465v-8.359h9.657v8.359H97.258z M97.258,91.433v-6.386h9.656v6.386H97.258z
			 M129.472,318.335h-54.77v-45.279h54.77V318.335z M161.425,318.335h-16.28v-27.232h16.28V318.335z M162.082,239.05v36.381h-16.937
			v-4.985c0-7.202-5.859-13.061-13.061-13.061h-9.496v-9.741c0-4.328-3.509-7.837-7.837-7.837c-4.328,0-7.837,3.509-7.837,7.837
			v9.741h-9.657v-55.193h9.656v14.106c0,4.328,3.509,7.837,7.837,7.837s7.837-3.509,7.837-7.837V85.047h6.351
			c7.123,0,12.923-5.734,13.049-12.828l90.308-13.384v18.234c-7.991,3.142-13.672,10.917-13.672,20.01
			c0,7.212,3.579,13.591,9.04,17.495l-9.729,16.855h-2c-7.549,0-13.691,6.142-13.691,13.691v44.871
			c0,7.549,6.142,13.691,13.691,13.691h11.351v22.306h-52.141C167.941,225.989,162.082,231.848,162.082,239.05z M285.126,276.482
			h-22.858c-4.328,0-7.837,3.509-7.837,7.837s3.509,7.837,7.837,7.837h19.072l-11.93,25.79c-0.143,0.144-0.422,0.323-0.612,0.392
			h-91.699v-26.182h52.779c4.328,0,7.837-3.509,7.837-7.837s-3.509-7.837-7.837-7.837h-52.122v-34.817h107.37V276.482z
			 M242.958,225.99v-22.306h21.37c7.151,0.001,13.031-5.513,13.631-12.511h72.369v34.817H242.958z M408.169,271.584H301.123
			c-0.108,0-0.215,0.01-0.324,0.014v-29.935h107.37V271.584z M477.578,271.584h-53.736v-29.921h53.736V271.584z"/>
	</g>
</g>
<g>
</g>
<g>
</g>
<g>
</g>
<g>
</g>
<g>
</g>
<g>
</g>
<g>
</g>
<g>
</g>
<g>
</g>
<g>
</g>
<g>
</g>
<g>
</g>
<g>
</g>
<g>
</g>
<g>
</g>
</svg>
