<?xml version="1.0" encoding="iso-8859-1"?>
<!-- Generator: Adobe Illustrator 19.0.0, SVG Export Plug-In . SVG Version: 6.00 Build 0)  -->
<svg version="1.1" id="Capa_1" xmlns="http://www.w3.org/2000/svg" xmlns:xlink="http://www.w3.org/1999/xlink" x="0px" y="0px"
	 viewBox="0 0 469.334 469.334" style="enable-background:new 0 0 469.334 469.334;" xml:space="preserve">
<path style="fill:#303C42;" d="M467.073,366.761c-0.313-0.396-30.948-39.802-40.906-71.302c-2.365-7.5-5.313-18.063-8.698-30.156
	c-16.198-57.917-30.927-107.177-47.26-123.51c-17.697-17.697-86.094-29.505-114.208-33.71V42.667C256,19.136,236.865,0,213.333,0
	H42.667C19.135,0,0,19.136,0,42.667v298.667C0,364.865,19.135,384,42.667,384h170.667c4.608,0,9.057-1.023,13.411-2.522
	c9.288,8.617,19.809,15.174,30.839,21.855c21.74,13.188,44.229,26.823,63.854,60.688c1.906,3.292,5.427,5.313,9.229,5.313
	c101.5,0,137.604-91.26,137.958-92.188C469.969,373.656,469.375,369.709,467.073,366.761z M293.479,240.636
	c-1.938,4.417-4.052,9.24-7.01,12.99c-10.676-7.609-21.514-23.741-30.469-40.88v-15.658l33.802,13.527
	c1.656,5.792,4.458,15.167,7.271,22.479C295.781,235.386,294.667,237.927,293.479,240.636z"/>
<path style="fill:#0288D1;" d="M21.333,341.334V42.667c0-11.76,9.573-21.333,21.333-21.333h170.667
	c11.76,0,21.333,9.573,21.333,21.333v127.898c-13.313-19.535-35.758-42.634-56.104-46.773c-10.208-2.125-19.229,0.448-26.104,7.333
	c-25.688,25.688-10.979,69.344,9.427,98.927c16.333,23.677,28.448,51.656,30.167,69.625c0.281,2.99,0.406,5.823,0.542,8.615
	c0.664,14.243,1.563,29.073,18.513,54.375H42.667C30.906,362.667,21.333,353.094,21.333,341.334z"/>
<path style="fill:#FFE082;" d="M336.625,447.875c-21.698-34.719-47.25-50.208-67.979-62.781
	c-14.542-8.813-27.094-16.427-36.021-28.698c-17.563-24.156-18.073-35.156-18.719-49.094c-0.146-3.135-0.302-6.313-0.625-9.646
	c-2.052-21.604-15.333-52.896-33.833-79.708c-16.448-23.844-27.177-56.458-11.906-71.74c1.24-1.24,2.896-2.281,6.76-1.521
	c16.719,3.406,43.688,34.49,50.469,51.302c8.167,20.219,30.271,68.542,59.135,80.531c3.281,1.354,7.042,0.979,10.01-0.979
	c10.667-7.104,15.531-18.219,19.094-26.333c1.031-2.333,2.427-5.542,2.396-5.771c4.365-3.021,5.844-8.792,3.469-13.542
	c-3.25-6.49-8.25-23.854-9.906-30c-0.875-3.24-3.219-5.885-6.344-7.135L256,174.111v-44.413c38.766,6,89.074,17.135,99.125,27.177
	c13.708,13.708,31.292,76.594,41.802,114.167c3.458,12.375,6.479,23.177,8.906,30.833c8.938,28.333,31.375,60.458,40.51,72.833
	C437.938,391.75,406.177,444.979,336.625,447.875z"/>
<path style="opacity:0.1;enable-background:new    ;" d="M337.994,386.729c-25.333-20-43.438-28.907-76-60.667
	c-29.48-28.753-46.324-106.108-100.586-148.456c2.639,13.417,9.525,28.068,18.034,40.404c18.5,26.813,31.781,58.104,33.833,79.708
	c0.323,3.333,0.479,6.51,0.625,9.646c0.646,13.938,1.156,24.938,18.719,49.094c8.927,12.271,21.479,19.885,36.021,28.698
	c20.729,12.573,46.281,28.063,67.979,62.781c20.121-0.837,36.742-6.13,50.887-13.298
	C371.243,415.724,352.928,398.52,337.994,386.729z"/>
<g>
	<path style="fill:#303C42;" d="M96,42.667c-5.896,0-10.667,4.771-10.667,10.667v192C85.333,251.229,90.104,256,96,256
		c5.896,0,10.667-4.771,10.667-10.667v-192C106.667,47.438,101.896,42.667,96,42.667z"/>
	<path style="fill:#303C42;" d="M53.333,42.667c-5.896,0-10.667,4.771-10.667,10.667V160c0,5.896,4.771,10.667,10.667,10.667
		S64,165.896,64,160V53.334C64,47.438,59.229,42.667,53.333,42.667z"/>
</g>
<path style="opacity:0.1;enable-background:new    ;" d="M277.333,133.365c-7.273-1.344-14.495-2.608-21.333-3.667v44.413
	l21.333,8.534V133.365z"/>
<linearGradient id="SVGID_1_" gradientUnits="userSpaceOnUse" x1="-68.8156" y1="618.7792" x2="-44.5932" y2="607.483" gradientTransform="matrix(21.3333 0 0 -21.3333 1430.1062 13315.2285)">
	<stop  offset="0" style="stop-color:#FFFFFF;stop-opacity:0.2"/>
	<stop  offset="1" style="stop-color:#FFFFFF;stop-opacity:0"/>
</linearGradient>
<path style="fill:url(#SVGID_1_);" d="M467.073,366.761c-0.313-0.396-30.948-39.802-40.906-71.302
	c-2.365-7.5-5.313-18.063-8.698-30.156c-16.198-57.917-30.927-107.177-47.26-123.51c-17.697-17.697-86.094-29.505-114.208-33.71
	V42.667C256,19.136,236.865,0,213.333,0H42.667C19.135,0,0,19.136,0,42.667v298.667C0,364.865,19.135,384,42.667,384h170.667
	c4.608,0,9.057-1.023,13.411-2.522c9.288,8.617,19.809,15.174,30.839,21.855c21.74,13.188,44.229,26.823,63.854,60.688
	c1.906,3.292,5.427,5.313,9.229,5.313c101.5,0,137.604-91.26,137.958-92.188C469.969,373.656,469.375,369.709,467.073,366.761z
	 M293.479,240.636c-1.938,4.417-4.052,9.24-7.01,12.99c-10.676-7.609-21.514-23.741-30.469-40.88v-15.658l33.802,13.527
	c1.656,5.792,4.458,15.167,7.271,22.479C295.781,235.386,294.667,237.927,293.479,240.636z"/>
<g>
</g>
<g>
</g>
<g>
</g>
<g>
</g>
<g>
</g>
<g>
</g>
<g>
</g>
<g>
</g>
<g>
</g>
<g>
</g>
<g>
</g>
<g>
</g>
<g>
</g>
<g>
</g>
<g>
</g>
</svg>
