<?xml version="1.0" encoding="iso-8859-1"?>
<!-- Generator: Adobe Illustrator 19.0.0, SVG Export Plug-In . SVG Version: 6.00 Build 0)  -->
<svg version="1.1" id="Capa_1" xmlns="http://www.w3.org/2000/svg" xmlns:xlink="http://www.w3.org/1999/xlink" x="0px" y="0px"
	 viewBox="0 0 496 496" style="enable-background:new 0 0 496 496;" xml:space="preserve">
<g>
	<g>
		<g>
			<path d="M496,344h-16c0,22.056-17.944,40-40,40c-22.056,0-40-17.944-40-40h-16c0,22.056-17.944,40-40,40
				c-22.056,0-40-17.944-40-40h-16c0,22.056-17.944,40-40,40c-22.056,0-40-17.944-40-40h-16c0,22.056-17.944,40-40,40
				c-22.056,0-40-17.944-40-40H96c0,22.056-17.944,40-40,40c-22.056,0-40-17.944-40-40H0c0,27.904,20.536,51.032,47.264,55.248
				C43.84,417.848,27.576,432,8,432H0v8c0,30.88,25.128,56,56,56c20.344,0,38.192-10.904,48-27.176
				C113.808,485.096,131.656,496,152,496s38.192-10.904,48-27.176C209.808,485.096,227.656,496,248,496s38.192-10.904,48-27.176
				C305.808,485.096,323.656,496,344,496s38.192-10.904,48-27.176C401.808,485.096,419.656,496,440,496c30.872,0,56-25.12,56-56v-8
				h-8c-19.576,0-35.84-14.152-39.264-32.752C475.464,395.032,496,371.904,496,344z M56,480c-19.552,0-35.872-14.104-39.328-32.672
				c16.68-2.6,30.944-12.592,39.328-26.504c8.384,13.912,22.648,23.904,39.328,26.504C91.872,465.896,75.552,480,56,480z
				 M64.736,399.248c16.64-2.624,30.896-12.536,39.264-26.432c8.368,13.888,22.624,23.808,39.264,26.432
				C139.84,417.848,123.568,432,104,432S68.16,417.848,64.736,399.248z M152,480c-19.552,0-35.872-14.104-39.328-32.672
				c16.68-2.6,30.944-12.592,39.328-26.504c8.384,13.912,22.648,23.904,39.328,26.504C187.872,465.896,171.552,480,152,480z
				 M160.736,399.248c16.64-2.624,30.896-12.536,39.264-26.432c8.368,13.888,22.624,23.808,39.264,26.432
				C235.84,417.848,219.568,432,200,432S164.16,417.848,160.736,399.248z M248,480c-19.552,0-35.872-14.104-39.328-32.672
				c16.68-2.6,30.944-12.592,39.328-26.504c8.384,13.912,22.648,23.904,39.328,26.504C283.872,465.896,267.552,480,248,480z
				 M256.736,399.248c16.64-2.624,30.896-12.536,39.264-26.432c8.368,13.888,22.624,23.808,39.264,26.432
				C331.84,417.848,315.568,432,296,432S260.16,417.848,256.736,399.248z M344,480c-19.552,0-35.872-14.104-39.328-32.672
				c16.68-2.6,30.944-12.592,39.328-26.504c8.384,13.912,22.648,23.904,39.328,26.504C379.872,465.896,363.552,480,344,480z
				 M352.736,399.248c16.64-2.624,30.896-12.536,39.264-26.432c8.368,13.888,22.624,23.808,39.264,26.432
				C427.84,417.848,411.568,432,392,432S356.16,417.848,352.736,399.248z M479.328,447.328C475.872,465.896,459.552,480,440,480
				s-35.872-14.104-39.328-32.672c16.68-2.6,30.944-12.592,39.328-26.504C448.384,434.736,462.648,444.728,479.328,447.328z"/>
			<path d="M360,174.864V128h-64v38.328l-16-2.136V128h-64v36.2l-16,2.136V128h-64v46.864L0,193v7c0,22.008,3.152,43.864,9.36,64.96
				l30.968,105.304l15.344-4.512l-30.28-102.96L248,232.072l222.608,30.704l-30.28,102.96l15.344,4.512L486.64,264.96
				c6.208-21.096,9.36-42.952,9.36-64.96v-7L360,174.864z M312,168v-24h32v28.728L308.528,168H312z M232,144h32v18.064l-16-2.136
				l-16,2.136V144z M152,144h32v24h3.472L152,172.728V144z M474.728,247.2l-225.64-31.12L248,215.928L21.264,247.2
				c-2.984-13.2-4.712-26.664-5.152-40.208L248,176.072l231.88,30.92C479.44,220.536,477.712,234,474.728,247.2z"/>
			<path d="M93.48,118.568c0.688-3.808,4.008-6.568,7.872-6.568h293.296c3.864,0,7.176,2.76,7.864,6.568l9.24,50.864l15.752-2.856
				l-9.248-50.864c-1.848-10.184-9.96-17.84-19.936-19.384l-11.536-46.144C384.12,39.48,374.536,32,363.504,32H352v-8
				c0-13.232-10.768-24-24-24H168c-13.232,0-24,10.768-24,24v8h-11.504c-11.032,0-20.608,7.48-23.28,18.176L97.68,96.32
				c-9.968,1.544-18.088,9.192-19.944,19.384l-9.24,50.864l15.752,2.856L93.48,118.568z M176,96h-16V80h16V96z M208,96h-16V80h16V96
				z M240,96h-16V80h16V96z M272,96h-16V80h16V96z M304,96h-16V80h16V96z M336,96h-16V80h16V96z M160,24c0-4.408,3.584-8,8-8h160
				c4.416,0,8,3.592,8,8v8H160V24z M124.728,54.064c0.896-3.568,4.088-6.064,7.768-6.064h231.016c3.68,0,6.864,2.496,7.768,6.064
				L381.76,96H352V64H144v32h-29.76L124.728,54.064z"/>
		</g>
	</g>
</g>
<g>
</g>
<g>
</g>
<g>
</g>
<g>
</g>
<g>
</g>
<g>
</g>
<g>
</g>
<g>
</g>
<g>
</g>
<g>
</g>
<g>
</g>
<g>
</g>
<g>
</g>
<g>
</g>
<g>
</g>
</svg>
