<?xml version="1.0" encoding="iso-8859-1"?>
<!-- Generator: Adobe Illustrator 19.0.0, SVG Export Plug-In . SVG Version: 6.00 Build 0)  -->
<svg version="1.1" id="Capa_1" xmlns="http://www.w3.org/2000/svg" xmlns:xlink="http://www.w3.org/1999/xlink" x="0px" y="0px"
	 viewBox="0 0 507.901 507.901" style="enable-background:new 0 0 507.901 507.901;" xml:space="preserve">
<g>
	<g>
		<path d="M475.2,250.6V69.5h-85.3L254,205.4v44.4h-16.4c-22.6,0-41,18.4-41,41v8.2h-16.4V94.1h-16.4v311.4H0v16.4h180.3v-65.5h16.4
			v8.2c0,22.6,18.4,41,41,41h9c3.8,18.7,20.4,32.8,40.1,32.8c19.7,0,36.3-14.1,40.1-32.8h50.8c3.8,18.7,20.4,32.8,40.1,32.8
			s36.3-14.1,40.1-32.8h9c22.6,0,41-18.4,41-41v-73.7C508,271,493.9,254.4,475.2,250.6z M196.7,339.9h-16.4v-24.6h16.4V339.9z
			 M270.4,212.2L396.7,85.9h62.2v163.9H270.4V212.2z M286.8,421.9c-13.6,0-24.6-11-24.6-24.6c0-13.6,11-24.6,24.6-24.6
			c13.6,0,24.6,11,24.6,24.6C311.4,410.8,300.3,421.9,286.8,421.9z M417.9,421.9c-13.6,0-24.6-11-24.6-24.6
			c0-13.6,11-24.6,24.6-24.6c13.6,0,24.6,11,24.6,24.6C442.5,410.8,431.4,421.9,417.9,421.9z M491.6,364.5c0,13.6-11,24.6-24.6,24.6
			h-9c-3.8-18.7-20.4-32.8-40.1-32.8s-36.3,14.1-40.1,32.8H327c-3.8-18.7-20.4-32.8-40.1-32.8s-36.3,14.1-40.1,32.8h-9
			c-13.6,0-24.6-11-24.6-24.6v-73.7c0-13.6,11-24.6,24.6-24.6H467c13.6,0,24.6,11,24.6,24.6V364.5z"/>
	</g>
</g>
<g>
	<g>
		<path d="M0,258v131.1h147.5V258H0z M65.5,274.4h16.4v16.4H65.5V274.4z M131.2,372.7h-0.1H16.4v-98.3h32.8v32.8h49.2v-32.8h32.8
			V372.7z"/>
	</g>
</g>
<g>
	<g>
		<path d="M0,110.5v131.1h147.5V110.5H0z M65.5,126.9h16.4v16.4H65.5V126.9z M131.2,225.2h-0.1H16.4v-98.3h32.8v32.8h49.2v-32.8
			h32.8V225.2z"/>
	</g>
</g>
<g>
	<g>
		<rect x="344.1" y="299" width="16.4" height="16.4"/>
	</g>
</g>
<g>
	<g>
		<rect x="376.9" y="299" width="16.4" height="16.4"/>
	</g>
</g>
<g>
	<g>
		<rect x="311.2" y="299" width="16.4" height="16.4"/>
	</g>
</g>
<g>
</g>
<g>
</g>
<g>
</g>
<g>
</g>
<g>
</g>
<g>
</g>
<g>
</g>
<g>
</g>
<g>
</g>
<g>
</g>
<g>
</g>
<g>
</g>
<g>
</g>
<g>
</g>
<g>
</g>
</svg>
