<svg xmlns="http://www.w3.org/2000/svg" xmlns:xlink="http://www.w3.org/1999/xlink" width="50" height="50" viewBox="0 0 50 50">
  <defs>
    <style>
      .cls-1 {
        fill-rule: evenodd;
        opacity: 0.25;
        filter: url(#filter);
      }
    </style>
    <filter id="filter" x="575" y="1970" width="50" height="50" filterUnits="userSpaceOnUse">
      <feFlood result="flood" flood-color="#162240"/>
      <feComposite result="composite" operator="in" in2="SourceGraphic"/>
      <feBlend result="blend" in2="SourceGraphic"/>
    </filter>
  </defs>
  <path id="check.svg" class="cls-1" d="M600,1970a25,25,0,1,0,25,25A25,25,0,0,0,600,1970Zm0,48a23,23,0,1,1,23-23A23.027,23.027,0,0,1,600,2018Zm12.506-31.93-16.054,15.57-5.624-5.62a1.5,1.5,0,1,0-2.121,2.12l6.668,6.67a1.509,1.509,0,0,0,1.061.44,1.469,1.469,0,0,0,1.043-.43l17.115-16.59A1.5,1.5,0,0,0,612.506,1986.07Z" transform="translate(-575 -1970)"/>
</svg>
