<svg xmlns="http://www.w3.org/2000/svg" xmlns:xlink="http://www.w3.org/1999/xlink" width="46" height="54" viewBox="0 0 46 54">
  <defs>
    <style>
      .cls-1 {
        fill-rule: evenodd;
        filter: url(#filter);
      }
    </style>
    <filter id="filter" x="1382" y="1966" width="46" height="54" filterUnits="userSpaceOnUse">
      <feFlood result="flood" flood-color="#ffd21d"/>
      <feComposite result="composite" operator="in" in2="SourceGraphic"/>
      <feBlend result="blend" in2="SourceGraphic"/>
    </filter>
  </defs>
  <path id="coffee.svg" class="cls-1" d="M1419.95,2000H1428v-16h-46v15A18.988,18.988,0,0,0,1419.95,2000Zm0.05-14h6v12h-6v-12Zm-19,30a17.024,17.024,0,0,1-17-17v-13h34v13A17.024,17.024,0,0,1,1401,2016Zm-19,4h38v-2h-38v2Zm12-51h-2v9h2v-9Zm16,0h-2v9h2v-9Zm-8-3h-2v12h2v-12Z" transform="translate(-1382 -1966)"/>
</svg>
