<svg xmlns="http://www.w3.org/2000/svg" xmlns:xlink="http://www.w3.org/1999/xlink" width="19.75" height="18.62" viewBox="0 0 19.75 18.62">
  <defs>
    <style>
      .cls-1 {
        fill-rule: evenodd;
        opacity: 0.25;
        filter: url(#filter);
      }
    </style>
    <filter id="filter" x="687.125" y="4790.69" width="19.75" height="18.62" filterUnits="userSpaceOnUse">
      <feFlood result="flood" flood-color="#162240"/>
      <feComposite result="composite" operator="in" in2="SourceGraphic"/>
      <feBlend result="blend" in2="SourceGraphic"/>
    </filter>
  </defs>
  <path id="more-works-icon.svg" class="cls-1" d="M704.024,4800.53l-2.863-2.86h1.677c-0.015-.04-0.031-0.08-0.047-0.12a6.8,6.8,0,1,0-.123,5.28c0.01-.02.017-0.05,0.027-0.07l1.823,1.81c-0.012.02-.02,0.05-0.033,0.07a0.07,0.07,0,0,1-.008.01,9.3,9.3,0,1,1,.925-7.09c0.009,0.04.013,0.07,0.022,0.11h1.463Z" transform="translate(-687.125 -4790.69)"/>
</svg>
